<svg width="101" height="100" viewBox="0 0 101 100" fill="none" xmlns="http://www.w3.org/2000/svg">
<g filter="url(#filter0_d_236_58)">
<path d="M26.1005 45.3685C25.977 36.2198 35.7966 33.7862 40.7218 33.713L40.9364 5.92051C41.0578 2.00124 44.4963 1.05181 46.2003 1.06701C57.6124 1.09562 81.5773 1.13567 86.1399 1.06701C90.7027 0.998327 91.889 4.28209 91.9119 5.93256V84.1803C96.1386 84.1392 97.063 86.4977 96.9968 87.6821V92H34.8002V87.6088C34.9109 84.145 38.8815 83.8937 40.853 84.2009L40.7218 39.529C34.7926 39.669 32.87 43.4803 32.6498 45.3685L33.3097 72.8799C33.6713 77.1348 31.6646 85.523 20.7454 85.0363C9.82639 84.5497 7.12888 75.4252 7.14501 70.9238V37.5989C4.41889 36.5029 3.91901 34.2666 4.00983 33.2856C3.93307 14.9644 11.2835 6.24075 14.9683 4.16909C17.821 0.956241 24.1865 0.0558007 27.0125 0.00718859H30.4068C32.2289 -0.0939976 35.8322 0.832953 35.6681 5.35024C35.504 9.8675 32.0921 11.0933 30.4068 11.1416L27.0125 11.4748C18.0711 12.4993 16.5726 27.1495 16.8086 31.8304C16.9974 35.5752 14.8465 37.2364 13.7474 37.5989V72.8799C13.7474 73.9824 14.7633 79.2946 20.7454 79.2946C25.5312 79.2946 26.8029 75.0181 26.8405 72.8799C26.6452 67.5213 26.2238 54.5171 26.1005 45.3685Z" fill="#D7B35A"/>
</g>
<g filter="url(#filter1_d_236_58)">
<path d="M47.0006 53.3164V62.1656C47.1856 63.1345 48.2022 65.0577 50.7876 64.9987C53.373 64.9397 54.0063 63.0853 54 62.1656V53.3164C53.8895 52.211 52.9948 50 50.2999 50C47.6049 50 46.9774 52.211 47.0006 53.3164Z" fill="white"/>
</g>
<g filter="url(#filter2_d_236_58)">
<path d="M45.0176 27.1758V12.9999C45.0176 10.4653 47.2882 9.95089 48.4234 10.0105C55.6814 10.0026 70.8981 9.99147 73.6999 10.0105C76.5017 10.0295 77.06 12.2551 76.989 13.3654C76.9973 16.6664 77.0089 23.9423 76.989 26.6369C76.969 29.3316 75.083 29.975 74.1424 29.9599C66.5326 29.9901 50.6477 30.0326 47.9869 29.9599C45.3262 29.8873 44.8988 28.0736 45.0176 27.1758Z" fill="white"/>
</g>
<defs>
<filter id="filter0_d_236_58" x="0" y="0" width="101" height="100" filterUnits="userSpaceOnUse" color-interpolation-filters="sRGB">
<feFlood flood-opacity="0" result="BackgroundImageFix"/>
<feColorMatrix in="SourceAlpha" type="matrix" values="0 0 0 0 0 0 0 0 0 0 0 0 0 0 0 0 0 0 127 0" result="hardAlpha"/>
<feOffset dy="4"/>
<feGaussianBlur stdDeviation="2"/>
<feComposite in2="hardAlpha" operator="out"/>
<feColorMatrix type="matrix" values="0 0 0 0 0 0 0 0 0 0 0 0 0 0 0 0 0 0 0.25 0"/>
<feBlend mode="normal" in2="BackgroundImageFix" result="effect1_dropShadow_236_58"/>
<feBlend mode="normal" in="SourceGraphic" in2="effect1_dropShadow_236_58" result="shape"/>
</filter>
<filter id="filter1_d_236_58" x="43" y="50" width="15" height="23" filterUnits="userSpaceOnUse" color-interpolation-filters="sRGB">
<feFlood flood-opacity="0" result="BackgroundImageFix"/>
<feColorMatrix in="SourceAlpha" type="matrix" values="0 0 0 0 0 0 0 0 0 0 0 0 0 0 0 0 0 0 127 0" result="hardAlpha"/>
<feOffset dy="4"/>
<feGaussianBlur stdDeviation="2"/>
<feComposite in2="hardAlpha" operator="out"/>
<feColorMatrix type="matrix" values="0 0 0 0 0 0 0 0 0 0 0 0 0 0 0 0 0 0 0.25 0"/>
<feBlend mode="normal" in2="BackgroundImageFix" result="effect1_dropShadow_236_58"/>
<feBlend mode="normal" in="SourceGraphic" in2="effect1_dropShadow_236_58" result="shape"/>
</filter>
<filter id="filter2_d_236_58" x="41" y="10" width="40" height="28" filterUnits="userSpaceOnUse" color-interpolation-filters="sRGB">
<feFlood flood-opacity="0" result="BackgroundImageFix"/>
<feColorMatrix in="SourceAlpha" type="matrix" values="0 0 0 0 0 0 0 0 0 0 0 0 0 0 0 0 0 0 127 0" result="hardAlpha"/>
<feOffset dy="4"/>
<feGaussianBlur stdDeviation="2"/>
<feComposite in2="hardAlpha" operator="out"/>
<feColorMatrix type="matrix" values="0 0 0 0 0 0 0 0 0 0 0 0 0 0 0 0 0 0 0.25 0"/>
<feBlend mode="normal" in2="BackgroundImageFix" result="effect1_dropShadow_236_58"/>
<feBlend mode="normal" in="SourceGraphic" in2="effect1_dropShadow_236_58" result="shape"/>
</filter>
</defs>
</svg>
