<svg width="93" height="92" viewBox="0 0 93 92" fill="none" xmlns="http://www.w3.org/2000/svg">
<g filter="url(#filter0_i_172_81)">
<path d="M22.1005 45.3685C21.977 36.2198 31.7966 33.7862 36.7218 33.713L36.9364 5.92051C37.0578 2.00124 40.4963 1.05181 42.2003 1.06701C53.6124 1.09562 77.5773 1.13567 82.1399 1.06701C86.7027 0.998327 87.889 4.28209 87.9119 5.93256V84.1803C92.1386 84.1392 93.063 86.4977 92.9968 87.6821V92H30.8002V87.6088C30.9109 84.145 34.8815 83.8937 36.853 84.2009L36.7218 39.529C30.7926 39.669 28.87 43.4803 28.6498 45.3685L29.3097 72.8799C29.6713 77.1348 27.6646 85.523 16.7454 85.0363C5.82639 84.5497 3.12888 75.4252 3.14501 70.9238V37.5989C0.418888 36.5029 -0.0809921 34.2666 0.00982793 33.2856C-0.0669321 14.9644 7.2835 6.24075 10.9683 4.16909C13.821 0.956241 20.1865 0.0558007 23.0125 0.00718859H26.4068C28.2289 -0.0939976 31.8322 0.832953 31.6681 5.35024C31.504 9.8675 28.0921 11.0933 26.4068 11.1416L23.0125 11.4748C14.0711 12.4993 12.5726 27.1495 12.8086 31.8304C12.9974 35.5752 10.8465 37.2364 9.7474 37.5989V72.8799C9.7474 73.9824 10.7633 79.2946 16.7454 79.2946C21.5312 79.2946 22.8029 75.0181 22.8405 72.8799C22.6452 67.5213 22.2238 54.5171 22.1005 45.3685Z" fill="#D7B35A"/>
</g>
<g filter="url(#filter1_i_172_81)">
<path d="M43.0006 53.3164V62.1656C43.1856 63.1345 44.2022 65.0577 46.7876 64.9987C49.373 64.9397 50.0063 63.0853 50 62.1656V53.3164C49.8895 52.211 48.9948 50 46.2999 50C43.6049 50 42.9774 52.211 43.0006 53.3164Z" fill="white"/>
</g>
<g filter="url(#filter2_i_172_81)">
<path d="M41.0176 27.1758V12.9999C41.0176 10.4653 43.2882 9.95089 44.4234 10.0105C51.6814 10.0026 66.8981 9.99147 69.6999 10.0105C72.5017 10.0295 73.06 12.2551 72.989 13.3654C72.9973 16.6664 73.0089 23.9423 72.989 26.6369C72.969 29.3316 71.083 29.975 70.1424 29.9599C62.5326 29.9901 46.6477 30.0326 43.9869 29.9599C41.3262 29.8873 40.8988 28.0736 41.0176 27.1758Z" fill="white"/>
</g>
<defs>
<filter id="filter0_i_172_81" x="0" y="0" width="93" height="96" filterUnits="userSpaceOnUse" color-interpolation-filters="sRGB">
<feFlood flood-opacity="0" result="BackgroundImageFix"/>
<feBlend mode="normal" in="SourceGraphic" in2="BackgroundImageFix" result="shape"/>
<feColorMatrix in="SourceAlpha" type="matrix" values="0 0 0 0 0 0 0 0 0 0 0 0 0 0 0 0 0 0 127 0" result="hardAlpha"/>
<feOffset dy="4"/>
<feGaussianBlur stdDeviation="2"/>
<feComposite in2="hardAlpha" operator="arithmetic" k2="-1" k3="1"/>
<feColorMatrix type="matrix" values="0 0 0 0 0 0 0 0 0 0 0 0 0 0 0 0 0 0 0.25 0"/>
<feBlend mode="normal" in2="shape" result="effect1_innerShadow_172_81"/>
</filter>
<filter id="filter1_i_172_81" x="43" y="50" width="7" height="19" filterUnits="userSpaceOnUse" color-interpolation-filters="sRGB">
<feFlood flood-opacity="0" result="BackgroundImageFix"/>
<feBlend mode="normal" in="SourceGraphic" in2="BackgroundImageFix" result="shape"/>
<feColorMatrix in="SourceAlpha" type="matrix" values="0 0 0 0 0 0 0 0 0 0 0 0 0 0 0 0 0 0 127 0" result="hardAlpha"/>
<feOffset dy="4"/>
<feGaussianBlur stdDeviation="2"/>
<feComposite in2="hardAlpha" operator="arithmetic" k2="-1" k3="1"/>
<feColorMatrix type="matrix" values="0 0 0 0 0 0 0 0 0 0 0 0 0 0 0 0 0 0 0.25 0"/>
<feBlend mode="normal" in2="shape" result="effect1_innerShadow_172_81"/>
</filter>
<filter id="filter2_i_172_81" x="41" y="10" width="32" height="24" filterUnits="userSpaceOnUse" color-interpolation-filters="sRGB">
<feFlood flood-opacity="0" result="BackgroundImageFix"/>
<feBlend mode="normal" in="SourceGraphic" in2="BackgroundImageFix" result="shape"/>
<feColorMatrix in="SourceAlpha" type="matrix" values="0 0 0 0 0 0 0 0 0 0 0 0 0 0 0 0 0 0 127 0" result="hardAlpha"/>
<feOffset dy="4"/>
<feGaussianBlur stdDeviation="2"/>
<feComposite in2="hardAlpha" operator="arithmetic" k2="-1" k3="1"/>
<feColorMatrix type="matrix" values="0 0 0 0 0 0 0 0 0 0 0 0 0 0 0 0 0 0 0.25 0"/>
<feBlend mode="normal" in2="shape" result="effect1_innerShadow_172_81"/>
</filter>
</defs>
</svg>
