<svg width="113" height="75" viewBox="0 0 113 75" fill="none" xmlns="http://www.w3.org/2000/svg">
<path fill-rule="evenodd" clip-rule="evenodd" d="M91.9331 49.7437C88.2318 49.7354 84.678 51.0274 82.0522 53.3359C79.4264 55.6444 77.9431 58.7807 77.9282 62.0562C77.9282 68.85 84.2138 74.3687 91.9331 74.3687C95.6326 74.3753 99.1838 73.0825 101.807 70.774C104.43 68.4655 105.911 65.33 105.924 62.0562C105.924 55.2625 99.6454 49.7437 91.9331 49.7437Z" fill="#D7B35A"/>
<path fill-rule="evenodd" clip-rule="evenodd" d="M49.3244 50.0565C41.6263 50.0565 35.3477 55.4627 35.3477 62.144C35.3477 68.8065 41.6263 74.2315 49.3244 74.2315C57.0508 74.2315 63.3081 68.8127 63.3081 62.144C63.3152 55.469 57.0508 50.0565 49.3244 50.0565Z" fill="#D7B35A"/>
<path fill-rule="evenodd" clip-rule="evenodd" d="M23.1367 27.7689C23.1367 36.3876 10.1629 43.3689 0 43.3689L4.73187 12.1689C14.8948 12.1689 23.1367 19.1501 23.1367 27.7689Z" fill="#D7B35A"/>
<path fill-rule="evenodd" clip-rule="evenodd" d="M43.47 41.0751L10.6577 29.7938L13.5815 21.2876L46.3869 32.5688L43.47 41.0751Z" fill="#D7B35A"/>
<path fill-rule="evenodd" clip-rule="evenodd" d="M107.527 36.5438C107.746 35.7125 105.641 34.85 105.641 33.9563V11.475C105.641 5.1438 102.103 0 94.9978 0H64.6926C61.266 0.0133 57.9853 1.2289 55.5702 3.3801C53.1552 5.5314 51.8031 8.4426 51.8106 11.475L47.0646 33.9563L47.0787 34.0438C41.1815 35.5438 37.396 39.05 37.396 45.5813C37.396 45.8563 37.4525 46.1 37.4596 46.375C40.9715 44.2929 45.1045 43.1832 49.3317 43.1875C54.3571 43.1811 59.2226 44.751 63.064 47.6184C66.9054 50.4859 69.4743 54.4653 70.3144 58.85C70.505 59.5938 70.6251 60.2688 70.6816 60.8C71.0487 56.0314 73.4491 51.5643 77.3971 48.3025C81.3451 45.0408 86.5458 43.2281 91.9468 43.2313C100.613 43.2313 108.049 47.8 111.411 54.3313C112.442 51.7875 112.633 48.7938 112.633 45.575C112.619 41.4188 110.613 38.525 107.527 36.5438ZM78.0619 31.3063H63.1247V8.1375C63.1247 6.3375 63.8663 5.6375 64.7773 5.6375H76.3952C77.3133 5.6375 78.0619 6.3375 78.0619 8.1375V31.3063ZM99.0022 25.0375H84.4605V5.5313H99.0022V25.0375Z" fill="#D7B35A"/>
</svg>
