<svg width="65" height="65" viewBox="0 0 65 65" fill="none" xmlns="http://www.w3.org/2000/svg">
<path fill-rule="evenodd" clip-rule="evenodd" d="M23.6897 47.8578L47.4627 24.0863C52.1831 26.5277 57.7973 26.0727 61.4047 22.4696C64.1834 19.6871 65.1218 15.7021 64.2849 11.8553L58.1548 17.9728L52.695 19.0371L46.0896 12.5012L47.2271 6.87515L53.3003 0.883531C49.4532 0.0426727 45.4599 0.972897 42.6853 3.75138C39.0739 7.35854 38.627 12.9724 41.0685 17.6966L17.2955 41.4681C12.571 39.0309 6.95682 39.4858 3.34944 43.0848C0.570785 45.8715 -0.367621 49.8523 0.473288 53.6992L6.59934 47.5857L12.0551 46.5173L18.6686 53.0533L17.5271 58.6793L11.4539 64.675C15.2969 65.5118 19.2902 64.5856 22.0688 61.8031C25.6721 58.1959 26.1231 52.5821 23.6897 47.8578V47.8578Z" fill="#787575"/>
<path fill-rule="evenodd" clip-rule="evenodd" d="M57.3912 50.031L49.9571 47.6019L40.4674 38.1128L38.1112 40.4688L47.6009 49.9498L50.1886 57.5541L62.6479 64.9999L65 62.648L57.3912 50.031V50.031Z" fill="#787575"/>
<path fill-rule="evenodd" clip-rule="evenodd" d="M29.6452 20.6742L10.1499 1.107C8.51281 -0.534099 5.63665 -0.330993 3.73953 1.58632L1.57429 3.74737C-0.322838 5.66469 -0.538144 8.5366 1.10711 10.1858L20.5943 29.753L29.6452 20.6742V20.6742Z" fill="#787575"/>
</svg>
