<svg width="113" height="100" viewBox="0 0 113 100" fill="none" xmlns="http://www.w3.org/2000/svg">
<path fill-rule="evenodd" clip-rule="evenodd" d="M91.9329 62.5748C88.2316 62.5665 84.6778 63.8585 82.052 66.167C79.4262 68.4755 77.9429 71.6118 77.928 74.8873C77.928 81.6811 84.2136 87.1998 91.9329 87.1998C95.6324 87.2064 99.1836 85.9136 101.807 83.6051C104.43 81.2966 105.911 78.1611 105.924 74.8873C105.924 68.0936 99.6452 62.5748 91.9329 62.5748Z" fill="#787575"/>
<path fill-rule="evenodd" clip-rule="evenodd" d="M49.3246 62.8876C41.6265 62.8876 35.3479 68.2938 35.3479 74.9751C35.3479 81.6376 41.6265 87.0626 49.3246 87.0626C57.051 87.0626 63.3083 81.6438 63.3083 74.9751C63.3154 68.3001 57.051 62.8876 49.3246 62.8876Z" fill="#787575"/>
<path fill-rule="evenodd" clip-rule="evenodd" d="M23.1367 40.6C23.1367 49.2187 10.1629 56.2 0 56.2L4.73187 25C14.8948 25 23.1367 31.9812 23.1367 40.6Z" fill="#787575"/>
<path fill-rule="evenodd" clip-rule="evenodd" d="M43.4698 53.9062L10.6575 42.6249L13.5813 34.1187L46.3867 45.3999L43.4698 53.9062V53.9062Z" fill="#787575"/>
<path fill-rule="evenodd" clip-rule="evenodd" d="M107.527 49.3749C107.746 48.5436 105.641 47.6811 105.641 46.7874V24.3061C105.641 17.9749 102.103 12.8311 94.998 12.8311H64.6928C61.2662 12.8444 57.9855 14.06 55.5704 16.2112C53.1554 18.3625 51.8033 21.2737 51.8108 24.3061L47.0648 46.7874L47.0789 46.8749C41.1817 48.3749 37.3962 51.8811 37.3962 58.4124C37.3962 58.6874 37.4527 58.9311 37.4598 59.2061C40.9717 57.124 45.1047 56.0143 49.3319 56.0186C54.3573 56.0122 59.2228 57.5821 63.0642 60.4495C66.9056 63.317 69.4745 67.2964 70.3146 71.6811C70.5052 72.4249 70.6253 73.0999 70.6818 73.6311C71.0489 68.8625 73.4493 64.3954 77.3973 61.1336C81.3453 57.8719 86.546 56.0592 91.947 56.0624C100.613 56.0624 108.049 60.6311 111.411 67.1624C112.442 64.6186 112.633 61.6249 112.633 58.4061C112.619 54.2499 110.613 51.3561 107.527 49.3749V49.3749ZM78.0621 44.1374H63.1249V20.9686C63.1249 19.1686 63.8665 18.4686 64.7775 18.4686H76.3954C77.3135 18.4686 78.0621 19.1686 78.0621 20.9686V44.1374V44.1374ZM99.0024 37.8686H84.4607V18.3624H99.0024V37.8686Z" fill="#787575"/>
</svg>
