<svg width="135" height="94" viewBox="0 0 135 94" fill="none" xmlns="http://www.w3.org/2000/svg">
<path d="M128.25 0H6.75C3.02273 0 0 3.00674 0 6.71429V87.2857C0 90.9933 3.02273 94 6.75 94H128.25C131.977 94 135 90.9933 135 87.2857V6.71429C135 3.00674 131.977 0 128.25 0ZM37.125 62.082V65.4643C37.125 66.3917 36.3698 67.1429 35.4375 67.1429H32.0625C31.1302 67.1429 30.375 66.3917 30.375 65.4643V62.0463C27.9935 61.9246 25.6774 61.0979 23.7579 59.6648C22.9352 59.05 22.893 57.8247 23.6377 57.1176L26.1162 54.7655C26.7005 54.2116 27.5695 54.1864 28.253 54.6123C29.0693 55.1201 29.9953 55.3929 30.9572 55.3929H36.8866C38.2577 55.3929 39.3757 54.1507 39.3757 52.6253C39.3757 51.3769 38.6142 50.2774 37.5258 49.9543L28.0336 47.1217C24.1123 45.9509 21.3722 42.2077 21.3722 38.0175C21.3722 32.8727 25.3905 28.6931 30.3729 28.5609V25.1786C30.3729 24.2512 31.128 23.5 32.0604 23.5H35.4354C36.3677 23.5 37.1229 24.2512 37.1229 25.1786V28.5966C39.5044 28.7183 41.8205 29.5429 43.74 30.978C44.5627 31.5928 44.6048 32.8182 43.8602 33.5253L41.3817 35.8774C40.7974 36.4313 39.9284 36.4565 39.2449 36.0305C38.4286 35.5207 37.5026 35.25 36.5407 35.25H30.6112C29.2402 35.25 28.1222 36.4921 28.1222 38.0175C28.1222 39.266 28.8837 40.3654 29.9721 40.6886L39.4643 43.5212C43.3856 44.692 46.1257 48.4352 46.1257 52.6253C46.1257 57.7722 42.1073 61.9498 37.125 62.082ZM87.75 58.75C87.75 59.6774 86.9948 60.4286 86.0625 60.4286H62.4375C61.5052 60.4286 60.75 59.6774 60.75 58.75V55.3929C60.75 54.4654 61.5052 53.7143 62.4375 53.7143H86.0625C86.9948 53.7143 87.75 54.4654 87.75 55.3929V58.75ZM121.5 58.75C121.5 59.6774 120.745 60.4286 119.812 60.4286H102.938C102.005 60.4286 101.25 59.6774 101.25 58.75V55.3929C101.25 54.4654 102.005 53.7143 102.938 53.7143H119.812C120.745 53.7143 121.5 54.4654 121.5 55.3929V58.75ZM121.5 38.6071C121.5 39.5346 120.745 40.2857 119.812 40.2857H62.4375C61.5052 40.2857 60.75 39.5346 60.75 38.6071V35.25C60.75 34.3226 61.5052 33.5714 62.4375 33.5714H119.812C120.745 33.5714 121.5 34.3226 121.5 35.25V38.6071Z" fill="#787575"/>
</svg>
