<svg width="94" height="94" viewBox="0 0 94 94" fill="none" xmlns="http://www.w3.org/2000/svg">
<path d="M47 88.125C36.093 88.125 25.6327 83.7922 17.9202 76.0798C10.2078 68.3673 5.875 57.907 5.875 47C5.875 36.093 10.2078 25.6327 17.9202 17.9202C25.6327 10.2078 36.093 5.875 47 5.875C57.907 5.875 68.3673 10.2078 76.0798 17.9202C83.7922 25.6327 88.125 36.093 88.125 47C88.125 57.907 83.7922 68.3673 76.0798 76.0798C68.3673 83.7922 57.907 88.125 47 88.125ZM47 94C59.4652 94 71.4198 89.0482 80.234 80.234C89.0482 71.4198 94 59.4652 94 47C94 34.5348 89.0482 22.5802 80.234 13.766C71.4198 4.95177 59.4652 0 47 0C34.5348 0 22.5802 4.95177 13.766 13.766C4.95177 22.5802 0 34.5348 0 47C0 59.4652 4.95177 71.4198 13.766 80.234C22.5802 89.0482 34.5348 94 47 94Z" fill="#787575"/>
<path d="M52.4635 38.7045L39.0097 40.3906L38.528 42.6231L41.1717 43.1107C42.899 43.522 43.2397 44.1448 42.8637 45.8661L38.528 66.2406C37.3882 71.5105 39.1448 73.9897 43.275 73.9897C46.4768 73.9897 50.1957 72.5093 51.8818 70.4765L52.3988 68.0325C51.2238 69.0665 49.5083 69.4778 48.3686 69.4778C46.753 69.4778 46.1655 68.3439 46.5826 66.3464L52.4635 38.7045ZM52.8747 26.4375C52.8747 27.9956 52.2557 29.49 51.154 30.5918C50.0522 31.6935 48.5579 32.3125 46.9997 32.3125C45.4416 32.3125 43.9472 31.6935 42.8455 30.5918C41.7437 29.49 41.1247 27.9956 41.1247 26.4375C41.1247 24.8794 41.7437 23.385 42.8455 22.2832C43.9472 21.1815 45.4416 20.5625 46.9997 20.5625C48.5579 20.5625 50.0522 21.1815 51.154 22.2832C52.2557 23.385 52.8747 24.8794 52.8747 26.4375Z" fill="#787575"/>
</svg>
