<svg width="583" height="151" viewBox="0 0 583 151" fill="none" xmlns="http://www.w3.org/2000/svg">
<path fill-rule="evenodd" clip-rule="evenodd" d="M438 65C438.133 65 438.26 65.0527 438.354 65.1464C438.447 65.2402 438.5 65.3674 438.5 65.5V71.293L440.646 69.146C440.693 69.0995 440.748 69.0626 440.809 69.0375C440.869 69.0123 440.934 68.9994 441 68.9994C441.066 68.9994 441.131 69.0123 441.192 69.0375C441.252 69.0626 441.308 69.0995 441.354 69.146C441.401 69.1925 441.438 69.2477 441.463 69.3084C441.488 69.3692 441.501 69.4343 441.501 69.5C441.501 69.5657 441.488 69.6308 441.463 69.6916C441.438 69.7523 441.401 69.8075 441.354 69.854L438.354 72.854C438.308 72.9006 438.253 72.9375 438.192 72.9627C438.131 72.9879 438.066 73.0009 438 73.0009C437.934 73.0009 437.869 72.9879 437.809 72.9627C437.748 72.9375 437.693 72.9006 437.646 72.854L434.646 69.854C434.6 69.8075 434.563 69.7523 434.538 69.6916C434.512 69.6308 434.5 69.5657 434.5 69.5C434.5 69.4343 434.512 69.3692 434.538 69.3084C434.563 69.2477 434.6 69.1925 434.646 69.146C434.74 69.0521 434.867 68.9994 435 68.9994C435.066 68.9994 435.131 69.0123 435.192 69.0375C435.252 69.0626 435.308 69.0995 435.354 69.146L437.5 71.293V65.5C437.5 65.3674 437.553 65.2402 437.647 65.1464C437.74 65.0527 437.868 65 438 65Z" fill="white"/>
<rect y="128" width="413" height="23" rx="10" fill="url(#paint0_linear_208_66)"/>
<ellipse cx="8.5" cy="136" rx="8.5" ry="8" fill="white"/>
<rect y="128" width="413" height="23" rx="10" fill="url(#paint1_linear_208_66)"/>
<circle cx="17.5" cy="139.5" r="8.5" fill="white"/>
<rect x="309" y="45" width="174" height="78" rx="10" fill="white"/>
<path d="M354.339 86H352.977V76.9692L350.245 77.9727V76.7422L354.127 75.2847H354.339V86ZM363.626 75.3286V76.4785H363.377C362.323 76.498 361.483 76.8105 360.858 77.416C360.233 78.0215 359.872 78.8735 359.774 79.9722C360.335 79.3276 361.102 79.0054 362.074 79.0054C363.001 79.0054 363.741 79.3325 364.293 79.9868C364.85 80.6411 365.128 81.4858 365.128 82.521C365.128 83.6196 364.828 84.4985 364.227 85.1577C363.631 85.8169 362.831 86.1465 361.825 86.1465C360.804 86.1465 359.977 85.7559 359.342 84.9746C358.707 84.1885 358.39 83.1777 358.39 81.9424V81.4224C358.39 79.4595 358.807 77.9604 359.642 76.9253C360.482 75.8853 361.729 75.353 363.385 75.3286H363.626ZM361.847 80.1333C361.383 80.1333 360.956 80.2725 360.565 80.5508C360.174 80.8291 359.903 81.1782 359.752 81.5981V82.0962C359.752 82.9751 359.95 83.6831 360.345 84.2202C360.741 84.7573 361.234 85.0259 361.825 85.0259C362.435 85.0259 362.914 84.8013 363.26 84.3521C363.612 83.9028 363.788 83.3145 363.788 82.5869C363.788 81.8545 363.609 81.2637 363.253 80.8145C362.901 80.3604 362.433 80.1333 361.847 80.1333ZM368.497 84.8501H373.551V86H367.083V75.3359H368.497V84.8501ZM381.651 82.1255C381.651 83.3364 381.373 84.3105 380.816 85.0479C380.26 85.7803 379.513 86.1465 378.575 86.1465C377.574 86.1465 376.8 85.7925 376.253 85.0845L376.188 86H374.942V74.75H376.297V78.9468C376.844 78.2681 377.599 77.9287 378.561 77.9287C379.522 77.9287 380.277 78.2925 380.824 79.02C381.375 79.7476 381.651 80.7437 381.651 82.0083V82.1255ZM380.296 81.9717C380.296 81.0488 380.118 80.3359 379.762 79.833C379.405 79.3301 378.893 79.0786 378.224 79.0786C377.33 79.0786 376.688 79.4937 376.297 80.3237V83.7515C376.712 84.5815 377.359 84.9966 378.238 84.9966C378.888 84.9966 379.393 84.7451 379.754 84.2422C380.116 83.7393 380.296 82.9824 380.296 81.9717ZM387.196 79.291C386.991 79.2568 386.769 79.2397 386.529 79.2397C385.641 79.2397 385.038 79.6182 384.72 80.375V86H383.365V78.0752H384.684L384.706 78.9907C385.15 78.2827 385.78 77.9287 386.595 77.9287C386.859 77.9287 387.059 77.9629 387.196 78.0312V79.291Z" fill="#0B112B"/>
<path d="M354.339 86V87H355.339V86H354.339ZM352.977 86H351.977V87H352.977V86ZM352.977 76.9692H353.977V75.5366L352.632 76.0306L352.977 76.9692ZM350.245 77.9727H349.245V79.4053L350.59 78.9113L350.245 77.9727ZM350.245 76.7422L349.894 75.806L349.245 76.0495V76.7422H350.245ZM354.127 75.2847V74.2847H353.945L353.775 74.3485L354.127 75.2847ZM354.339 75.2847H355.339V74.2847H354.339V75.2847ZM354.339 85H352.977V87H354.339V85ZM353.977 86V76.9692H351.977V86H353.977ZM352.632 76.0306L349.9 77.034L350.59 78.9113L353.322 77.9079L352.632 76.0306ZM351.245 77.9727V76.7422H349.245V77.9727H351.245ZM350.597 77.6784L354.478 76.2209L353.775 74.3485L349.894 75.806L350.597 77.6784ZM354.127 76.2847H354.339V74.2847H354.127V76.2847ZM353.339 75.2847V86H355.339V75.2847H353.339ZM363.626 75.3286H364.626V74.3286H363.626V75.3286ZM363.626 76.4785V77.4785H364.626V76.4785H363.626ZM363.377 76.4785V75.4785H363.368L363.359 75.4787L363.377 76.4785ZM360.858 77.416L360.162 76.6978L360.858 77.416ZM359.774 79.9722L358.778 79.8836L358.505 82.9508L360.528 80.6291L359.774 79.9722ZM364.293 79.9868L363.528 80.6315L363.531 80.6348L364.293 79.9868ZM364.227 85.1577L363.488 84.4842L363.485 84.4872L364.227 85.1577ZM359.342 84.9746L358.564 85.6028L358.566 85.6052L359.342 84.9746ZM359.642 76.9253L358.864 76.297L358.864 76.2975L359.642 76.9253ZM363.385 75.3286V74.3286H363.377L363.37 74.3287L363.385 75.3286ZM359.752 81.5981L358.811 81.259L358.752 81.4234V81.5981H359.752ZM363.26 84.3521L362.473 83.7357L362.469 83.7411L363.26 84.3521ZM363.253 80.8145L362.462 81.4267L362.47 81.436L363.253 80.8145ZM362.626 75.3286V76.4785H364.626V75.3286H362.626ZM363.626 75.4785H363.377V77.4785H363.626V75.4785ZM363.359 75.4787C362.108 75.5019 361.006 75.8802 360.162 76.6978L361.554 78.1343C361.96 77.7409 362.538 77.4942 363.396 77.4783L363.359 75.4787ZM360.162 76.6978C359.322 77.5112 358.891 78.6117 358.778 79.8836L360.77 80.0607C360.852 79.1354 361.143 78.5318 361.554 78.1343L360.162 76.6978ZM360.528 80.6291C360.872 80.2336 361.347 80.0054 362.074 80.0054V78.0054C360.857 78.0054 359.798 78.4216 359.02 79.3153L360.528 80.6291ZM362.074 80.0054C362.735 80.0054 363.184 80.2231 363.529 80.6315L365.057 79.3422C364.298 78.4419 363.268 78.0054 362.074 78.0054V80.0054ZM363.531 80.6348C363.904 81.073 364.128 81.6725 364.128 82.521H366.128C366.128 81.2992 365.795 80.2092 365.055 79.3388L363.531 80.6348ZM364.128 82.521C364.128 83.431 363.884 84.0495 363.488 84.4842L364.966 85.8312C365.771 84.9476 366.128 83.8083 366.128 82.521H364.128ZM363.485 84.4872C363.105 84.9078 362.589 85.1465 361.825 85.1465V87.1465C363.072 87.1465 364.158 86.726 364.969 85.8282L363.485 84.4872ZM361.825 85.1465C361.1 85.1465 360.56 84.8878 360.118 84.344L358.566 85.6052C359.393 86.6239 360.508 87.1465 361.825 87.1465V85.1465ZM360.12 84.3464C359.659 83.7751 359.39 83.0016 359.39 81.9424H357.39C357.39 83.3538 357.756 84.6019 358.564 85.6028L360.12 84.3464ZM359.39 81.9424V81.4224H357.39V81.9424H359.39ZM359.39 81.4224C359.39 79.583 359.783 78.3431 360.42 77.5531L358.864 76.2975C357.831 77.5778 357.39 79.336 357.39 81.4224H359.39ZM360.42 77.5535C361.03 76.7987 361.964 76.3497 363.4 76.3285L363.37 74.3287C361.495 74.3564 359.934 74.9718 358.864 76.297L360.42 77.5535ZM363.385 76.3286H363.626V74.3286H363.385V76.3286ZM361.847 79.1333C361.167 79.1333 360.539 79.3417 359.985 79.7364L361.145 81.3652C361.373 81.2032 361.598 81.1333 361.847 81.1333V79.1333ZM359.985 79.7364C359.441 80.1235 359.037 80.6332 358.811 81.259L360.693 81.9373C360.77 81.7232 360.907 81.5347 361.145 81.3652L359.985 79.7364ZM358.752 81.5981V82.0962H360.752V81.5981H358.752ZM358.752 82.0962C358.752 83.121 358.983 84.0569 359.54 84.8132L361.15 83.6273C360.916 83.3093 360.752 82.8292 360.752 82.0962H358.752ZM359.54 84.8132C360.096 85.5683 360.872 86.0259 361.825 86.0259V84.0259C361.596 84.0259 361.385 83.9464 361.15 83.6273L359.54 84.8132ZM361.825 86.0259C362.718 86.0259 363.5 85.6782 364.052 84.963L362.469 83.7411C362.327 83.9243 362.152 84.0259 361.825 84.0259V86.0259ZM364.048 84.9684C364.571 84.2997 364.788 83.4755 364.788 82.5869H362.788C362.788 83.1534 362.653 83.506 362.473 83.7357L364.048 84.9684ZM364.788 82.5869C364.788 81.6923 364.568 80.8629 364.036 80.1929L362.47 81.436C362.651 81.6644 362.788 82.0167 362.788 82.5869H364.788ZM364.044 80.2023C363.498 79.4978 362.735 79.1333 361.847 79.1333V81.1333C362.131 81.1333 362.304 81.2229 362.462 81.4266L364.044 80.2023ZM368.497 84.8501H367.497V85.8501H368.497V84.8501ZM373.551 84.8501H374.551V83.8501H373.551V84.8501ZM373.551 86V87H374.551V86H373.551ZM367.083 86H366.083V87H367.083V86ZM367.083 75.3359V74.3359H366.083V75.3359H367.083ZM368.497 75.3359H369.497V74.3359H368.497V75.3359ZM368.497 85.8501H373.551V83.8501H368.497V85.8501ZM372.551 84.8501V86H374.551V84.8501H372.551ZM373.551 85H367.083V87H373.551V85ZM368.083 86V75.3359H366.083V86H368.083ZM367.083 76.3359H368.497V74.3359H367.083V76.3359ZM367.497 75.3359V84.8501H369.497V75.3359H367.497ZM380.816 85.0479L381.613 85.6529L381.614 85.6504L380.816 85.0479ZM376.253 85.0845L377.045 84.4732L375.444 82.4008L375.256 85.0127L376.253 85.0845ZM376.188 86V87H377.118L377.185 86.0718L376.188 86ZM374.942 86H373.942V87H374.942V86ZM374.942 74.75V73.75H373.942V74.75H374.942ZM376.297 74.75H377.297V73.75H376.297V74.75ZM376.297 78.9468H375.297V81.7817L377.076 79.5742L376.297 78.9468ZM380.824 79.02L380.024 79.6209L380.027 79.6243L380.824 79.02ZM376.297 80.3237L375.393 79.8979L375.297 80.1002V80.3237H376.297ZM376.297 83.7515H375.297V83.9875L375.403 84.1987L376.297 83.7515ZM380.651 82.1255C380.651 83.1865 380.408 83.9287 380.018 84.4453L381.614 85.6504C382.338 84.6924 382.651 83.4863 382.651 82.1255H380.651ZM380.02 84.4428C379.657 84.9208 379.207 85.1465 378.575 85.1465V87.1465C379.818 87.1465 380.863 86.6397 381.613 85.6529L380.02 84.4428ZM378.575 85.1465C377.842 85.1465 377.378 84.9046 377.045 84.4732L375.462 85.6958C376.223 86.6804 377.307 87.1465 378.575 87.1465V85.1465ZM375.256 85.0127L375.19 85.9282L377.185 86.0718L377.251 85.1563L375.256 85.0127ZM376.188 85H374.942V87H376.188V85ZM375.942 86V74.75H373.942V86H375.942ZM374.942 75.75H376.297V73.75H374.942V75.75ZM375.297 74.75V78.9468H377.297V74.75H375.297ZM377.076 79.5742C377.412 79.1575 377.866 78.9287 378.561 78.9287V76.9287C377.332 76.9287 376.277 77.3786 375.519 78.3194L377.076 79.5742ZM378.561 78.9287C379.229 78.9287 379.679 79.1609 380.024 79.6209L381.623 78.4192C380.875 77.4241 379.816 76.9287 378.561 76.9287V78.9287ZM380.027 79.6243C380.404 80.1221 380.651 80.8794 380.651 82.0083H382.651C382.651 80.6079 382.346 79.373 381.621 78.4158L380.027 79.6243ZM380.651 82.0083V82.1255H382.651V82.0083H380.651ZM381.296 81.9717C381.296 80.939 381.1 79.9918 380.578 79.2548L378.946 80.4112C379.136 80.6801 379.296 81.1587 379.296 81.9717H381.296ZM380.578 79.2548C380.016 78.462 379.184 78.0786 378.224 78.0786V80.0786C378.601 80.0786 378.795 80.1982 378.946 80.4112L380.578 79.2548ZM378.224 78.0786C377.617 78.0786 377.038 78.2213 376.529 78.5501C376.022 78.8777 375.651 79.3478 375.393 79.8979L377.202 80.7495C377.334 80.4695 377.48 80.3171 377.615 80.2297C377.748 80.1434 377.936 80.0786 378.224 80.0786V78.0786ZM375.297 80.3237V83.7515H377.297V80.3237H375.297ZM375.403 84.1987C375.674 84.7413 376.05 85.2039 376.554 85.527C377.061 85.8521 377.636 85.9966 378.238 85.9966V83.9966C377.962 83.9966 377.774 83.9335 377.634 83.8436C377.49 83.7517 377.336 83.5917 377.192 83.3043L375.403 84.1987ZM378.238 85.9966C379.191 85.9966 380.007 85.6047 380.567 84.8257L378.942 83.6587C378.779 83.8855 378.584 83.9966 378.238 83.9966V85.9966ZM380.567 84.8257C381.105 84.0755 381.296 83.0708 381.296 81.9717H379.296C379.296 82.894 379.126 83.403 378.942 83.6587L380.567 84.8257ZM387.196 79.291L387.031 80.2774L388.196 80.4715V79.291H387.196ZM384.72 80.375L383.798 79.9883L383.72 80.1738V80.375H384.72ZM384.72 86V87H385.72V86H384.72ZM383.365 86H382.365V87H383.365V86ZM383.365 78.0752V77.0752H382.365V78.0752H383.365ZM384.684 78.0752L385.683 78.0512L385.66 77.0752H384.684V78.0752ZM384.706 78.9907L383.706 79.0147L383.786 82.3378L385.553 79.5223L384.706 78.9907ZM387.196 78.0312H388.196V77.4132L387.643 77.1368L387.196 78.0312ZM387.36 78.3046C387.093 78.2602 386.816 78.2397 386.529 78.2397V80.2397C386.722 80.2397 386.888 80.2535 387.031 80.2774L387.36 78.3046ZM386.529 78.2397C385.943 78.2397 385.375 78.3652 384.879 78.6765C384.377 78.9914 384.024 79.4498 383.798 79.9883L385.642 80.7617C385.734 80.5433 385.841 80.4342 385.942 80.3706C386.049 80.3035 386.226 80.2397 386.529 80.2397V78.2397ZM383.72 80.375V86H385.72V80.375H383.72ZM384.72 85H383.365V87H384.72V85ZM384.365 86V78.0752H382.365V86H384.365ZM383.365 79.0752H384.684V77.0752H383.365V79.0752ZM383.684 78.0992L383.706 79.0147L385.705 78.9667L385.683 78.0512L383.684 78.0992ZM385.553 79.5223C385.82 79.0969 386.134 78.9287 386.595 78.9287V76.9287C385.425 76.9287 384.48 77.4686 383.859 78.4591L385.553 79.5223ZM386.595 78.9287C386.686 78.9287 386.744 78.9348 386.775 78.9401C386.808 78.9457 386.792 78.9472 386.749 78.9257L387.643 77.1368C387.301 76.9657 386.917 76.9287 386.595 76.9287V78.9287ZM386.196 78.0312V79.291H388.196V78.0312H386.196Z" fill="black"/>
<path d="M412.769 77.3867C412.769 76.7471 412.972 76.2197 413.377 75.8047C413.787 75.3896 414.312 75.1821 414.952 75.1821C415.601 75.1821 416.126 75.3921 416.526 75.812C416.932 76.2271 417.134 76.7666 417.134 77.4307V77.9507C417.134 78.5952 416.929 79.1226 416.519 79.5327C416.114 79.938 415.596 80.1406 414.966 80.1406C414.332 80.1406 413.807 79.938 413.392 79.5327C412.977 79.1226 412.769 78.5781 412.769 77.8994V77.3867ZM413.78 77.9507C413.78 78.3315 413.887 78.6465 414.102 78.8955C414.317 79.1396 414.605 79.2617 414.966 79.2617C415.313 79.2617 415.591 79.1421 415.801 78.9028C416.016 78.6636 416.124 78.3364 416.124 77.9214V77.3867C416.124 77.0059 416.019 76.6909 415.809 76.4419C415.599 76.1929 415.313 76.0684 414.952 76.0684C414.59 76.0684 414.305 76.1929 414.095 76.4419C413.885 76.6909 413.78 77.0156 413.78 77.416V77.9507ZM417.962 83.3853C417.962 82.7456 418.165 82.2207 418.57 81.8105C418.98 81.3955 419.505 81.188 420.145 81.188C420.784 81.188 421.309 81.3931 421.719 81.8032C422.129 82.2134 422.334 82.7578 422.334 83.4365V83.9565C422.334 84.5962 422.129 85.1235 421.719 85.5386C421.314 85.9487 420.794 86.1538 420.159 86.1538C419.524 86.1538 419 85.9512 418.584 85.5459C418.169 85.1357 417.962 84.5913 417.962 83.9126V83.3853ZM418.973 83.9565C418.973 84.3423 419.08 84.6597 419.295 84.9087C419.51 85.1528 419.798 85.2749 420.159 85.2749C420.511 85.2749 420.792 85.1553 421.001 84.916C421.211 84.6719 421.316 84.3423 421.316 83.9272V83.3853C421.316 82.9995 421.209 82.6846 420.994 82.4404C420.784 82.1963 420.501 82.0742 420.145 82.0742C419.798 82.0742 419.515 82.1963 419.295 82.4404C419.08 82.6797 418.973 83.0044 418.973 83.4146V83.9565ZM415.274 85.1943L414.505 84.7109L419.712 76.376L420.481 76.8594L415.274 85.1943Z" fill="#98999D"/>
<path d="M413.377 75.8047L412.666 75.1018L412.661 75.106L413.377 75.8047ZM416.526 75.812L415.803 76.5021L415.811 76.5107L416.526 75.812ZM413.392 79.5327L412.689 80.244L412.693 80.2482L413.392 79.5327ZM414.102 78.8955L413.345 79.5488L413.351 79.5561L414.102 78.8955ZM415.801 78.9028L415.057 78.2347L415.05 78.2432L415.801 78.9028ZM418.57 81.8105L417.859 81.1076L417.858 81.1077L418.57 81.8105ZM421.719 85.5386L421.008 84.8357L421.008 84.8357L421.719 85.5386ZM418.584 85.5459L417.882 86.2572L417.886 86.2614L418.584 85.5459ZM419.295 84.9087L418.538 85.562L418.544 85.5693L419.295 84.9087ZM421.001 84.916L421.753 85.5756L421.76 85.5681L421.001 84.916ZM420.994 82.4404L420.236 83.0925L420.243 83.1011L420.994 82.4404ZM419.295 82.4404L418.552 81.7715L418.551 81.7723L419.295 82.4404ZM415.274 85.1943L414.742 86.041L415.591 86.5746L416.122 85.7242L415.274 85.1943ZM414.505 84.7109L413.657 84.1811L413.128 85.0268L413.973 85.5576L414.505 84.7109ZM419.712 76.376L420.245 75.5293L419.396 74.9957L418.864 75.8461L419.712 76.376ZM420.481 76.8594L421.33 77.3892L421.858 76.5435L421.014 76.0127L420.481 76.8594ZM413.769 77.3867C413.769 76.9788 413.889 76.7116 414.092 76.5033L412.661 75.106C412.054 75.7279 411.769 76.5153 411.769 77.3867H413.769ZM414.088 76.5076C414.292 76.3019 414.551 76.1821 414.952 76.1821V74.1821C414.073 74.1821 413.283 74.4774 412.666 75.1018L414.088 76.5076ZM414.952 76.1821C415.364 76.1821 415.614 76.3047 415.803 76.5021L417.25 75.1219C416.638 74.4795 415.839 74.1821 414.952 74.1821V76.1821ZM415.811 76.5107C416.007 76.7115 416.134 76.9868 416.134 77.4307H418.134C418.134 76.5464 417.856 75.7426 417.242 75.1134L415.811 76.5107ZM416.134 77.4307V77.9507H418.134V77.4307H416.134ZM416.134 77.9507C416.134 78.3623 416.013 78.6247 415.812 78.8256L417.226 80.2398C417.846 79.6205 418.134 78.8281 418.134 77.9507H416.134ZM415.812 78.8256C415.614 79.0239 415.36 79.1406 414.966 79.1406V81.1406C415.833 81.1406 416.614 80.8521 417.226 80.2398L415.812 78.8256ZM414.966 79.1406C414.566 79.1406 414.3 79.0221 414.09 78.8172L412.693 80.2482C413.313 80.8539 414.097 81.1406 414.966 81.1406V79.1406ZM414.095 78.8214C413.901 78.6299 413.769 78.3581 413.769 77.8994H411.769C411.769 78.7982 412.052 79.6152 412.689 80.244L414.095 78.8214ZM413.769 77.8994V77.3867H411.769V77.8994H413.769ZM412.78 77.9507C412.78 78.5312 412.949 79.0899 413.345 79.5487L414.859 78.2423C414.825 78.2031 414.78 78.1318 414.78 77.9507H412.78ZM413.351 79.5561C413.778 80.0414 414.353 80.2617 414.966 80.2617V78.2617C414.899 78.2617 414.872 78.2507 414.869 78.2494C414.867 78.2485 414.866 78.2479 414.866 78.2473C414.865 78.2466 414.86 78.2434 414.853 78.2349L413.351 79.5561ZM414.966 80.2617C415.572 80.2617 416.135 80.0388 416.553 79.5624L415.05 78.2432C415.046 78.2475 415.043 78.2502 415.041 78.2518C415.04 78.2533 415.039 78.254 415.039 78.2541C415.039 78.2542 415.039 78.254 415.039 78.2537C415.04 78.2534 415.04 78.2532 415.04 78.2533C415.04 78.2533 415.039 78.2538 415.037 78.2544C415.035 78.2551 415.031 78.2561 415.026 78.2571C415.015 78.2592 414.995 78.2617 414.966 78.2617V80.2617ZM416.545 79.571C416.968 79.0999 417.124 78.5093 417.124 77.9214H415.124C415.124 78.1635 415.064 78.2273 415.057 78.2347L416.545 79.571ZM417.124 77.9214V77.3867H415.124V77.9214H417.124ZM417.124 77.3867C417.124 76.812 416.96 76.2564 416.573 75.7973L415.044 77.0865C415.077 77.1254 415.124 77.1997 415.124 77.3867H417.124ZM416.573 75.7973C416.151 75.2965 415.571 75.0684 414.952 75.0684V77.0684C414.985 77.0684 415.007 77.0712 415.019 77.0737C415.032 77.0761 415.037 77.0784 415.037 77.0784C415.038 77.0785 415.037 77.0784 415.036 77.078C415.036 77.0776 415.035 77.0772 415.035 77.0771C415.034 77.0765 415.037 77.0787 415.044 77.0865L416.573 75.7973ZM414.952 75.0684C414.332 75.0684 413.752 75.2965 413.33 75.7973L414.859 77.0865C414.866 77.0787 414.869 77.0765 414.868 77.0771C414.868 77.0772 414.868 77.0776 414.867 77.078C414.866 77.0784 414.866 77.0785 414.866 77.0784C414.866 77.0784 414.871 77.0761 414.884 77.0737C414.897 77.0712 414.919 77.0684 414.952 77.0684V75.0684ZM413.33 75.7973C412.936 76.2653 412.78 76.8357 412.78 77.416H414.78C414.78 77.1955 414.834 77.1165 414.859 77.0865L413.33 75.7973ZM412.78 77.416V77.9507H414.78V77.416H412.78ZM418.962 83.3853C418.962 82.9773 419.082 82.7151 419.281 82.5134L417.858 81.1077C417.247 81.7263 416.962 82.5139 416.962 83.3853H418.962ZM419.281 82.5135C419.484 82.3078 419.744 82.188 420.145 82.188V80.188C419.266 80.188 418.476 80.4832 417.859 81.1076L419.281 82.5135ZM420.145 82.188C420.549 82.188 420.81 82.3079 421.012 82.5103L422.426 81.0961C421.809 80.4783 421.019 80.188 420.145 80.188V82.188ZM421.012 82.5103C421.203 82.7011 421.334 82.9744 421.334 83.4365H423.334C423.334 82.5413 423.056 81.7256 422.426 81.0961L421.012 82.5103ZM421.334 83.4365V83.9565H423.334V83.4365H421.334ZM421.334 83.9565C421.334 84.3608 421.214 84.6267 421.008 84.8357L422.431 86.2415C423.044 85.6204 423.334 84.8316 423.334 83.9565H421.334ZM421.008 84.8357C420.81 85.0356 420.556 85.1538 420.159 85.1538V87.1538C421.032 87.1538 421.818 86.8618 422.431 86.2414L421.008 84.8357ZM420.159 85.1538C419.759 85.1538 419.493 85.0353 419.283 84.8304L417.886 86.2614C418.506 86.8671 419.29 87.1538 420.159 87.1538V85.1538ZM419.287 84.8346C419.094 84.6431 418.962 84.3713 418.962 83.9126H416.962C416.962 84.8114 417.245 85.6284 417.882 86.2572L419.287 84.8346ZM418.962 83.9126V83.3853H416.962V83.9126H418.962ZM417.973 83.9565C417.973 84.5384 418.14 85.1007 418.538 85.5619L420.052 84.2555C420.02 84.2186 419.973 84.1462 419.973 83.9565H417.973ZM418.544 85.5693C418.971 86.0546 419.546 86.2749 420.159 86.2749V84.2749C420.092 84.2749 420.065 84.2639 420.062 84.2626C420.06 84.2617 420.059 84.2611 420.058 84.2605C420.057 84.2598 420.053 84.2565 420.046 84.2481L418.544 85.5693ZM420.159 86.2749C420.765 86.2749 421.332 86.0553 421.753 85.5756L420.25 84.2564C420.246 84.2603 420.244 84.2627 420.243 84.264C420.242 84.2647 420.241 84.2652 420.241 84.2654C420.241 84.2657 420.24 84.2658 420.24 84.2659C420.24 84.2659 420.24 84.2658 420.241 84.2657C420.241 84.2656 420.241 84.2655 420.241 84.2654C420.242 84.2651 420.242 84.265 420.241 84.2652C420.241 84.2654 420.236 84.2676 420.224 84.2699C420.211 84.2723 420.19 84.2749 420.159 84.2749V86.2749ZM421.76 85.5681C422.166 85.0953 422.316 84.5109 422.316 83.9272H420.316C420.316 84.1737 420.257 84.2485 420.243 84.264L421.76 85.5681ZM422.316 83.9272V83.3853H420.316V83.9272H422.316ZM422.316 83.3853C422.316 82.804 422.149 82.2394 421.745 81.7798L420.243 83.1011C420.269 83.1297 420.316 83.195 420.316 83.3853H422.316ZM421.752 81.7884C421.331 81.2981 420.757 81.0742 420.145 81.0742V83.0742C420.177 83.0742 420.198 83.077 420.211 83.0794C420.223 83.0817 420.228 83.084 420.228 83.0841C420.229 83.0841 420.227 83.0836 420.227 83.0831C420.226 83.0826 420.229 83.0848 420.236 83.0925L421.752 81.7884ZM420.145 81.0742C419.532 81.0742 418.973 81.3037 418.552 81.7715L420.038 83.1094C420.049 83.0972 420.057 83.0912 420.06 83.0886C420.064 83.0861 420.066 83.085 420.068 83.0841C420.07 83.0833 420.09 83.0742 420.145 83.0742V81.0742ZM418.551 81.7723C418.13 82.2413 417.973 82.8279 417.973 83.4146H419.973C419.973 83.1809 420.03 83.118 420.039 83.1086L418.551 81.7723ZM417.973 83.4146V83.9565H419.973V83.4146H417.973ZM415.806 84.3477L415.037 83.8643L413.973 85.5576L414.742 86.041L415.806 84.3477ZM415.353 85.2408L420.56 76.9058L418.864 75.8461L413.657 84.1811L415.353 85.2408ZM419.18 77.2226L419.949 77.706L421.014 76.0127L420.245 75.5293L419.18 77.2226ZM419.633 76.3295L414.426 84.6645L416.122 85.7242L421.33 77.3892L419.633 76.3295Z" fill="#E5E5E5"/>
<path d="M479 130L447 105H482.507V130H479Z" fill="white"/>
<path d="M234.614 0.536615C236.598 0.309924 240.599 -0.109454 240.735 0.0265605V1.72675L237.505 5.80719L237.675 6.8273H238.695L242.435 2.2368V0.0265605C242.435 -0.109458 246.629 0.309926 248.726 0.53662L248.386 2.06678L244.475 5.80719V6.48726C244.759 6.60061 245.359 6.8273 245.495 6.8273C245.631 6.8273 248.499 4.22035 249.916 2.91688L250.256 0.876657L256.377 2.57684L255.867 3.93699L251.276 6.8273L251.446 7.84741L252.296 8.18744L257.227 4.9571L258.077 2.91688L263.857 5.46715L262.837 7.16733L257.907 9.20755L257.737 9.88762L258.927 10.3977L264.027 8.35746L265.218 6.48726L270.488 9.88762L269.468 11.4178L264.197 12.4379L263.687 13.288L264.367 13.9681L270.148 12.948L271.848 11.0778L276.269 15.4982C275.872 15.8949 275.011 16.6884 274.739 16.6884H269.638L268.958 17.7085L269.638 18.3885H275.419L277.459 16.6884L281.199 21.7889L279.329 22.979L274.229 22.1289L273.378 22.809L274.059 23.8291L279.839 24.6792L282.219 23.3191L284.94 28.9297L284.77 29.0997L282.729 29.7798L277.969 28.2496L277.119 28.4196L276.949 28.9297L277.289 29.7798L282.899 31.65L285.62 30.6299L287.32 36.9205L285.11 37.2606L280.009 34.7103C279.782 34.8236 279.295 35.0843 279.159 35.2203C279.023 35.3564 279.442 35.9571 279.669 36.2405L284.77 38.9608L287.49 38.4507L288 44.9114H285.62L281.539 41.511L280.689 41.681C280.633 42.0211 280.519 42.7352 280.519 42.8712C280.519 43.0412 284.94 46.6116 285.11 46.6116H288L287.49 52.9022L285.11 52.5622L281.709 48.6518H280.689C280.633 48.8785 280.485 49.3999 280.349 49.6719C280.213 49.9439 283.013 52.8456 284.43 54.2624C285.336 54.4324 287.184 54.7724 287.32 54.7724C287.49 54.7724 285.62 60.213 285.62 60.7231C285.62 61.1311 284.033 60.3264 283.239 59.873L280.519 55.4525H279.669L279.329 56.4726C280.293 58.0028 282.219 61.1651 282.219 61.5732C282.219 62.0832 284.26 62.2533 284.77 62.4233C285.178 62.5593 283.013 66.3337 281.879 68.2039L280.689 67.6938L279.669 65.9937L278.309 61.9132H277.459L276.779 62.7633L278.819 68.2039L281.199 69.7341L277.459 74.8346L276.099 73.4745L274.909 68.7139L273.888 67.3538L273.378 68.2039L274.399 74.4946L276.439 76.1947L272.018 80.4452L270.658 78.915V73.9845L269.808 72.9644L268.958 73.9845V79.5951L270.488 81.6353L265.388 85.0357L264.367 83.6756L265.048 79.5951L265.218 78.745V78.0649L264.537 77.5549L263.687 77.8949L262.667 84.0156L263.687 85.8858L258.077 88.7761L257.567 86.9059L259.267 82.3154V81.8054L258.757 81.1253H257.737L255.697 86.5659L256.377 88.9461L250.256 90.6463L250.086 88.9461L252.636 84.5256L252.296 83.5055H251.446L248.386 88.4361L248.556 90.8163L242.435 91.4964V89.7962L245.835 85.8858L245.665 84.8657L244.645 84.6957L240.735 89.2862L240.565 91.4964L234.614 90.9863L234.784 89.2862L238.695 85.8858V84.8657L237.675 84.6957L233.084 88.266L232.744 90.6463L226.793 89.1161L227.473 87.416L231.894 84.6957L232.064 83.6756L231.044 83.3355L225.943 86.3958L225.263 88.4361L219.483 86.0558L220.333 84.3556L225.263 82.3154L225.603 81.4653L224.243 80.9553L219.143 82.9955L217.782 85.2057L212.682 81.6353L213.702 80.1052L219.143 79.0851L219.483 78.235L218.803 77.2149L212.852 78.575L211.322 80.4452L206.731 76.0247L208.091 74.8346L213.702 74.4946L214.212 73.8145L213.532 72.9644L207.581 73.1344L205.711 75.0046L201.801 69.7341L203.841 68.7139L208.941 69.394L209.962 69.054L209.452 67.6938L203.671 66.8437L201.291 68.2039L198.4 62.5933L200.441 61.5732L205.371 63.4434L206.221 62.7633L206.051 61.7432L200.271 59.873L197.72 60.8931L196.02 54.6024L198.23 54.2624L202.821 56.8127L203.841 56.4726V55.4525L198.74 52.5622L195.51 52.9022L195 46.6116H197.55L201.291 49.8419L202.481 49.6719L202.651 48.6518L198.06 44.9114H195.17L195.51 38.6207L198.06 38.9608L201.631 43.2112L202.481 42.8712L202.651 41.8511L198.74 37.2606L195.85 36.5805L197.72 30.7999L199.931 31.65L202.481 36.0704L203.671 35.9004L204.011 35.0503L200.951 29.9498L198.4 29.0997L201.121 23.3191L202.991 24.5092C203.558 26.0394 204.725 29.2017 204.861 29.6097C204.997 30.0178 205.484 29.7798 205.711 29.6097L206.391 28.9297L204.351 23.149L201.971 21.9589L205.541 16.6884L207.241 18.0485C207.525 19.5787 208.125 22.741 208.261 23.149C208.431 23.6591 208.941 23.6591 209.112 23.6591C209.248 23.6591 209.622 23.0924 209.792 22.809L208.601 17.0284L206.901 15.4982L211.322 11.0778L212.682 12.6079V17.8785C212.682 18.3885 213.362 18.3885 213.532 18.3885C213.668 18.3885 214.155 18.0485 214.382 17.8785V11.9278L212.682 9.88762L217.952 6.48726C218.236 6.88397 218.803 7.71139 218.803 7.84741C218.803 8.01742 217.782 12.948 217.782 13.118C217.782 13.254 218.463 13.7414 218.803 13.9681L219.653 13.288C219.936 11.4178 220.503 7.64338 220.503 7.50737C220.503 7.37135 219.823 6.2039 219.483 5.63717L225.093 3.08689L225.603 4.61706L223.903 9.54759L224.583 10.3977L225.433 10.2277L227.473 4.61706L226.623 2.40682L232.744 0.876657L233.084 2.40682C232.234 3.82364 230.534 6.75929 230.534 7.16733C230.534 7.57538 230.874 7.90408 231.044 8.01742H231.894L234.954 2.74686L234.614 0.536615Z" fill="#787575"/>
<circle cx="241.585" cy="45.9049" r="31.6234" fill="#F7F7F7"/>
<circle cx="241.585" cy="45.9049" r="29.5832" stroke="#787575" stroke-width="5"/>
<path d="M232.744 35.7038L225.943 23.8026C226.623 23.1225 231.214 20.7422 231.554 20.7422C232.642 27.1349 239.035 28.3931 242.095 28.223C247.263 28.9031 250.596 23.5192 251.616 20.7422C252.704 21.2863 255.583 22.8958 256.886 23.6325L250.256 35.5338C250.528 37.166 251.616 37.234 252.126 37.064C255.98 34.7404 263.721 30.0932 263.857 30.0932C263.993 30.0932 266.067 33.8336 267.088 35.7038C264.821 36.3272 260.049 39.1042 259.097 45.2249C258.145 51.3455 264.027 54.9159 267.088 55.936C266.067 58.4863 264.197 61.0366 264.027 61.2066C263.857 61.3766 252.806 55.0859 251.616 54.5759C250.664 54.1678 250.312 55.3126 250.256 55.936L257.226 67.8373C255.526 69.5375 251.956 70.7276 251.446 70.8976C250.936 68.3473 247.875 63.7569 240.905 63.4168C233.934 63.0768 231.384 70.8081 231.724 70.8976C229.956 70.4896 227.36 68.9141 226.283 68.1773C228.267 64.4936 232.336 56.8881 232.744 55.936C233.152 54.9839 232.007 54.7459 231.384 54.7459L219.142 61.3766C217.646 59.4724 216.479 56.9561 216.082 55.936C218.689 55.8227 223.903 53.7938 223.903 46.585C223.903 39.3762 218.689 36.5539 216.082 36.0439C217.272 33.3236 218.972 30.6033 219.142 30.4333C219.312 30.2633 231.384 37.234 231.554 37.234C232.778 37.506 232.857 36.3272 232.744 35.7038Z" fill="#787575"/>
<circle cx="241.415" cy="45.7349" r="8.15082" fill="#787575" stroke="white"/>
<circle cx="241.415" cy="45.7349" r="4.57038" fill="#787575" stroke="white" stroke-width="2"/>
<defs>
<linearGradient id="paint0_linear_208_66" x1="0" y1="128" x2="379.713" y2="252.513" gradientUnits="userSpaceOnUse">
<stop stop-color="#302B2B"/>
<stop offset="0.65625" stop-color="#EBE3E6"/>
</linearGradient>
<linearGradient id="paint1_linear_208_66" x1="0" y1="128" x2="379.713" y2="252.513" gradientUnits="userSpaceOnUse">
<stop stop-color="#302B2B"/>
<stop offset="0.65625" stop-color="#EBE3E6"/>
</linearGradient>
</defs>
</svg>
