<svg width="93" height="92" viewBox="0 0 93 92" fill="none" xmlns="http://www.w3.org/2000/svg">
<path d="M39.6143 0.536616C41.5978 0.309925 45.5989 -0.109453 45.7349 0.0265616V1.72675L42.5046 5.80719L42.6746 6.8273H43.6947L47.4351 2.2368V0.0265616C47.4351 -0.109457 51.6289 0.309927 53.7258 0.536621L53.3857 2.06678L49.4753 5.80719V6.48726C49.7587 6.60061 50.3594 6.8273 50.4954 6.8273C50.6314 6.8273 53.4991 4.22035 54.9159 2.91688L55.2559 0.876658L61.3766 2.57684L60.8665 3.93699L56.2761 6.8273L56.4461 7.84741L57.2962 8.18744L62.2267 4.9571L63.0768 2.91688L68.8574 5.46715L67.8373 7.16733L62.9068 9.20755L62.7367 9.88762L63.9269 10.3977L69.0274 8.35746L70.2176 6.48726L75.4881 9.88762L74.468 11.4178L69.1974 12.4379L68.6874 13.288L69.3675 13.9681L75.1481 12.948L76.8483 11.0778L81.2687 15.4982C80.872 15.8949 80.0106 16.6884 79.7386 16.6884H74.638L73.958 17.7085L74.638 18.3885H80.4186L82.4589 16.6884L86.1993 21.7889L84.3291 22.979L79.2285 22.1289L78.3784 22.809L79.0585 23.8291L84.8391 24.6792L87.2194 23.3191L89.9397 28.9297L89.7697 29.0997L87.7294 29.7798L82.9689 28.2496L82.1188 28.4196L81.9488 28.9297L82.2888 29.7798L87.8995 31.65L90.6197 30.6299L92.3199 36.9205L90.1097 37.2606L85.0091 34.7103C84.7825 34.8236 84.2951 35.0843 84.159 35.2203C84.023 35.3564 84.4424 35.9571 84.6691 36.2405L89.7697 38.9608L92.4899 38.4507L93 44.9114H90.6197L86.5393 41.511L85.6892 41.681C85.6325 42.0211 85.5192 42.7352 85.5192 42.8712C85.5192 43.0412 89.9397 46.6116 90.1097 46.6116H93L92.4899 52.9022L90.1097 52.5622L86.7093 48.6518H85.6892C85.6325 48.8785 85.4852 49.3999 85.3492 49.6719C85.2132 49.9439 88.0128 52.8456 89.4296 54.2624C90.3364 54.4324 92.1839 54.7724 92.3199 54.7724C92.4899 54.7724 90.6197 60.213 90.6197 60.7231C90.6197 61.1311 89.0329 60.3264 88.2395 59.873L85.5192 55.4525H84.6691L84.3291 56.4726C85.2925 58.0028 87.2194 61.1651 87.2194 61.5732C87.2194 62.0832 89.2596 62.2533 89.7697 62.4233C90.1777 62.5593 88.0128 66.3337 86.8793 68.2039L85.6892 67.6938L84.6691 65.9937L83.309 61.9132H82.4589L81.7788 62.7633L83.819 68.2039L86.1993 69.7341L82.4589 74.8346L81.0987 73.4745L79.9086 68.7139L78.8885 67.3538L78.3784 68.2039L79.3985 74.4946L81.4388 76.1947L77.0183 80.4452L75.6581 78.915V73.9845L74.808 72.9644L73.958 73.9845V79.5951L75.4881 81.6353L70.3876 85.0357L69.3675 83.6756L70.0475 79.5951L70.2176 78.745V78.0649L69.5375 77.5549L68.6874 77.8949L67.6673 84.0156L68.6874 85.8858L63.0768 88.7761L62.5667 86.9059L64.2669 82.3154V81.8054L63.7569 81.1253H62.7367L60.6965 86.5659L61.3766 88.9461L55.2559 90.6463L55.0859 88.9461L57.6362 84.5256L57.2962 83.5055H56.4461L53.3857 88.4361L53.5558 90.8163L47.4351 91.4964V89.7962L50.8355 85.8858L50.6654 84.8657L49.6453 84.6957L45.7349 89.2862L45.5649 91.4964L39.6143 90.9863L39.7843 89.2862L43.6947 85.8858V84.8657L42.6746 84.6957L38.0841 88.266L37.7441 90.6463L31.7934 89.1161L32.4735 87.416L36.894 84.6957L37.064 83.6756L36.0439 83.3355L30.9433 86.3958L30.2633 88.4361L24.4826 86.0558L25.3327 84.3556L30.2633 82.3154L30.6033 81.4653L29.2431 80.9553L24.1426 82.9955L22.7824 85.2057L17.6819 81.6353L18.702 80.1052L24.1426 79.0851L24.4826 78.235L23.8026 77.2149L17.8519 78.575L16.3218 80.4452L11.7313 76.0247L13.0914 74.8346L18.702 74.4946L19.2121 73.8145L18.532 72.9644L12.5814 73.1344L10.7112 75.0046L6.80073 69.7341L8.84095 68.7139L13.9415 69.394L14.9616 69.054L14.4516 67.6938L8.67093 66.8437L6.29068 68.2039L3.40037 62.5933L5.44059 61.5732L10.3711 63.4434L11.2212 62.7633L11.0512 61.7432L5.27057 59.873L2.72029 60.8931L1.02011 54.6024L3.23035 54.2624L7.82084 56.8127L8.84095 56.4726V55.4525L3.7404 52.5622L0.510055 52.9022L0 46.6116H2.55027L6.29068 49.8419L7.4808 49.6719L7.65082 48.6518L3.06033 44.9114H0.170018L0.510055 38.6207L3.06033 38.9608L6.63071 43.2112L7.4808 42.8712L7.65082 41.8511L3.7404 37.2606L0.850091 36.5805L2.72029 30.7999L4.93053 31.65L7.4808 36.0704L8.67093 35.9004L9.01097 35.0503L5.95064 29.9498L3.40037 29.0997L6.12066 23.3191L7.99086 24.5092C8.55759 26.0394 9.72505 29.2017 9.86106 29.6097C9.99708 30.0178 10.4845 29.7798 10.7112 29.6097L11.3912 28.9297L9.35101 23.149L6.97075 21.9589L10.5411 16.6884L12.2413 18.0485C12.5247 19.5787 13.1254 22.741 13.2614 23.149C13.4314 23.6591 13.9415 23.6591 14.1115 23.6591C14.2475 23.6591 14.6216 23.0924 14.7916 22.809L13.6015 17.0284L11.9013 15.4982L16.3218 11.0778L17.6819 12.6079V17.8785C17.6819 18.3885 18.362 18.3885 18.532 18.3885C18.668 18.3885 19.1554 18.0485 19.3821 17.8785V11.9278L17.6819 9.88762L22.9525 6.48726C23.2358 6.88397 23.8026 7.71139 23.8026 7.84741C23.8026 8.01742 22.7824 12.948 22.7824 13.118C22.7824 13.254 23.4625 13.7414 23.8026 13.9681L24.6527 13.288C24.936 11.4178 25.5027 7.64338 25.5027 7.50737C25.5027 7.37135 24.8227 6.2039 24.4826 5.63717L30.0932 3.08689L30.6033 4.61706L28.9031 9.54759L29.5832 10.3977L30.4333 10.2277L32.4735 4.61706L31.6234 2.40682L37.7441 0.876658L38.0841 2.40682C37.234 3.82364 35.5338 6.75929 35.5338 7.16733C35.5338 7.57538 35.8739 7.90408 36.0439 8.01742H36.894L39.9543 2.74686L39.6143 0.536616Z" fill="#D7B35A"/>
<path d="M46.5848 77.5283C64.0499 77.5283 78.2082 63.37 78.2082 45.9049C78.2082 28.4398 64.0499 14.2815 46.5848 14.2815C29.1197 14.2815 14.9614 28.4398 14.9614 45.9049C14.9614 63.37 29.1197 77.5283 46.5848 77.5283Z" fill="#F7F7F7"/>
<path d="M46.5852 75.4881C62.9235 75.4881 76.1684 62.2432 76.1684 45.9049C76.1684 29.5665 62.9235 16.3217 46.5852 16.3217C30.2468 16.3217 17.002 29.5665 17.002 45.9049C17.002 62.2432 30.2468 75.4881 46.5852 75.4881Z" stroke="#D7B35A" stroke-width="5"/>
<path d="M37.7438 35.7038L30.9431 23.8026C31.6232 23.1225 36.2137 20.7422 36.5537 20.7422C37.6418 27.1349 44.0345 28.3931 47.0948 28.223C52.2634 28.9031 55.5957 23.5192 56.6159 20.7422C57.704 21.2863 60.5829 22.8958 61.8864 23.6325L55.2557 35.5338C55.5277 37.166 56.6159 37.234 57.1259 37.064C60.9797 34.7404 68.7212 30.0932 68.8572 30.0932C68.9932 30.0932 71.0674 33.8336 72.0875 35.7038C69.8206 36.3272 65.0488 39.1042 64.0967 45.2249C63.1446 51.3455 69.0272 54.9159 72.0875 55.936C71.0674 58.4863 69.1972 61.0366 69.0272 61.2066C68.8572 61.3766 57.806 55.0859 56.6159 54.5759C55.6637 54.1678 55.3124 55.3126 55.2557 55.936L62.2265 67.8373C60.5263 69.5375 56.9559 70.7276 56.4458 70.8976C55.9358 68.3473 52.8755 63.7569 45.9047 63.4168C38.934 63.0768 36.3837 70.8081 36.7237 70.8976C34.9555 70.4896 32.3599 68.9141 31.2831 68.1773C33.2667 64.4936 37.3358 56.8881 37.7438 55.936C38.1519 54.9839 37.0071 54.7459 36.3837 54.7459L24.1424 61.3766C22.6462 59.4724 21.4787 56.9561 21.082 55.936C23.689 55.8227 28.9029 53.7938 28.9029 46.585C28.9029 39.3762 23.689 36.5539 21.082 36.0439C22.2722 33.3236 23.9723 30.6033 24.1424 30.4333C24.3124 30.2633 36.3837 37.234 36.5537 37.234C37.7778 37.506 37.8572 36.3272 37.7438 35.7038Z" fill="#D7B35A"/>
<path d="M46.415 53.8857C50.9166 53.8857 54.5658 50.2365 54.5658 45.7349C54.5658 41.2334 50.9166 37.5841 46.415 37.5841C41.9134 37.5841 38.2642 41.2334 38.2642 45.7349C38.2642 50.2365 41.9134 53.8857 46.415 53.8857Z" fill="#D7B35A" stroke="white"/>
<path d="M46.4151 50.3053C48.9393 50.3053 50.9855 48.2591 50.9855 45.7349C50.9855 43.2108 48.9393 41.1646 46.4151 41.1646C43.891 41.1646 41.8447 43.2108 41.8447 45.7349C41.8447 48.2591 43.891 50.3053 46.4151 50.3053Z" fill="#D7B35A" stroke="white" stroke-width="2"/>
</svg>
