<svg width="93" height="85" viewBox="0 0 93 85" fill="none" xmlns="http://www.w3.org/2000/svg">
<path d="M4.6965 0L0 4.242L8.27342 17.1651L13.6388 16.4543L46.3891 46.0385L43.5955 48.4615C42.1648 49.7538 42.1648 51.7117 43.5955 53.004L45.0478 54.3189C46.4785 55.6112 48.6676 55.6112 49.7407 54.3189L53.9901 58.1538C53.6324 60.0923 53.9901 62.3958 55.7785 64.0112L75.1154 81.3766C79.05 84.9305 85.4885 84.9305 89.4231 81.3766C94.0731 77.4997 94.0302 71.7037 90.0955 68.1498L70.8696 50.6811C69.0811 49.0657 66.5308 48.4195 64.3846 49.0657L59.6881 45.2308C60.7612 43.9385 60.7612 41.9612 59.6881 40.9888L58.3468 39.7805C58.0216 39.4742 57.6312 39.2305 57.1991 39.064C56.7669 38.8975 56.302 38.8117 55.8322 38.8117C55.3624 38.8117 54.8974 38.8975 54.4653 39.064C54.0332 39.2305 53.6428 39.4742 53.3176 39.7805L50.9712 41.8998L18.2208 12.3189L19.0006 7.47277L4.69292 0H4.6965ZM74.4465 0.100154C67.3892 -0.429692 58.032 3.79615 53.6538 7.46954C48.267 12.3351 49.1469 18.6965 53.4285 24.8382L45.8311 31.7035L51.1965 37.1538C54.058 34.8923 58.2788 34.8923 61.1404 37.1538L62.5962 38.4655L62.9324 38.7692L66.0622 35.9423C72.5293 39.3766 79.261 39.8709 84.3939 35.2348C89.4016 31.0348 94.8314 20.6769 92.3275 14.5385L82.2692 23.9271C80.8385 25.2194 78.6708 25.2194 77.2401 23.9271L66.842 14.5385C66.5029 14.2448 66.2331 13.8922 66.0487 13.5018C65.8644 13.1115 65.7694 12.6916 65.7694 12.2672C65.7694 11.8429 65.8644 11.4229 66.0487 11.0326C66.2331 10.6423 66.5029 10.2897 66.842 9.996L77.2437 0.607385C76.3494 0.323077 75.4552 0.177692 74.4465 0.100154ZM35.1003 40.3846L22.1304 52.0962C20.7367 51.8165 19.3123 51.681 17.8846 51.6923C7.86923 51.6923 0 58.8 0 67.8462C0 76.8923 7.86923 84 17.8846 84C27.9 84 35.7692 76.8923 35.7692 67.8462C35.7692 66.1888 35.4795 64.596 34.9859 63.1002L42.5868 56.2348L41.4708 54.9231C38.6093 52.3385 38.6308 48.4228 41.1346 45.8349L35.0968 40.3846H35.1003ZM62.8215 55.1266C63.2686 55.1266 63.6907 55.2042 64.0484 55.5305L85.1773 74.6114C85.8927 75.2575 85.8927 76.2849 85.1773 76.9311C84.4619 77.5772 83.3173 77.5772 82.6019 76.9311L61.4802 57.8502C60.7648 57.204 60.7648 56.1766 61.4802 55.5305C61.8378 55.2074 62.3744 55.1266 62.8215 55.1266ZM20.3455 59.4623L27.1632 65.6234L24.7022 74.0008L15.4273 76.2235L8.60608 70.0625L11.067 61.6851L20.3455 59.4623Z" fill="#D7B35A"/>
</svg>
