<svg width="65" height="65" viewBox="0 0 65 65" fill="none" xmlns="http://www.w3.org/2000/svg">
<path d="M32.5 10.7645C33.0387 10.7645 33.5554 11.0491 33.9363 11.5556C34.3173 12.0621 34.5313 12.7491 34.5313 13.4654V21.5679C34.5313 22.2842 34.3173 22.9711 33.9363 23.4776C33.5554 23.9841 33.0387 24.2687 32.5 24.2687C31.9613 24.2687 31.4447 23.9841 31.0637 23.4776C30.6828 22.9711 30.4688 22.2842 30.4688 21.5679V13.4654C30.4688 12.7491 30.6828 12.0621 31.0637 11.5556C31.4447 11.0491 31.9613 10.7645 32.5 10.7645V10.7645ZM15.1613 20.1202C15.5422 19.6139 16.0588 19.3294 16.5974 19.3294C17.136 19.3294 17.6526 19.6139 18.0335 20.1202L21.7507 25.0573C21.9395 25.3084 22.0893 25.6066 22.1915 25.9346C22.2937 26.2627 22.3463 26.6144 22.3463 26.9695C22.3463 27.3246 22.2937 27.6763 22.1915 28.0044C22.0893 28.3325 21.9395 28.6306 21.7507 28.8817C21.5618 29.1328 21.3376 29.332 21.0908 29.4679C20.8441 29.6038 20.5796 29.6738 20.3125 29.6738C20.0454 29.6738 19.781 29.6038 19.5342 29.4679C19.2875 29.332 19.0633 29.1328 18.8744 28.8817L15.1613 23.9392C14.7805 23.4327 14.5666 22.7459 14.5666 22.0297C14.5666 21.3135 14.7805 20.6267 15.1613 20.1202V20.1202ZM8.12503 43.1745C8.12503 42.4582 8.33904 41.7712 8.71997 41.2647C9.1009 40.7582 9.61756 40.4737 10.1563 40.4737H16.5994C17.1381 40.4737 17.6548 40.7582 18.0357 41.2647C18.4166 41.7712 18.6307 42.4582 18.6307 43.1745C18.6307 43.8908 18.4166 44.5778 18.0357 45.0843C17.6548 45.5908 17.1381 45.8753 16.5994 45.8753H10.1563C9.61756 45.8753 9.1009 45.5908 8.71997 45.0843C8.33904 44.5778 8.12503 43.8908 8.12503 43.1745ZM46.7188 43.1745C46.7188 42.4582 46.9328 41.7712 47.3137 41.2647C47.6946 40.7582 48.2113 40.4737 48.75 40.4737H54.8438C55.3825 40.4737 55.8992 40.7582 56.2801 41.2647C56.661 41.7712 56.875 42.4582 56.875 43.1745C56.875 43.8908 56.661 44.5778 56.2801 45.0843C55.8992 45.5908 55.3825 45.8753 54.8438 45.8753H48.75C48.2113 45.8753 47.6946 45.5908 47.3137 45.0843C46.9328 44.5778 46.7188 43.8908 46.7188 43.1745ZM49.7819 20.239C49.5005 19.8668 49.124 19.649 48.7273 19.629C48.3306 19.609 47.9428 19.7882 47.641 20.131L30.6597 39.4474C30.2641 39.8906 29.9428 40.4393 29.7167 41.0581C29.4905 41.6768 29.3646 42.3517 29.347 43.0392C29.3294 43.7267 29.4205 44.4115 29.6145 45.0492C29.8084 45.687 30.1009 46.2635 30.473 46.7415C30.845 47.2195 31.2884 47.5883 31.7744 47.8241C32.2604 48.0599 32.7783 48.1575 33.2944 48.1105C33.8106 48.0635 34.3136 47.8729 34.7708 47.5512C35.2281 47.2294 35.6295 46.7836 35.9491 46.2427L49.8997 23.0317C50.1424 22.6277 50.2646 22.119 50.2429 21.6027C50.2211 21.0865 50.057 20.5991 49.7819 20.2336V20.239Z" fill="#787575"/>
<path fill-rule="evenodd" clip-rule="evenodd" d="M2.15631e-05 43.1745C0.00426838 36.8859 1.04072 30.6743 3.03703 24.9733C5.03334 19.2724 7.94139 14.2194 11.5582 10.1673C15.175 6.11512 19.4133 3.16139 23.9774 1.51229C28.5414 -0.136801 33.3211 -0.441525 37.9829 0.619397C42.6447 1.68032 47.0761 4.08132 50.9679 7.65478C54.8597 11.2282 58.118 15.8881 60.5153 21.3089C62.9127 26.7298 64.3914 32.781 64.8481 39.0402C65.3048 45.2995 64.7286 51.6158 63.1597 57.5483C61.3641 64.3166 55.6644 66.2018 51.2484 64.3004C45.9428 62.0155 38.4922 59.3795 32.5 59.3795C26.5119 59.3795 19.0531 62.0155 13.7516 64.3004C9.33564 66.2018 3.63596 64.3166 1.84033 57.5483C0.618098 52.9305 -0.00422265 48.0699 2.15631e-05 43.1745V43.1745ZM32.5 5.36286C27.9515 5.3613 23.4691 6.81047 19.429 9.58876C15.3888 12.367 11.9088 16.3934 9.28107 21.3298C6.6533 26.2663 4.95442 31.9688 4.32702 37.9589C3.69961 43.9489 4.16199 50.0517 5.67533 55.755C6.50002 58.8609 9.42502 60.4868 12.5003 59.158C17.8628 56.8569 25.8294 53.9778 32.5 53.9778C39.1706 53.9778 47.1413 56.8515 52.4997 59.1634C55.575 60.4868 58.5 58.8609 59.3247 55.755C60.838 50.0517 61.3004 43.9489 60.673 37.9589C60.0456 31.9688 58.3467 26.2663 55.719 21.3298C53.0912 16.3934 49.6112 12.367 45.5711 9.58876C41.5309 6.81047 37.0485 5.3613 32.5 5.36286V5.36286Z" fill="#787575"/>
</svg>
