<svg width="127" height="120" viewBox="0 0 127 120" fill="none" xmlns="http://www.w3.org/2000/svg">
<path fill-rule="evenodd" clip-rule="evenodd" d="M82.4664 47.9181C82.7575 48.2084 82.9884 48.5532 83.1459 48.9329C83.3034 49.3125 83.3845 49.7195 83.3845 50.1306C83.3845 50.5416 83.3034 50.9486 83.1459 51.3283C82.9884 51.708 82.7575 52.0528 82.4664 52.3431L63.7164 71.0931C63.4262 71.3841 63.0813 71.615 62.7017 71.7725C62.322 71.9301 61.915 72.0112 61.5039 72.0112C61.0929 72.0112 60.6859 71.9301 60.3062 71.7725C59.9266 71.615 59.5817 71.3841 59.2914 71.0931L49.9164 61.7181C49.6259 61.4275 49.3954 61.0826 49.2382 60.703C49.0809 60.3234 49 59.9165 49 59.5056C49 59.0947 49.0809 58.6878 49.2382 58.3082C49.3954 57.9286 49.6259 57.5836 49.9164 57.2931C50.207 57.0025 50.5519 56.7721 50.9316 56.6148C51.3112 56.4576 51.718 56.3766 52.1289 56.3766C52.5398 56.3766 52.9467 56.4576 53.3263 56.6148C53.706 56.7721 54.0509 57.0025 54.3414 57.2931L61.5039 64.4618L78.0414 47.9181C78.3317 47.6271 78.6766 47.3962 79.0562 47.2386C79.4359 47.0811 79.8429 47 80.2539 47C80.665 47 81.072 47.0811 81.4517 47.2386C81.8313 47.3962 82.1762 47.6271 82.4664 47.9181V47.9181Z" fill="#787575"/>
<path d="M23.3929 0H109.107C113.654 0 118.014 1.58035 121.229 4.3934C124.444 7.20644 126.25 11.0218 126.25 15V105C126.25 108.978 124.444 112.794 121.229 115.607C118.014 118.42 113.654 120 109.107 120H23.3929C18.8463 120 14.4859 118.42 11.271 115.607C8.05612 112.794 6.25 108.978 6.25 105V97.5H14.8214V105C14.8214 106.989 15.7245 108.897 17.3319 110.303C18.9394 111.71 21.1196 112.5 23.3929 112.5H109.107C111.38 112.5 113.561 111.71 115.168 110.303C116.776 108.897 117.679 106.989 117.679 105V15C117.679 13.0109 116.776 11.1032 115.168 9.6967C113.561 8.29018 111.38 7.5 109.107 7.5H23.3929C21.1196 7.5 18.9394 8.29018 17.3319 9.6967C15.7245 11.1032 14.8214 13.0109 14.8214 15V22.5H6.25V15C6.25 11.0218 8.05612 7.20644 11.271 4.3934C14.4859 1.58035 18.8463 0 23.3929 0V0Z" fill="#787575"/>
<path d="M6.25 31.25V28.125C6.25 27.2962 6.57924 26.5013 7.16529 25.9153C7.75134 25.3292 8.5462 25 9.375 25C10.2038 25 10.9987 25.3292 11.5847 25.9153C12.1708 26.5013 12.5 27.2962 12.5 28.125V31.25H15.625C16.4538 31.25 17.2487 31.5792 17.8347 32.1653C18.4208 32.7513 18.75 33.5462 18.75 34.375C18.75 35.2038 18.4208 35.9987 17.8347 36.5847C17.2487 37.1708 16.4538 37.5 15.625 37.5H3.125C2.2962 37.5 1.50134 37.1708 0.915291 36.5847C0.32924 35.9987 0 35.2038 0 34.375C0 33.5462 0.32924 32.7513 0.915291 32.1653C1.50134 31.5792 2.2962 31.25 3.125 31.25H6.25ZM6.25 50V46.875C6.25 46.0462 6.57924 45.2513 7.16529 44.6653C7.75134 44.0792 8.5462 43.75 9.375 43.75C10.2038 43.75 10.9987 44.0792 11.5847 44.6653C12.1708 45.2513 12.5 46.0462 12.5 46.875V50H15.625C16.4538 50 17.2487 50.3292 17.8347 50.9153C18.4208 51.5013 18.75 52.2962 18.75 53.125C18.75 53.9538 18.4208 54.7487 17.8347 55.3347C17.2487 55.9208 16.4538 56.25 15.625 56.25H3.125C2.2962 56.25 1.50134 55.9208 0.915291 55.3347C0.32924 54.7487 0 53.9538 0 53.125C0 52.2962 0.32924 51.5013 0.915291 50.9153C1.50134 50.3292 2.2962 50 3.125 50H6.25ZM6.25 68.75V65.625C6.25 64.7962 6.57924 64.0013 7.16529 63.4153C7.75134 62.8292 8.5462 62.5 9.375 62.5C10.2038 62.5 10.9987 62.8292 11.5847 63.4153C12.1708 64.0013 12.5 64.7962 12.5 65.625V68.75H15.625C16.4538 68.75 17.2487 69.0792 17.8347 69.6653C18.4208 70.2513 18.75 71.0462 18.75 71.875C18.75 72.7038 18.4208 73.4987 17.8347 74.0847C17.2487 74.6708 16.4538 75 15.625 75H3.125C2.2962 75 1.50134 74.6708 0.915291 74.0847C0.32924 73.4987 0 72.7038 0 71.875C0 71.0462 0.32924 70.2513 0.915291 69.6653C1.50134 69.0792 2.2962 68.75 3.125 68.75H6.25Z" fill="#787575"/>
</svg>
