<svg width="65" height="65" viewBox="0 0 65 65" fill="none" xmlns="http://www.w3.org/2000/svg">
<g clip-path="url(#clip0_123_856)">
<path d="M53.625 42.6562C48.6891 42.6562 44.6875 47.6582 44.6875 53.8281C44.6875 59.998 48.6891 65 53.625 65C58.5609 65 62.5625 59.998 62.5625 53.8281C62.5625 47.6582 58.5609 42.6562 53.625 42.6562ZM53.625 56.875C52.2813 56.875 51.1875 55.5077 51.1875 53.8281C51.1875 52.1485 52.2813 50.7812 53.625 50.7812C54.9687 50.7812 56.0625 52.1485 56.0625 53.8281C56.0625 55.5077 54.9687 56.875 53.625 56.875ZM61.75 20.3125H55.25V15.209C55.25 13.4164 55.7274 11.6847 56.5856 10.2781C57.0345 9.54177 56.9461 8.49314 56.4515 7.80378L54.2547 4.73532C53.5783 3.78952 52.3941 3.85681 51.7461 4.83435C49.8245 7.73142 48.75 11.4016 48.75 15.209V20.3125H38.3571L32.6605 3.69939C32.2863 2.60103 31.6618 1.66459 30.8648 1.00676C30.0678 0.348935 29.1336 -0.00120474 28.1785 -2.7559e-05H14.625C11.9366 -2.7559e-05 9.75 2.73327 9.75 6.09372V24.6949C8.87352 23.8405 7.62125 23.8748 6.81586 24.8815L3.65625 28.831C2.78383 29.9216 2.78383 31.69 3.65625 32.7805L4.17016 33.4229C3.66336 34.5985 3.26016 35.8122 2.96055 37.069H2.23438C1.00039 37.069 0 38.3195 0 39.862V45.4479C0 46.9904 1.00039 48.2409 2.23438 48.2409H2.95953C3.26016 49.499 3.66234 50.7114 4.16914 51.8883L3.65524 52.5306C2.78281 53.6212 2.78281 55.3896 3.65524 56.4802L6.81484 60.4297C7.68727 61.5202 9.10203 61.5202 9.97445 60.4297L10.4884 59.7873C11.4288 60.4208 12.3998 60.9248 13.4052 61.2993V62.207C13.4052 63.7495 14.4056 65 15.6396 65H20.1084C21.3423 65 22.3427 63.7495 22.3427 62.207V61.3006C23.3482 60.9261 24.3191 60.4221 25.2596 59.7886L25.7735 60.4309C26.6459 61.5215 28.0607 61.5215 28.9331 60.4309L32.0927 56.4814C32.9652 55.3909 32.9652 53.6224 32.0927 52.5319L31.5788 51.8895C32.0856 50.7139 32.4888 49.5003 32.7884 48.2434H33.5156C34.7496 48.2434 35.75 46.993 35.75 45.4505V44.6888H43.9299C46.1551 41.0084 49.6499 38.595 53.625 38.595C55.5181 38.595 57.2884 39.1803 58.8859 40.1438L64.0474 33.6921C64.6567 32.9304 64.999 31.8969 64.999 30.8191V24.375C65 22.1317 63.5446 20.3125 61.75 20.3125ZM17.875 52.8125C13.388 52.8125 9.75 48.265 9.75 42.6562C9.75 37.0474 13.388 32.5 17.875 32.5C22.362 32.5 26 37.0474 26 42.6562C26 48.265 22.362 52.8125 17.875 52.8125ZM20.1094 20.3125H16.25V8.12497H27.106L31.2853 20.3125H20.1094Z" fill="#787575"/>
</g>
<defs>
<clipPath id="clip0_123_856">
<rect width="65" height="65" fill="white"/>
</clipPath>
</defs>
</svg>
