<svg width="66" height="53" viewBox="0 0 66 53" fill="none" xmlns="http://www.w3.org/2000/svg">
<path d="M24.582 38.9703C24.9224 39.3221 25.1924 39.7396 25.3766 40.199C25.5607 40.6585 25.6554 41.1509 25.6552 41.6481C25.6551 42.1454 25.56 42.6377 25.3756 43.097C25.1911 43.5564 24.9208 43.9737 24.5802 44.3252C24.2395 44.6766 23.8351 44.9554 23.3901 45.1455C22.9451 45.3356 22.4682 45.4334 21.9866 45.4332C21.505 45.4331 21.0281 45.3349 20.5832 45.1445C20.1384 44.954 19.7342 44.675 19.3937 44.3233L1.07171 25.3798C0.385452 24.6701 1.52588e-05 23.7082 1.52588e-05 22.7053C1.52588e-05 21.7024 0.385452 20.7405 1.07171 20.0307L19.3974 1.10997C20.0849 0.399623 21.0176 0.000355211 21.9902 2.36898e-07C22.9629 -0.000354738 23.8958 0.398231 24.5838 1.10807C25.2718 1.81791 25.6586 2.78087 25.6589 3.78509C25.6592 4.78931 25.2732 5.75254 24.5857 6.46289L12.5042 18.9291H36.6671C44.2879 18.9292 51.6095 21.9914 57.0817 27.4675C62.5539 32.9436 65.7472 40.4036 65.9853 48.2679L66 49.2143C66 50.2184 65.6137 51.1813 64.9261 51.8912C64.2385 52.6012 63.3058 53 62.3334 53C61.3609 53 60.4283 52.6012 59.7407 51.8912C59.0531 51.1813 58.6668 50.2184 58.6668 49.2143C58.667 43.3376 56.4611 37.6894 52.5125 33.4566C48.5639 29.2239 43.1801 26.7359 37.4921 26.5155L36.6671 26.5004H12.5189L24.582 38.9703Z" fill="#787575"/>
</svg>
