<svg width="30" height="24" viewBox="0 0 30 24" fill="none" xmlns="http://www.w3.org/2000/svg">
<g clip-path="url(#clip0_50:2693)">
<path d="M27.1875 2.75964C27.4361 2.75964 27.6746 2.85842 27.8504 3.03423C28.0262 3.21005 28.125 3.4485 28.125 3.69714V20.5721C28.125 20.8208 28.0262 21.0592 27.8504 21.2351C27.6746 21.4109 27.4361 21.5096 27.1875 21.5096H2.8125C2.56386 21.5096 2.3254 21.4109 2.14959 21.2351C1.97377 21.0592 1.875 20.8208 1.875 20.5721V3.69714C1.875 3.4485 1.97377 3.21005 2.14959 3.03423C2.3254 2.85842 2.56386 2.75964 2.8125 2.75964H27.1875ZM2.8125 0.884644C2.06658 0.884644 1.35121 1.18096 0.823762 1.70841C0.296316 2.23585 0 2.95122 0 3.69714L0 20.5721C0 21.3181 0.296316 22.0334 0.823762 22.5609C1.35121 23.0883 2.06658 23.3846 2.8125 23.3846H27.1875C27.9334 23.3846 28.6488 23.0883 29.1762 22.5609C29.7037 22.0334 30 21.3181 30 20.5721V3.69714C30 2.95122 29.7037 2.23585 29.1762 1.70841C28.6488 1.18096 27.9334 0.884644 27.1875 0.884644H2.8125Z" fill="#40803C"/>
<path d="M13.4537 7.78122C13.4537 7.53258 13.5525 7.29412 13.7283 7.1183C13.9041 6.94249 14.1426 6.84372 14.3912 6.84372H23.7662C24.0148 6.84372 24.2533 6.94249 24.4291 7.1183C24.6049 7.29412 24.7037 7.53258 24.7037 7.78122C24.7037 8.02986 24.6049 8.26831 24.4291 8.44413C24.2533 8.61994 24.0148 8.71872 23.7662 8.71872H14.3912C14.1426 8.71872 13.9041 8.61994 13.7283 8.44413C13.5525 8.26831 13.4537 8.02986 13.4537 7.78122ZM10.6487 6.17997C10.736 6.26705 10.8053 6.37051 10.8525 6.4844C10.8998 6.5983 10.9241 6.7204 10.9241 6.84372C10.9241 6.96703 10.8998 7.08913 10.8525 7.20303C10.8053 7.31693 10.736 7.42038 10.6487 7.50747L7.8362 10.32C7.74911 10.4073 7.64566 10.4765 7.53176 10.5238C7.41786 10.5711 7.29576 10.5954 7.17245 10.5954C7.04914 10.5954 6.92703 10.5711 6.81314 10.5238C6.69924 10.4765 6.59578 10.4073 6.5087 10.32L5.5712 9.38247C5.48403 9.2953 5.41489 9.19182 5.36772 9.07794C5.32054 8.96405 5.29626 8.84199 5.29626 8.71872C5.29626 8.46976 5.39516 8.231 5.5712 8.05497C5.74724 7.87893 5.98599 7.78003 6.23495 7.78003C6.4839 7.78003 6.72266 7.87893 6.8987 8.05497L7.17245 8.33059L9.3212 6.17997C9.40828 6.09266 9.51174 6.02339 9.62564 5.97613C9.73953 5.92887 9.86164 5.90454 9.98495 5.90454C10.1083 5.90454 10.2304 5.92887 10.3443 5.97613C10.4582 6.02339 10.5616 6.09266 10.6487 6.17997ZM13.4537 15.2812C13.4537 15.0326 13.5525 14.7941 13.7283 14.6183C13.9041 14.4425 14.1426 14.3437 14.3912 14.3437H23.7662C24.0148 14.3437 24.2533 14.4425 24.4291 14.6183C24.6049 14.7941 24.7037 15.0326 24.7037 15.2812C24.7037 15.5299 24.6049 15.7683 24.4291 15.9441C24.2533 16.1199 24.0148 16.2187 23.7662 16.2187H14.3912C14.1426 16.2187 13.9041 16.1199 13.7283 15.9441C13.5525 15.7683 13.4537 15.5299 13.4537 15.2812ZM10.6487 13.68C10.736 13.7671 10.8053 13.8705 10.8525 13.9844C10.8998 14.0983 10.9241 14.2204 10.9241 14.3437C10.9241 14.467 10.8998 14.5891 10.8525 14.703C10.8053 14.8169 10.736 14.9204 10.6487 15.0075L7.8362 17.82C7.74911 17.9073 7.64566 17.9765 7.53176 18.0238C7.41786 18.0711 7.29576 18.0954 7.17245 18.0954C7.04914 18.0954 6.92703 18.0711 6.81314 18.0238C6.69924 17.9765 6.59578 17.9073 6.5087 17.82L5.5712 16.8825C5.48403 16.7953 5.41489 16.6918 5.36772 16.5779C5.32054 16.464 5.29626 16.342 5.29626 16.2187C5.29626 16.0954 5.32054 15.9734 5.36772 15.8595C5.41489 15.7456 5.48403 15.6421 5.5712 15.555C5.65836 15.4678 5.76184 15.3987 5.87573 15.3515C5.98962 15.3043 6.11168 15.28 6.23495 15.28C6.35822 15.28 6.48028 15.3043 6.59417 15.3515C6.70805 15.3987 6.81153 15.4678 6.8987 15.555L7.17245 15.8306L9.3212 13.68C9.40828 13.5927 9.51174 13.5234 9.62564 13.4761C9.73953 13.4289 9.86164 13.4045 9.98495 13.4045C10.1083 13.4045 10.2304 13.4289 10.3443 13.4761C10.4582 13.5234 10.5616 13.5927 10.6487 13.68Z" fill="#40803C"/>
</g>
<defs>
<clipPath id="clip0_50:2693">
<rect width="30" height="22.8" fill="white" transform="translate(0 0.599976)"/>
</clipPath>
</defs>
</svg>
