<svg width="18" height="17" viewBox="0 0 18 17" fill="none" xmlns="http://www.w3.org/2000/svg">
<path d="M1.875 16.25C1.37772 16.25 0.900806 16.0525 0.549175 15.7008C0.197544 15.3492 0 14.8723 0 14.375V1.875C0 1.37772 0.197544 0.900806 0.549175 0.549175C0.900806 0.197544 1.37772 0 1.875 0H11.875C12.0408 0 12.1997 0.065848 12.3169 0.183058C12.4342 0.300268 12.5 0.45924 12.5 0.625C12.5 0.79076 12.4342 0.949731 12.3169 1.06694C12.1997 1.18415 12.0408 1.25 11.875 1.25H1.875C1.70924 1.25 1.55027 1.31585 1.43306 1.43306C1.31585 1.55027 1.25 1.70924 1.25 1.875V14.375C1.25 14.5408 1.31585 14.6997 1.43306 14.8169C1.55027 14.9342 1.70924 15 1.875 15H14.375C14.5408 15 14.6997 14.9342 14.8169 14.8169C14.9342 14.6997 15 14.5408 15 14.375V8.125C15 7.95924 15.0658 7.80027 15.1831 7.68306C15.3003 7.56585 15.4592 7.5 15.625 7.5C15.7908 7.5 15.9497 7.56585 16.0669 7.68306C16.1842 7.80027 16.25 7.95924 16.25 8.125V14.375C16.25 14.8723 16.0525 15.3492 15.7008 15.7008C15.3492 16.0525 14.8723 16.25 14.375 16.25H1.875Z" fill="white"/>
<path d="M8.5675 11.0673L17.3175 2.31731C17.3756 2.2592 17.4217 2.19022 17.4532 2.11429C17.4846 2.03837 17.5008 1.95699 17.5008 1.87481C17.5008 1.79263 17.4846 1.71126 17.4532 1.63533C17.4217 1.55941 17.3756 1.49042 17.3175 1.43231C17.2594 1.3742 17.1904 1.32811 17.1145 1.29666C17.0386 1.26521 16.9572 1.24902 16.875 1.24902C16.7928 1.24902 16.7114 1.26521 16.6355 1.29666C16.5596 1.32811 16.4906 1.3742 16.4325 1.43231L8.125 9.74106L4.8175 6.43231C4.75939 6.3742 4.6904 6.32811 4.61448 6.29666C4.53855 6.26521 4.45718 6.24902 4.375 6.24902C4.29282 6.24902 4.21144 6.26521 4.13552 6.29666C4.05959 6.32811 3.99061 6.3742 3.9325 6.43231C3.87439 6.49042 3.82829 6.55941 3.79684 6.63533C3.76539 6.71126 3.74921 6.79263 3.74921 6.87481C3.74921 6.95699 3.76539 7.03837 3.79684 7.11429C3.82829 7.19022 3.87439 7.2592 3.9325 7.31731L7.6825 11.0673C7.74055 11.1255 7.80952 11.1717 7.88545 11.2032C7.96139 11.2347 8.04279 11.2509 8.125 11.2509C8.20721 11.2509 8.28861 11.2347 8.36454 11.2032C8.44047 11.1717 8.50944 11.1255 8.5675 11.0673Z" fill="white"/>
</svg>
