<svg width="30" height="29" viewBox="0 0 30 29" fill="none" xmlns="http://www.w3.org/2000/svg">
<path fill-rule="evenodd" clip-rule="evenodd" d="M3.08628 16.954C3.17336 17.0384 3.27682 17.1053 3.39072 17.151C3.50461 17.1967 3.62671 17.2202 3.75003 17.2202C3.87334 17.2202 3.99544 17.1967 4.10934 17.151C4.22324 17.1053 4.32669 17.0384 4.41378 16.954L15 6.71878L25.5863 16.954C25.7623 17.1241 26.0011 17.2197 26.25 17.2197C26.499 17.2197 26.7377 17.1241 26.9138 16.954C27.0898 16.7838 27.1887 16.553 27.1887 16.3123C27.1887 16.0717 27.0898 15.8409 26.9138 15.6707L15.6638 4.79572C15.5767 4.71133 15.4732 4.64437 15.3593 4.59868C15.2454 4.55299 15.1233 4.52948 15 4.52948C14.8767 4.52948 14.7546 4.55299 14.6407 4.59868C14.5268 4.64437 14.4234 4.71133 14.3363 4.79572L3.08628 15.6707C2.99897 15.7549 2.9297 15.8549 2.88244 15.965C2.83518 16.0751 2.81085 16.1931 2.81085 16.3123C2.81085 16.4315 2.83518 16.5496 2.88244 16.6597C2.9297 16.7698 2.99897 16.8698 3.08628 16.954Z" fill="white"/>
<path fill-rule="evenodd" clip-rule="evenodd" d="M3.08628 24.204C3.17336 24.2884 3.27682 24.3553 3.39072 24.401C3.50461 24.4467 3.62671 24.4702 3.75003 24.4702C3.87334 24.4702 3.99544 24.4467 4.10934 24.401C4.22324 24.3553 4.32669 24.2884 4.41378 24.204L15 13.9688L25.5863 24.204C25.6734 24.2882 25.7769 24.3551 25.8908 24.4007C26.0047 24.4463 26.1268 24.4697 26.25 24.4697C26.3733 24.4697 26.4954 24.4463 26.6092 24.4007C26.7231 24.3551 26.8266 24.2882 26.9138 24.204C27.0009 24.1197 27.0701 24.0197 27.1173 23.9096C27.1644 23.7995 27.1887 23.6815 27.1887 23.5623C27.1887 23.4432 27.1644 23.3252 27.1173 23.2151C27.0701 23.105 27.0009 23.005 26.9138 22.9207L15.6638 12.0457C15.5767 11.9613 15.4732 11.8944 15.3593 11.8487C15.2454 11.803 15.1233 11.7795 15 11.7795C14.8767 11.7795 14.7546 11.803 14.6407 11.8487C14.5268 11.8944 14.4234 11.9613 14.3363 12.0457L3.08628 22.9207C2.99897 23.0049 2.9297 23.1049 2.88244 23.215C2.83518 23.3251 2.81085 23.4431 2.81085 23.5623C2.81085 23.6815 2.83518 23.7996 2.88244 23.9097C2.9297 24.0198 2.99897 24.1198 3.08628 24.204Z" fill="white"/>
</svg>
