<svg width="31" height="31" viewBox="0 0 31 31" fill="none" xmlns="http://www.w3.org/2000/svg">
<path fill-rule="evenodd" clip-rule="evenodd" d="M3.99289 13.2423C4.07998 13.155 4.18343 13.0857 4.29733 13.0384C4.41123 12.9912 4.53333 12.9669 4.65664 12.9669C4.77996 12.9669 4.90206 12.9912 5.01596 13.0384C5.12985 13.0857 5.23331 13.155 5.32039 13.2423L15.9066 23.8304L26.4929 13.2423C26.6689 13.0662 26.9077 12.9673 27.1566 12.9673C27.4056 12.9673 27.6444 13.0662 27.8204 13.2423C27.9964 13.4183 28.0953 13.6571 28.0953 13.906C28.0953 14.155 27.9964 14.3937 27.8204 14.5698L16.5704 25.8198C16.4833 25.9071 16.3799 25.9764 16.266 26.0236C16.1521 26.0709 16.03 26.0952 15.9066 26.0952C15.7833 26.0952 15.6612 26.0709 15.5473 26.0236C15.4334 25.9764 15.33 25.9071 15.2429 25.8198L3.99289 14.5698C3.90559 14.4827 3.83632 14.3792 3.78906 14.2653C3.7418 14.1514 3.71747 14.0293 3.71747 13.906C3.71747 13.7827 3.7418 13.6606 3.78906 13.5467C3.83632 13.4328 3.90559 13.3294 3.99289 13.2423V13.2423Z" fill="white"/>
<path fill-rule="evenodd" clip-rule="evenodd" d="M3.99289 5.74228C4.07998 5.65498 4.18343 5.58571 4.29733 5.53845C4.41123 5.49119 4.53333 5.46686 4.65664 5.46686C4.77996 5.46686 4.90206 5.49119 5.01596 5.53845C5.12985 5.58571 5.23331 5.65498 5.32039 5.74228L15.9066 16.3304L26.4929 5.74228C26.5801 5.65512 26.6835 5.58598 26.7974 5.5388C26.9113 5.49163 27.0334 5.46735 27.1566 5.46735C27.2799 5.46735 27.402 5.49163 27.5159 5.5388C27.6297 5.58598 27.7332 5.65512 27.8204 5.74228C27.9076 5.82945 27.9767 5.93293 28.0239 6.04681C28.071 6.1607 28.0953 6.28276 28.0953 6.40603C28.0953 6.5293 28.071 6.65137 28.0239 6.76525C27.9767 6.87914 27.9076 6.98262 27.8204 7.06978L16.5704 18.3198C16.4833 18.4071 16.3799 18.4764 16.266 18.5236C16.1521 18.5709 16.03 18.5952 15.9066 18.5952C15.7833 18.5952 15.6612 18.5709 15.5473 18.5236C15.4334 18.4764 15.33 18.4071 15.2429 18.3198L3.99289 7.06978C3.90559 6.9827 3.83632 6.87924 3.78906 6.76535C3.7418 6.65145 3.71747 6.52935 3.71747 6.40603C3.71747 6.28272 3.7418 6.16062 3.78906 6.04672C3.83632 5.93282 3.90559 5.82937 3.99289 5.74228V5.74228Z" fill="white"/>
</svg>
