<svg width="26" height="22" viewBox="0 0 26 22" fill="none" xmlns="http://www.w3.org/2000/svg">
<path fill-rule="evenodd" clip-rule="evenodd" d="M0.992894 8.24228C1.07998 8.15498 1.18343 8.08571 1.29733 8.03845C1.41123 7.99118 1.53333 7.96686 1.65664 7.96686C1.77996 7.96686 1.90206 7.99118 2.01596 8.03845C2.12985 8.08571 2.23331 8.15498 2.32039 8.24228L12.9066 18.8304L23.4929 8.24228C23.6689 8.06625 23.9077 7.96735 24.1566 7.96735C24.4056 7.96735 24.6444 8.06625 24.8204 8.24228C24.9964 8.41832 25.0953 8.65708 25.0953 8.90603C25.0953 9.15499 24.9964 9.39375 24.8204 9.56978L13.5704 20.8198C13.4833 20.9071 13.3799 20.9764 13.266 21.0236C13.1521 21.0709 13.03 21.0952 12.9066 21.0952C12.7833 21.0952 12.6612 21.0709 12.5473 21.0236C12.4334 20.9764 12.33 20.9071 12.2429 20.8198L0.992894 9.56978C0.905588 9.4827 0.83632 9.37924 0.789058 9.26535C0.741796 9.15145 0.717468 9.02935 0.717468 8.90603C0.717468 8.78272 0.741796 8.66062 0.789058 8.54672C0.83632 8.43282 0.905588 8.32937 0.992894 8.24228V8.24228Z" fill="white"/>
<path fill-rule="evenodd" clip-rule="evenodd" d="M0.992894 0.742284C1.07998 0.654978 1.18343 0.58571 1.29733 0.538448C1.41123 0.491186 1.53333 0.466858 1.65664 0.466858C1.77996 0.466858 1.90206 0.491186 2.01596 0.538448C2.12985 0.58571 2.23331 0.654978 2.32039 0.742284L12.9066 11.3304L23.4929 0.742284C23.5801 0.655119 23.6835 0.585976 23.7974 0.538803C23.9113 0.49163 24.0334 0.46735 24.1566 0.46735C24.2799 0.46735 24.402 0.49163 24.5159 0.538803C24.6297 0.585976 24.7332 0.655119 24.8204 0.742284C24.9076 0.829449 24.9767 0.932929 25.0239 1.04681C25.071 1.1607 25.0953 1.28276 25.0953 1.40603C25.0953 1.5293 25.071 1.65137 25.0239 1.76525C24.9767 1.87914 24.9076 1.98262 24.8204 2.06978L13.5704 13.3198C13.4833 13.4071 13.3799 13.4764 13.266 13.5236C13.1521 13.5709 13.03 13.5952 12.9066 13.5952C12.7833 13.5952 12.6612 13.5709 12.5473 13.5236C12.4334 13.4764 12.33 13.4071 12.2429 13.3198L0.992894 2.06978C0.905588 1.9827 0.83632 1.87924 0.789058 1.76535C0.741796 1.65145 0.717468 1.52935 0.717468 1.40603C0.717468 1.28272 0.741796 1.16062 0.789058 1.04672C0.83632 0.932824 0.905588 0.829369 0.992894 0.742284V0.742284Z" fill="white"/>
</svg>
