<svg width="102" height="120" viewBox="0 0 102 120" fill="none" xmlns="http://www.w3.org/2000/svg">
<circle cx="53.7257" cy="54.7436" r="42.9245" fill="#CF433B"/>
<path d="M42.8717 19.3374C41.3732 22.0699 40.925 27.0871 40.8882 29.2541C40.8882 28.461 47.8667 23.708 51.3559 21.4306C52.8544 24.0747 60.3544 29.3639 63.9171 31.6779C64.7986 26.4992 59.3995 21.651 59.9504 20.439C60.3912 19.4693 69.3162 22.5325 73.7237 24.1853C73.2829 20.7475 68.0307 17.6108 65.4597 16.4723C64.8427 15.1497 71.0792 11.1465 74.2746 9.31027C72.2472 7.63532 62.5581 8.61237 57.9671 9.31027C57.9671 0.407275 52.3108 0.385282 49.4827 1.48716C52.7442 3.33828 52.5312 7.47387 52.017 9.31027C49.042 4.68245 31.9631 6.99656 35.7095 7.21694C38.7065 7.39323 42.3206 10.0817 43.7531 11.404C41.6375 10.6988 34.4975 15.5911 31.1919 18.1255L42.8717 19.3374Z" fill="#40803C" stroke="#40803C"/>
<circle cx="33.8747" cy="51.5867" r="2.68278" fill="black"/>
<circle cx="77.8576" cy="53.8493" r="2.68278" fill="black"/>
<path d="M50.9248 58.3206C53.5656 59.2665 52.5124 59.6175 56.5266 58.3206" stroke="black"/>
<path d="M0.924805 107.912L13.7787 83.511L91.3387 86.1255L100.925 111.18V119.023L0.924805 114.666V107.912Z" fill="#6D4225"/>
<path d="M0.924805 107.912L13.7787 83.511L91.3387 86.1255L100.925 111.18M0.924805 107.912L100.925 111.18M0.924805 107.912V114.666L100.925 119.023V111.18" stroke="#5A2F12"/>
<path d="M87.3151 64.9648C104.101 66.5916 85.6562 87.737 74.1083 94.8978M15.3823 64.9639C-1.4033 66.5907 15.3821 78.9528 33.7944 94.8973" stroke="black"/>
<path d="M33.2412 100.473V94.2097L28.2832 63.9395L79.1683 67.071L74.7323 95.5144C77.0286 96.5581 75.6891 100.994 74.7323 103.082L33.2412 100.473Z" fill="white"/>
<path d="M33.2412 94.2097V100.473L74.7323 103.082C75.6891 100.994 77.0286 96.5581 74.7323 95.5144M33.2412 94.2097C46.1147 94.2097 72.4359 94.4706 74.7323 95.5144M33.2412 94.2097L28.2832 63.9395L79.1683 67.071L74.7323 95.5144" stroke="#D1D1D1"/>
<ellipse cx="53.7256" cy="80.0966" rx="3.65333" ry="3.41395" fill="#CF433B"/>
<path d="M53.2795 76.8185C53.2117 76.9422 53.1914 77.1692 53.1897 77.2673C53.1897 77.2314 53.5055 77.0163 53.6634 76.9133C53.7312 77.0329 54.0706 77.2722 54.2318 77.3769C54.2717 77.1426 54.0274 76.9232 54.0523 76.8684C54.0722 76.8245 54.4761 76.9631 54.6755 77.0379C54.6556 76.8823 54.4179 76.7404 54.3016 76.6889C54.2737 76.629 54.5559 76.4479 54.7005 76.3648C54.6087 76.289 54.1703 76.3332 53.9625 76.3648C53.9625 75.9619 53.7066 75.961 53.5786 76.0108C53.7262 76.0946 53.7166 76.2817 53.6933 76.3648C53.5587 76.1554 52.7859 76.2601 52.9554 76.2701C53.091 76.2781 53.2546 76.3997 53.3194 76.4595C53.2236 76.4276 52.9006 76.649 52.751 76.7637L53.2795 76.8185Z" fill="#40803C" stroke="#40803C"/>
</svg>
