<svg width="136" height="139" viewBox="0 0 136 139" fill="none" xmlns="http://www.w3.org/2000/svg">
<circle cx="68.6457" cy="52.3427" r="42.9245" fill="#CF433B"/>
<path d="M77.5245 27.7636C76.026 30.4961 75.5778 35.5134 75.541 37.6804C75.541 36.8873 82.5195 32.1343 86.0087 29.8569C87.5073 32.501 95.0073 37.7902 98.5699 40.1042C99.4514 34.9255 94.0523 30.0773 94.6032 28.8652C95.044 27.8956 103.969 30.9588 108.376 32.6116C107.936 29.1737 102.684 26.0371 100.113 24.8985C99.4955 23.5759 105.732 19.5728 108.927 17.7365C106.9 16.0616 97.211 17.0386 92.6199 17.7365C92.6199 8.83354 86.9637 8.81155 84.1356 9.91343C87.3971 11.7646 87.184 15.9001 86.6698 17.7365C83.6948 13.1087 66.616 15.4228 70.3623 15.6432C73.3594 15.8195 76.9735 18.508 78.4059 19.8302C76.2903 19.125 69.1503 24.0174 65.8447 26.5518L77.5245 27.7636Z" fill="#40803C" stroke="#40803C"/>
<circle cx="59.7492" cy="45.1664" r="2.68278" fill="black"/>
<circle cx="7.43229" cy="74.5485" r="2.68278" fill="black"/>
<circle cx="132.744" cy="44.3449" r="2.68278" fill="black"/>
<circle cx="83.1652" cy="136.015" r="2.68278" fill="black"/>
<circle cx="32.1257" cy="124.686" r="2.68278" fill="black"/>
<circle cx="99.0846" cy="51.4264" r="2.68278" fill="black"/>
<path d="M71.8198 61.231C74.4606 62.1768 73.4075 62.5279 77.4216 61.231" stroke="black"/>
<path d="M103.2 70.2374C107.848 84.8432 131.151 51.5151 132.744 44.345" stroke="black"/>
<path d="M74.7642 91.324C78.5839 91.7059 85.4593 101.179 82.4036 136.015" stroke="black"/>
<path d="M31.498 42.3533C21.3181 44.7876 2.21975 54.8346 7.26544 75.5486" stroke="black"/>
<path d="M38.8589 78.3369C41.6601 84.3211 44.4358 101.79 33.1294 123.792" stroke="black"/>
<path d="M119.043 25.1301C119.043 26.3042 117.853 27.2551 116.387 27.2551C114.921 27.2551 113.731 26.3042 113.731 25.1301C113.731 23.9571 114.921 23.0051 116.387 23.0051C117.853 23.0051 119.043 23.9571 119.043 25.1301ZM128.606 23.0051C128.606 24.1792 127.416 25.1301 125.95 25.1301C124.483 25.1301 123.293 24.1792 123.293 23.0051C123.293 21.8311 124.483 20.8801 125.95 20.8801C127.416 20.8801 128.606 21.8311 128.606 23.0051Z" fill="black"/>
<path fill-rule="evenodd" clip-rule="evenodd" d="M127.543 23.0051V13.4426H128.606V23.0051H127.543ZM119.043 14.5051V25.1301H117.981V14.5051H119.043Z" fill="black"/>
<path d="M117.981 14.4042C117.981 14.1408 118.079 13.8868 118.255 13.6915C118.432 13.4961 118.675 13.3734 118.937 13.347L127.437 12.497C127.585 12.4822 127.734 12.4985 127.875 12.5448C128.016 12.5912 128.146 12.6666 128.256 12.7662C128.366 12.8658 128.454 12.9874 128.515 13.1232C128.575 13.2589 128.606 13.4057 128.606 13.5542V14.5051L117.981 15.5676V14.4042Z" fill="black"/>
<path d="M20.2368 91.0015C20.2368 92.1756 19.0468 93.1265 17.5806 93.1265C16.1143 93.1265 14.9243 92.1756 14.9243 91.0015C14.9243 89.8285 16.1143 88.8765 17.5806 88.8765C19.0468 88.8765 20.2368 89.8285 20.2368 91.0015ZM29.7993 88.8765C29.7993 90.0506 28.6093 91.0015 27.1431 91.0015C25.6768 91.0015 24.4868 90.0506 24.4868 88.8765C24.4868 87.7025 25.6768 86.7515 27.1431 86.7515C28.6093 86.7515 29.7993 87.7025 29.7993 88.8765Z" fill="black"/>
<path fill-rule="evenodd" clip-rule="evenodd" d="M28.7368 88.8765V79.314H29.7993V88.8765H28.7368ZM20.2368 80.3765V91.0015H19.1743V80.3765H20.2368Z" fill="black"/>
<path d="M19.1743 80.2756C19.1743 80.0122 19.2721 79.7582 19.4488 79.5629C19.6255 79.3675 19.8685 79.2448 20.1306 79.2184L28.6306 78.3684C28.7783 78.3536 28.9275 78.3699 29.0686 78.4162C29.2097 78.4626 29.3394 78.538 29.4496 78.6376C29.5597 78.7372 29.6477 78.8588 29.708 78.9946C29.7682 79.1303 29.7993 79.2771 29.7993 79.4256V80.3765L19.1743 81.439V80.2756Z" fill="black"/>
<path d="M5.36182 39.8938C5.36182 41.0679 4.17182 42.0188 2.70557 42.0188C1.23932 42.0188 0.0493164 41.0679 0.0493164 39.8938C0.0493164 38.7208 1.23932 37.7688 2.70557 37.7688C4.17182 37.7688 5.36182 38.7208 5.36182 39.8938ZM14.9243 37.7688C14.9243 38.9429 13.7343 39.8938 12.2681 39.8938C10.8018 39.8938 9.61182 38.9429 9.61182 37.7688C9.61182 36.5947 10.8018 35.6438 12.2681 35.6438C13.7343 35.6438 14.9243 36.5947 14.9243 37.7688Z" fill="black"/>
<path fill-rule="evenodd" clip-rule="evenodd" d="M13.8618 37.7688V28.2063H14.9243V37.7688H13.8618ZM5.36182 29.2688V39.8938H4.29932V29.2688H5.36182Z" fill="black"/>
<path d="M4.29932 29.1679C4.29931 28.9045 4.39715 28.6505 4.57384 28.4551C4.75053 28.2598 4.99349 28.137 5.25557 28.1107L13.7556 27.2607C13.9033 27.2458 14.0525 27.2621 14.1936 27.3085C14.3347 27.3549 14.4644 27.4303 14.5746 27.5299C14.6847 27.6295 14.7727 27.7511 14.833 27.8868C14.8932 28.0225 14.9243 28.1694 14.9243 28.3179V29.2688L4.29932 30.3313V29.1679Z" fill="black"/>
<path d="M97.5161 110.224C97.5161 111.398 96.3261 112.349 94.8599 112.349C93.3936 112.349 92.2036 111.398 92.2036 110.224C92.2036 109.051 93.3936 108.099 94.8599 108.099C96.3261 108.099 97.5161 109.051 97.5161 110.224ZM107.079 108.099C107.079 109.273 105.889 110.224 104.422 110.224C102.956 110.224 101.766 109.273 101.766 108.099C101.766 106.925 102.956 105.974 104.422 105.974C105.889 105.974 107.079 106.925 107.079 108.099Z" fill="black"/>
<path fill-rule="evenodd" clip-rule="evenodd" d="M106.016 108.099V98.5364H107.079V108.099H106.016ZM97.5161 99.5989V110.224H96.4536V99.5989H97.5161Z" fill="black"/>
<path d="M96.4536 99.498C96.4536 99.2346 96.5514 98.9806 96.7281 98.7852C96.9048 98.5899 97.1478 98.4671 97.4099 98.4408L105.91 97.5908C106.058 97.5759 106.207 97.5922 106.348 97.6386C106.489 97.6849 106.619 97.7604 106.729 97.86C106.839 97.9596 106.927 98.0812 106.987 98.2169C107.047 98.3526 107.079 98.4995 107.079 98.648V99.5989L96.4536 100.661V99.498Z" fill="black"/>
<path d="M29.7993 13.4426C29.7993 14.6167 28.6093 15.5676 27.1431 15.5676C25.6768 15.5676 24.4868 14.6167 24.4868 13.4426C24.4868 12.2696 25.6768 11.3176 27.1431 11.3176C28.6093 11.3176 29.7993 12.2696 29.7993 13.4426ZM39.3618 11.3176C39.3618 12.4917 38.1718 13.4426 36.7056 13.4426C35.2393 13.4426 34.0493 12.4917 34.0493 11.3176C34.0493 10.1436 35.2393 9.19263 36.7056 9.19263C38.1718 9.19263 39.3618 10.1436 39.3618 11.3176Z" fill="black"/>
<path fill-rule="evenodd" clip-rule="evenodd" d="M38.2993 11.3176V1.75513H39.3618V11.3176H38.2993ZM29.7993 2.81763V13.4426H28.7368V2.81763H29.7993Z" fill="black"/>
<path d="M28.7368 2.71671C28.7368 2.45331 28.8346 2.1993 29.0113 2.00396C29.188 1.80861 29.431 1.68586 29.6931 1.65952L38.1931 0.809525C38.3408 0.794676 38.49 0.810961 38.6311 0.85733C38.7722 0.903698 38.9019 0.979121 39.0121 1.07873C39.1222 1.17834 39.2102 1.29993 39.2705 1.43566C39.3307 1.57138 39.3618 1.71822 39.3618 1.86671V2.81765L28.7368 3.88015V2.71671Z" fill="black"/>
</svg>
