<svg width="27" height="32" viewBox="0 0 27 32" fill="none" xmlns="http://www.w3.org/2000/svg">
<circle cx="14.2004" cy="14.7387" r="10.7311" fill="#CF433B"/>
<path d="M11.4868 5.88714C11.1122 6.57026 11.0002 7.82457 10.991 8.36633C10.991 8.16806 12.7356 6.9798 13.6079 6.41045C13.9825 7.07148 15.8575 8.39377 16.7482 8.97228C16.9686 7.67759 15.6188 6.46555 15.7565 6.16253C15.8667 5.92013 18.098 6.68592 19.1998 7.09912C19.0897 6.23967 17.7766 5.45551 17.1338 5.17086C16.9796 4.84021 18.5387 3.83943 19.3376 3.38036C18.8307 2.96163 16.4085 3.20589 15.2607 3.38036C15.2607 1.15461 13.8466 1.14912 13.1396 1.42459C13.955 1.88737 13.9017 2.92126 13.7732 3.38036C13.0294 2.22341 8.75971 2.80194 9.69629 2.85703C10.4456 2.9011 11.3491 3.57323 11.7072 3.90378C11.1783 3.72749 9.39329 4.95058 8.56689 5.58417L11.4868 5.88714Z" fill="#40803C" stroke="#40803C"/>
<circle cx="9.23759" cy="13.9494" r="0.670695" fill="black"/>
<circle cx="20.2332" cy="14.5151" r="0.670695" fill="black"/>
<path d="M13.5 15.6329C14.1602 15.8694 13.8969 15.9572 14.9004 15.6329" stroke="black"/>
<path d="M1 28.0308L4.21347 21.9305L23.6035 22.5842L26 28.8478V30.8086L1 29.7193V28.0308Z" fill="#6D4225"/>
<path d="M1 28.0308L4.21347 21.9305L23.6035 22.5842L26 28.8478M1 28.0308L26 28.8478M1 28.0308V29.7193L26 30.8086V28.8478" stroke="#5A2F12"/>
<path d="M22.5976 17.294C26.794 17.7007 22.1829 22.987 19.2959 24.7772M4.61438 17.2938C0.417975 17.7005 4.61434 20.791 9.21741 24.7771" stroke="black"/>
<path d="M9.07886 26.1709V24.6052L7.83936 17.0377L20.5606 17.8205L19.4516 24.9314C20.0257 25.1923 19.6908 26.3014 19.4516 26.8233L9.07886 26.1709Z" fill="white"/>
<path d="M9.07886 24.6052V26.1709L19.4516 26.8233C19.6908 26.3014 20.0257 25.1923 19.4516 24.9314M9.07886 24.6052C12.2972 24.6052 18.8775 24.6705 19.4516 24.9314M9.07886 24.6052L7.83936 17.0377L20.5606 17.8205L19.4516 24.9314" stroke="#D1D1D1"/>
<ellipse cx="14.2004" cy="21.0769" rx="0.913333" ry="0.853488" fill="#CF433B"/>
<path d="M14.0887 20.2574C14.0717 20.2883 14.0666 20.3451 14.0662 20.3696C14.0662 20.3606 14.1452 20.3068 14.1846 20.2811C14.2016 20.311 14.2864 20.3708 14.3267 20.397C14.3367 20.3384 14.2756 20.2836 14.2819 20.2699C14.2869 20.2589 14.3878 20.2935 14.4377 20.3122C14.4327 20.2733 14.3733 20.2379 14.3442 20.225C14.3372 20.21 14.4078 20.1647 14.4439 20.144C14.421 20.125 14.3114 20.1361 14.2594 20.144C14.2594 20.0433 14.1955 20.043 14.1635 20.0555C14.2004 20.0764 14.1979 20.1232 14.1921 20.144C14.1585 20.0916 13.9653 20.1178 14.0076 20.1203C14.0416 20.1223 14.0824 20.1527 14.0986 20.1677C14.0747 20.1597 13.9939 20.215 13.9565 20.2437L14.0887 20.2574Z" fill="#40803C" stroke="#40803C"/>
</svg>
