<svg width="30" height="24" viewBox="0 0 30 24" fill="none" xmlns="http://www.w3.org/2000/svg">
<path d="M27.1875 2.75964C27.4361 2.75964 27.6746 2.85842 27.8504 3.03423C28.0262 3.21005 28.125 3.4485 28.125 3.69714V20.5721C28.125 20.8208 28.0262 21.0592 27.8504 21.2351C27.6746 21.4109 27.4361 21.5096 27.1875 21.5096H2.8125C2.56386 21.5096 2.3254 21.4109 2.14959 21.2351C1.97377 21.0592 1.875 20.8208 1.875 20.5721V3.69714C1.875 3.4485 1.97377 3.21005 2.14959 3.03423C2.3254 2.85842 2.56386 2.75964 2.8125 2.75964H27.1875ZM2.8125 0.884644C2.06658 0.884644 1.35121 1.18096 0.823762 1.70841C0.296316 2.23585 0 2.95122 0 3.69714L0 20.5721C0 21.3181 0.296316 22.0334 0.823762 22.5609C1.35121 23.0883 2.06658 23.3846 2.8125 23.3846H27.1875C27.9334 23.3846 28.6488 23.0883 29.1762 22.5609C29.7037 22.0334 30 21.3181 30 20.5721V3.69714C30 2.95122 29.7037 2.23585 29.1762 1.70841C28.6488 1.18096 27.9334 0.884644 27.1875 0.884644H2.8125Z" fill="#C4C4C4"/>
<path d="M13.125 7.44717C13.125 7.19853 13.2237 6.96007 13.3996 6.78426C13.5754 6.60844 13.8138 6.50967 14.0625 6.50967H23.4375C23.6861 6.50967 23.9246 6.60844 24.1004 6.78426C24.2762 6.96007 24.375 7.19853 24.375 7.44717C24.375 7.69581 24.2762 7.93427 24.1004 8.11008C23.9246 8.2859 23.6861 8.38467 23.4375 8.38467H14.0625C13.8138 8.38467 13.5754 8.2859 13.3996 8.11008C13.2237 7.93427 13.125 7.69581 13.125 7.44717ZM10.32 5.84592C10.4073 5.93301 10.4765 6.03646 10.5238 6.15036C10.5711 6.26425 10.5954 6.38636 10.5954 6.50967C10.5954 6.63298 10.5711 6.75509 10.5238 6.86898C10.4765 6.98288 10.4073 7.08634 10.32 7.17342L7.50746 9.98592C7.42038 10.0732 7.31692 10.1425 7.20303 10.1898C7.08913 10.237 6.96703 10.2613 6.84371 10.2613C6.7204 10.2613 6.5983 10.237 6.4844 10.1898C6.3705 10.1425 6.26705 10.0732 6.17996 9.98592L5.24246 9.04842C5.1553 8.96126 5.08616 8.85778 5.03898 8.74389C4.99181 8.63 4.96753 8.50794 4.96753 8.38467C4.96753 8.13572 5.06643 7.89696 5.24246 7.72092C5.4185 7.54488 5.65726 7.44599 5.90621 7.44599C6.15517 7.44599 6.39393 7.54488 6.56996 7.72092L6.84371 7.99655L8.99246 5.84592C9.07955 5.75861 9.183 5.68935 9.2969 5.64208C9.4108 5.59482 9.5329 5.5705 9.65621 5.5705C9.77953 5.5705 9.90163 5.59482 10.0155 5.64208C10.1294 5.68935 10.2329 5.75861 10.32 5.84592ZM13.125 14.9472C13.125 14.6985 13.2237 14.4601 13.3996 14.2843C13.5754 14.1084 13.8138 14.0097 14.0625 14.0097H23.4375C23.6861 14.0097 23.9246 14.1084 24.1004 14.2843C24.2762 14.4601 24.375 14.6985 24.375 14.9472C24.375 15.1958 24.2762 15.4343 24.1004 15.6101C23.9246 15.7859 23.6861 15.8847 23.4375 15.8847H14.0625C13.8138 15.8847 13.5754 15.7859 13.3996 15.6101C13.2237 15.4343 13.125 15.1958 13.125 14.9472ZM10.32 13.3459C10.4073 13.433 10.4765 13.5365 10.5238 13.6504C10.5711 13.7643 10.5954 13.8864 10.5954 14.0097C10.5954 14.133 10.5711 14.2551 10.5238 14.369C10.4765 14.4829 10.4073 14.5863 10.32 14.6734L7.50746 17.4859C7.42038 17.5732 7.31692 17.6425 7.20303 17.6898C7.08913 17.737 6.96703 17.7613 6.84371 17.7613C6.7204 17.7613 6.5983 17.737 6.4844 17.6898C6.3705 17.6425 6.26705 17.5732 6.17996 17.4859L5.24246 16.5484C5.1553 16.4613 5.08616 16.3578 5.03898 16.2439C4.99181 16.13 4.96753 16.0079 4.96753 15.8847C4.96753 15.7614 4.99181 15.6393 5.03898 15.5255C5.08616 15.4116 5.1553 15.3081 5.24246 15.2209C5.32963 15.1338 5.43311 15.0646 5.54699 15.0174C5.66088 14.9703 5.78294 14.946 5.90621 14.946C6.02948 14.946 6.15155 14.9703 6.26543 15.0174C6.37932 15.0646 6.4828 15.1338 6.56996 15.2209L6.84371 15.4965L8.99246 13.3459C9.07955 13.2586 9.183 13.1893 9.2969 13.1421C9.4108 13.0948 9.5329 13.0705 9.65621 13.0705C9.77953 13.0705 9.90163 13.0948 10.0155 13.1421C10.1294 13.1893 10.2329 13.2586 10.32 13.3459Z" fill="#C4C4C4"/>
</svg>
