<svg width="25" height="29" viewBox="0 0 25 29" fill="none" xmlns="http://www.w3.org/2000/svg">
<circle cx="12.5" cy="15.6864" r="12.5" fill="#CF433B"/>
<path d="M5.33876 5.96717C4.90239 6.7629 4.77187 8.22396 4.76115 8.85503C4.76115 8.62407 6.79334 7.23994 7.80944 6.57675C8.24583 7.34674 10.4299 8.88698 11.4674 9.56086C11.7241 8.05276 10.1518 6.64092 10.3122 6.28796C10.4406 6.0056 13.0397 6.89762 14.3231 7.37893C14.1948 6.37781 12.6653 5.46439 11.9166 5.13283C11.7369 4.74768 13.553 3.58192 14.4836 3.04719C13.8932 2.55943 11.0716 2.84396 9.73467 3.04719C9.73467 0.454556 8.08753 0.448151 7.26396 0.769028C8.21374 1.30809 8.1517 2.51241 8.00196 3.04719C7.13561 1.69953 2.1621 2.37342 3.25306 2.43759C4.12583 2.48893 5.17829 3.27185 5.59542 3.65689C4.97935 3.45153 2.90011 4.87624 1.9375 5.61426L5.33876 5.96717Z" fill="#40803C" stroke="#40803C"/>
</svg>
