<svg width="237" height="119" viewBox="0 0 237 119" fill="none" xmlns="http://www.w3.org/2000/svg">
<path d="M150.79 27.1073L150.829 27.5009L151.221 27.5533C160.961 28.8547 168.5 36.5509 168.5 45.9314C168.5 56.2273 159.404 64.5 148.294 64.5H131.5C130.795 64.5 130.124 64.235 129.634 63.7713C129.144 63.3086 128.875 62.6871 128.875 62.0455C128.875 61.4038 129.144 60.7824 129.634 60.3196C130.124 59.8559 130.795 59.5909 131.5 59.5909H148.3C156.604 59.5909 163.25 53.4261 163.25 45.9314C163.25 38.4309 156.611 32.2659 148.294 32.2659H145.669V29.8116C145.669 29.8115 145.669 29.8114 145.669 29.8114C145.675 16.3773 133.785 5.40909 119 5.40909L118.998 5.40909C112.136 5.43501 105.505 7.77808 100.303 12.0214C95.5044 15.929 92.9125 20.7023 92.9125 24.5523V26.7489L90.5798 26.9918C81.6305 27.9184 74.75 34.8793 74.75 43.2427C74.75 52.2266 82.7022 59.5909 92.6312 59.5909H106.5C107.205 59.5909 107.876 59.8559 108.366 60.3196C108.856 60.7824 109.125 61.4038 109.125 62.0455C109.125 62.6871 108.856 63.3086 108.366 63.7713C107.876 64.235 107.205 64.5 106.5 64.5H92.6312C79.9088 64.5 69.5 55.0278 69.5 43.2427C69.5 33.095 77.2123 24.6459 87.4897 22.5008L87.8215 22.4316L87.88 22.0977C88.7471 17.1504 92.1284 12.1667 96.8533 8.31765L96.5375 7.93L96.8534 8.31753C103.009 3.29909 110.864 0.524291 119.001 0.5C135.59 0.500345 149.3 12.1558 150.79 27.1073Z" fill="white" stroke="#C7C7C7"/>
<path d="M117.118 25.2322L117.118 25.2318C117.362 25.0016 117.654 24.8175 117.977 24.6914C118.301 24.5653 118.648 24.5 119 24.5C119.352 24.5 119.699 24.5653 120.023 24.6914C120.346 24.8175 120.638 25.0016 120.882 25.2318L120.882 25.2322L139.736 42.9581C140.229 43.4217 140.5 44.0438 140.5 44.6854C140.5 45.327 140.229 45.9491 139.736 46.4128C139.242 46.8775 138.565 47.1435 137.854 47.1435C137.142 47.1435 136.466 46.8775 135.972 46.4129C135.972 46.4128 135.972 46.4128 135.971 46.4128L122.485 33.7271L121.642 32.9345V34.0913V86.0457C121.642 86.6863 121.372 87.3074 120.879 87.7704C120.386 88.2344 119.71 88.5 119 88.5C118.29 88.5 117.614 88.2344 117.121 87.7704C116.628 87.3074 116.358 86.6863 116.358 86.0457V34.0913V32.9345L115.515 33.7271L102.029 46.4128C101.534 46.8775 100.858 47.1435 100.146 47.1435C99.4348 47.1435 98.7582 46.8775 98.264 46.4128C97.7708 45.9491 97.5 45.327 97.5 44.6854C97.5 44.0438 97.7708 43.4217 98.264 42.9581L117.118 25.2322Z" fill="white" stroke="#C7C7C7"/>
<path d="M5.57812 115.242H2.49609L1.91016 117H0.0410156L3.2168 108.469H4.8457L8.03906 117H6.16992L5.57812 115.242ZM2.9707 113.818H5.10352L4.03125 110.625L2.9707 113.818ZM11.9941 113.877H10.5938V117H8.83594V108.469H12.0059C13.0137 108.469 13.791 108.693 14.3379 109.143C14.8848 109.592 15.1582 110.227 15.1582 111.047C15.1582 111.629 15.0312 112.115 14.7773 112.506C14.5273 112.893 14.1465 113.201 13.6348 113.432L15.4805 116.918V117H13.5938L11.9941 113.877ZM10.5938 112.453H12.0117C12.4531 112.453 12.7949 112.342 13.0371 112.119C13.2793 111.893 13.4004 111.582 13.4004 111.188C13.4004 110.785 13.2852 110.469 13.0547 110.238C12.8281 110.008 12.4785 109.893 12.0059 109.893H10.5938V112.453ZM19.6582 113.877H18.2578V117H16.5V108.469H19.6699C20.6777 108.469 21.4551 108.693 22.002 109.143C22.5488 109.592 22.8223 110.227 22.8223 111.047C22.8223 111.629 22.6953 112.115 22.4414 112.506C22.1914 112.893 21.8105 113.201 21.2988 113.432L23.1445 116.918V117H21.2578L19.6582 113.877ZM18.2578 112.453H19.6758C20.1172 112.453 20.459 112.342 20.7012 112.119C20.9434 111.893 21.0645 111.582 21.0645 111.188C21.0645 110.785 20.9492 110.469 20.7188 110.238C20.4922 110.008 20.1426 109.893 19.6699 109.893H18.2578V112.453ZM28.9805 115.242H25.8984L25.3125 117H23.4434L26.6191 108.469H28.248L31.4414 117H29.5723L28.9805 115.242ZM26.373 113.818H28.5059L27.4336 110.625L26.373 113.818ZM36.6621 114.762C36.6621 114.43 36.5449 114.176 36.3105 114C36.0762 113.82 35.6543 113.633 35.0449 113.438C34.4355 113.238 33.9531 113.043 33.5977 112.852C32.6289 112.328 32.1445 111.623 32.1445 110.736C32.1445 110.275 32.2734 109.865 32.5312 109.506C32.793 109.143 33.166 108.859 33.6504 108.656C34.1387 108.453 34.6855 108.352 35.291 108.352C35.9004 108.352 36.4434 108.463 36.9199 108.686C37.3965 108.904 37.7656 109.215 38.0273 109.617C38.293 110.02 38.4258 110.477 38.4258 110.988H36.668C36.668 110.598 36.5449 110.295 36.2988 110.08C36.0527 109.861 35.707 109.752 35.2617 109.752C34.832 109.752 34.498 109.844 34.2598 110.027C34.0215 110.207 33.9023 110.445 33.9023 110.742C33.9023 111.02 34.041 111.252 34.3184 111.439C34.5996 111.627 35.0117 111.803 35.5547 111.967C36.5547 112.268 37.2832 112.641 37.7402 113.086C38.1973 113.531 38.4258 114.086 38.4258 114.75C38.4258 115.488 38.1465 116.068 37.5879 116.49C37.0293 116.908 36.2773 117.117 35.332 117.117C34.6758 117.117 34.0781 116.998 33.5391 116.76C33 116.518 32.5879 116.188 32.3027 115.77C32.0215 115.352 31.8809 114.867 31.8809 114.316H33.6445C33.6445 115.258 34.207 115.729 35.332 115.729C35.75 115.729 36.0762 115.645 36.3105 115.477C36.5449 115.305 36.6621 115.066 36.6621 114.762ZM46.043 109.893H43.4297V117H41.6719V109.893H39.0938V108.469H46.043V109.893ZM50.209 113.877H48.8086V117H47.0508V108.469H50.2207C51.2285 108.469 52.0059 108.693 52.5527 109.143C53.0996 109.592 53.373 110.227 53.373 111.047C53.373 111.629 53.2461 112.115 52.9922 112.506C52.7422 112.893 52.3613 113.201 51.8496 113.432L53.6953 116.918V117H51.8086L50.209 113.877ZM48.8086 112.453H50.2266C50.668 112.453 51.0098 112.342 51.252 112.119C51.4941 111.893 51.6152 111.582 51.6152 111.188C51.6152 110.785 51.5 110.469 51.2695 110.238C51.043 110.008 50.6934 109.893 50.2207 109.893H48.8086V112.453ZM59.8477 113.303H56.4727V115.588H60.4336V117H54.7148V108.469H60.4219V109.893H56.4727V111.926H59.8477V113.303ZM67.3945 112.312L69.1699 108.469H71.0918L68.291 113.906V117H66.5039V113.906L63.7031 108.469H65.6309L67.3945 112.312ZM79.2832 114.762C79.2832 114.43 79.166 114.176 78.9316 114C78.6973 113.82 78.2754 113.633 77.666 113.438C77.0566 113.238 76.5742 113.043 76.2188 112.852C75.25 112.328 74.7656 111.623 74.7656 110.736C74.7656 110.275 74.8945 109.865 75.1523 109.506C75.4141 109.143 75.7871 108.859 76.2715 108.656C76.7598 108.453 77.3066 108.352 77.9121 108.352C78.5215 108.352 79.0645 108.463 79.541 108.686C80.0176 108.904 80.3867 109.215 80.6484 109.617C80.9141 110.02 81.0469 110.477 81.0469 110.988H79.2891C79.2891 110.598 79.166 110.295 78.9199 110.08C78.6738 109.861 78.3281 109.752 77.8828 109.752C77.4531 109.752 77.1191 109.844 76.8809 110.027C76.6426 110.207 76.5234 110.445 76.5234 110.742C76.5234 111.02 76.6621 111.252 76.9395 111.439C77.2207 111.627 77.6328 111.803 78.1758 111.967C79.1758 112.268 79.9043 112.641 80.3613 113.086C80.8184 113.531 81.0469 114.086 81.0469 114.75C81.0469 115.488 80.7676 116.068 80.209 116.49C79.6504 116.908 78.8984 117.117 77.9531 117.117C77.2969 117.117 76.6992 116.998 76.1602 116.76C75.6211 116.518 75.209 116.188 74.9238 115.77C74.6426 115.352 74.502 114.867 74.502 114.316H76.2656C76.2656 115.258 76.8281 115.729 77.9531 115.729C78.3711 115.729 78.6973 115.645 78.9316 115.477C79.166 115.305 79.2832 115.066 79.2832 114.762ZM88.6992 108.469V114.088C88.6992 115.021 88.4062 115.76 87.8203 116.303C87.2383 116.846 86.4414 117.117 85.4297 117.117C84.4336 117.117 83.6426 116.854 83.0566 116.326C82.4707 115.799 82.1719 115.074 82.1602 114.152V108.469H83.918V114.1C83.918 114.658 84.0508 115.066 84.3164 115.324C84.5859 115.578 84.957 115.705 85.4297 115.705C86.418 115.705 86.9199 115.186 86.9355 114.146V108.469H88.6992ZM95.2734 113.303H91.8984V115.588H95.8594V117H90.1406V108.469H95.8477V109.893H91.8984V111.926H95.2734V113.303ZM98.6484 115.588H102.381V117H96.8906V108.469H98.6484V115.588ZM108.609 109.893H105.996V117H104.238V109.893H101.66V108.469H108.609V109.893ZM114.75 113.303H111.375V115.588H115.336V117H109.617V108.469H115.324V109.893H111.375V111.926H114.75V113.303ZM123.779 114.762C123.779 114.43 123.662 114.176 123.428 114C123.193 113.82 122.771 113.633 122.162 113.438C121.553 113.238 121.07 113.043 120.715 112.852C119.746 112.328 119.262 111.623 119.262 110.736C119.262 110.275 119.391 109.865 119.648 109.506C119.91 109.143 120.283 108.859 120.768 108.656C121.256 108.453 121.803 108.352 122.408 108.352C123.018 108.352 123.561 108.463 124.037 108.686C124.514 108.904 124.883 109.215 125.145 109.617C125.41 110.02 125.543 110.477 125.543 110.988H123.785C123.785 110.598 123.662 110.295 123.416 110.08C123.17 109.861 122.824 109.752 122.379 109.752C121.949 109.752 121.615 109.844 121.377 110.027C121.139 110.207 121.02 110.445 121.02 110.742C121.02 111.02 121.158 111.252 121.436 111.439C121.717 111.627 122.129 111.803 122.672 111.967C123.672 112.268 124.4 112.641 124.857 113.086C125.314 113.531 125.543 114.086 125.543 114.75C125.543 115.488 125.264 116.068 124.705 116.49C124.146 116.908 123.395 117.117 122.449 117.117C121.793 117.117 121.195 116.998 120.656 116.76C120.117 116.518 119.705 116.188 119.42 115.77C119.139 115.352 118.998 114.867 118.998 114.316H120.762C120.762 115.258 121.324 115.729 122.449 115.729C122.867 115.729 123.193 115.645 123.428 115.477C123.662 115.305 123.779 115.066 123.779 114.762ZM133.195 108.469V114.088C133.195 115.021 132.902 115.76 132.316 116.303C131.734 116.846 130.938 117.117 129.926 117.117C128.93 117.117 128.139 116.854 127.553 116.326C126.967 115.799 126.668 115.074 126.656 114.152V108.469H128.414V114.1C128.414 114.658 128.547 115.066 128.812 115.324C129.082 115.578 129.453 115.705 129.926 115.705C130.914 115.705 131.416 115.186 131.432 114.146V108.469H133.195ZM139.061 114.762C139.061 114.43 138.943 114.176 138.709 114C138.475 113.82 138.053 113.633 137.443 113.438C136.834 113.238 136.352 113.043 135.996 112.852C135.027 112.328 134.543 111.623 134.543 110.736C134.543 110.275 134.672 109.865 134.93 109.506C135.191 109.143 135.564 108.859 136.049 108.656C136.537 108.453 137.084 108.352 137.689 108.352C138.299 108.352 138.842 108.463 139.318 108.686C139.795 108.904 140.164 109.215 140.426 109.617C140.691 110.02 140.824 110.477 140.824 110.988H139.066C139.066 110.598 138.943 110.295 138.697 110.08C138.451 109.861 138.105 109.752 137.66 109.752C137.23 109.752 136.896 109.844 136.658 110.027C136.42 110.207 136.301 110.445 136.301 110.742C136.301 111.02 136.439 111.252 136.717 111.439C136.998 111.627 137.41 111.803 137.953 111.967C138.953 112.268 139.682 112.641 140.139 113.086C140.596 113.531 140.824 114.086 140.824 114.75C140.824 115.488 140.545 116.068 139.986 116.49C139.428 116.908 138.676 117.117 137.73 117.117C137.074 117.117 136.477 116.998 135.938 116.76C135.398 116.518 134.986 116.188 134.701 115.77C134.42 115.352 134.279 114.867 134.279 114.316H136.043C136.043 115.258 136.605 115.729 137.73 115.729C138.148 115.729 138.475 115.645 138.709 115.477C138.943 115.305 139.061 115.066 139.061 114.762ZM149.824 115.242H146.742L146.156 117H144.287L147.463 108.469H149.092L152.285 117H150.416L149.824 115.242ZM147.217 113.818H149.35L148.277 110.625L147.217 113.818ZM156.24 113.877H154.84V117H153.082V108.469H156.252C157.26 108.469 158.037 108.693 158.584 109.143C159.131 109.592 159.404 110.227 159.404 111.047C159.404 111.629 159.277 112.115 159.023 112.506C158.773 112.893 158.393 113.201 157.881 113.432L159.727 116.918V117H157.84L156.24 113.877ZM154.84 112.453H156.258C156.699 112.453 157.041 112.342 157.283 112.119C157.525 111.893 157.646 111.582 157.646 111.188C157.646 110.785 157.531 110.469 157.301 110.238C157.074 110.008 156.725 109.893 156.252 109.893H154.84V112.453ZM167.443 114.158C167.377 115.076 167.037 115.799 166.424 116.326C165.814 116.854 165.01 117.117 164.01 117.117C162.916 117.117 162.055 116.75 161.426 116.016C160.801 115.277 160.488 114.266 160.488 112.98V112.459C160.488 111.639 160.633 110.916 160.922 110.291C161.211 109.666 161.623 109.188 162.158 108.855C162.697 108.52 163.322 108.352 164.033 108.352C165.018 108.352 165.811 108.615 166.412 109.143C167.014 109.67 167.361 110.41 167.455 111.363H165.697C165.654 110.812 165.5 110.414 165.234 110.168C164.973 109.918 164.572 109.793 164.033 109.793C163.447 109.793 163.008 110.004 162.715 110.426C162.426 110.844 162.277 111.494 162.27 112.377V113.021C162.27 113.943 162.408 114.617 162.686 115.043C162.967 115.469 163.408 115.682 164.01 115.682C164.553 115.682 164.957 115.559 165.223 115.312C165.492 115.062 165.646 114.678 165.686 114.158H167.443ZM175.541 117H173.783V113.344H170.355V117H168.598V108.469H170.355V111.926H173.783V108.469H175.541V117ZM178.951 117H177.193V108.469H178.951V117ZM183.738 114.885L185.672 108.469H187.629L184.658 117H182.824L179.865 108.469H181.816L183.738 114.885ZM195.363 112.928C195.363 113.768 195.215 114.504 194.918 115.137C194.621 115.77 194.195 116.258 193.641 116.602C193.09 116.945 192.457 117.117 191.742 117.117C191.035 117.117 190.404 116.947 189.85 116.607C189.295 116.268 188.865 115.783 188.561 115.154C188.256 114.521 188.102 113.795 188.098 112.975V112.553C188.098 111.713 188.248 110.975 188.549 110.338C188.854 109.697 189.281 109.207 189.832 108.867C190.387 108.523 191.02 108.352 191.73 108.352C192.441 108.352 193.072 108.523 193.623 108.867C194.178 109.207 194.605 109.697 194.906 110.338C195.211 110.975 195.363 111.711 195.363 112.547V112.928ZM193.582 112.541C193.582 111.646 193.422 110.967 193.102 110.502C192.781 110.037 192.324 109.805 191.73 109.805C191.141 109.805 190.686 110.035 190.365 110.496C190.045 110.953 189.883 111.625 189.879 112.512V112.928C189.879 113.799 190.039 114.475 190.359 114.955C190.68 115.436 191.141 115.676 191.742 115.676C192.332 115.676 192.785 115.445 193.102 114.984C193.418 114.52 193.578 113.844 193.582 112.957V112.541ZM201.064 114.762C201.064 114.43 200.947 114.176 200.713 114C200.479 113.82 200.057 113.633 199.447 113.438C198.838 113.238 198.355 113.043 198 112.852C197.031 112.328 196.547 111.623 196.547 110.736C196.547 110.275 196.676 109.865 196.934 109.506C197.195 109.143 197.568 108.859 198.053 108.656C198.541 108.453 199.088 108.352 199.693 108.352C200.303 108.352 200.846 108.463 201.322 108.686C201.799 108.904 202.168 109.215 202.43 109.617C202.695 110.02 202.828 110.477 202.828 110.988H201.07C201.07 110.598 200.947 110.295 200.701 110.08C200.455 109.861 200.109 109.752 199.664 109.752C199.234 109.752 198.9 109.844 198.662 110.027C198.424 110.207 198.305 110.445 198.305 110.742C198.305 111.02 198.443 111.252 198.721 111.439C199.002 111.627 199.414 111.803 199.957 111.967C200.957 112.268 201.686 112.641 202.143 113.086C202.6 113.531 202.828 114.086 202.828 114.75C202.828 115.488 202.549 116.068 201.99 116.49C201.432 116.908 200.68 117.117 199.734 117.117C199.078 117.117 198.48 116.998 197.941 116.76C197.402 116.518 196.99 116.188 196.705 115.77C196.424 115.352 196.283 114.867 196.283 114.316H198.047C198.047 115.258 198.609 115.729 199.734 115.729C200.152 115.729 200.479 115.645 200.713 115.477C200.947 115.305 201.064 115.066 201.064 114.762ZM211.828 115.242H208.746L208.16 117H206.291L209.467 108.469H211.096L214.289 117H212.42L211.828 115.242ZM209.221 113.818H211.354L210.281 110.625L209.221 113.818ZM221.953 112.928C221.953 113.725 221.824 114.418 221.566 115.008C221.309 115.594 220.951 116.064 220.494 116.42L221.912 117.533L220.793 118.523L218.977 117.064C218.77 117.1 218.555 117.117 218.332 117.117C217.625 117.117 216.994 116.947 216.439 116.607C215.885 116.268 215.455 115.783 215.15 115.154C214.846 114.521 214.691 113.795 214.688 112.975V112.553C214.688 111.713 214.838 110.975 215.139 110.338C215.443 109.697 215.871 109.207 216.422 108.867C216.977 108.523 217.609 108.352 218.32 108.352C219.031 108.352 219.662 108.523 220.213 108.867C220.768 109.207 221.195 109.697 221.496 110.338C221.801 110.975 221.953 111.711 221.953 112.547V112.928ZM220.172 112.541C220.172 111.646 220.012 110.967 219.691 110.502C219.371 110.037 218.914 109.805 218.32 109.805C217.73 109.805 217.275 110.035 216.955 110.496C216.635 110.953 216.473 111.625 216.469 112.512V112.928C216.469 113.799 216.629 114.475 216.949 114.955C217.27 115.436 217.73 115.676 218.332 115.676C218.922 115.676 219.375 115.445 219.691 114.984C220.008 114.52 220.168 113.844 220.172 112.957V112.541ZM229.699 108.469V114.088C229.699 115.021 229.406 115.76 228.82 116.303C228.238 116.846 227.441 117.117 226.43 117.117C225.434 117.117 224.643 116.854 224.057 116.326C223.471 115.799 223.172 115.074 223.16 114.152V108.469H224.918V114.1C224.918 114.658 225.051 115.066 225.316 115.324C225.586 115.578 225.957 115.705 226.43 115.705C227.418 115.705 227.92 115.186 227.936 114.146V108.469H229.699ZM233.01 117H231.252V108.469H233.01V117ZM232.465 106.166H234.311L232.688 107.982H231.311L232.465 106.166Z" fill="#C7C7C7"/>
</svg>
