<svg width="40" height="41" viewBox="0 0 40 41" fill="none" xmlns="http://www.w3.org/2000/svg">
<path d="M39.7487 31.75H33.2889V26.125H30.059V31.75H23.5992V34.5625H30.059V40.1875H33.2889V34.5625H39.7487V31.75Z" fill="#C4C4C4"/>
<path d="M17.1394 37.375H4.21988V3.62499H17.1394V12.0625C17.142 12.8077 17.4831 13.5218 18.0883 14.0488C18.6934 14.5757 19.5135 14.8728 20.3693 14.875H30.059V20.5H33.2889V12.0625C33.2946 11.8777 33.2542 11.694 33.1706 11.524C33.087 11.3541 32.962 11.202 32.8044 11.0781L21.4998 1.23436C21.3576 1.09704 21.1829 0.988201 20.9877 0.915367C20.7926 0.842533 20.5816 0.807433 20.3693 0.81249H4.21988C3.36405 0.814716 2.544 1.11175 1.93883 1.63871C1.33366 2.16568 0.992546 2.87975 0.98999 3.62499V37.375C0.992546 38.1202 1.33366 38.8343 1.93883 39.3613C2.544 39.8882 3.36405 40.1853 4.21988 40.1875H17.1394V37.375ZM20.3693 4.18749L29.413 12.0625H20.3693V4.18749Z" fill="#C4C4C4"/>
</svg>
