<svg width="30" height="34" viewBox="0 0 30 34" fill="none" xmlns="http://www.w3.org/2000/svg">
<path d="M28.5 0H1.5C0.671573 0 0 0.934362 0 2.08696V31.3043C0 32.4569 0.671573 33.3913 1.5 33.3913H28.5C29.3284 33.3913 30 32.4569 30 31.3043V2.08696C30 0.934362 29.3284 0 28.5 0Z" fill="#90CAF9"/>
<path d="M22.1 10.6212C21.85 10.1351 21.5 9.64892 21.05 9.25118C20.6 8.85343 20.05 8.54407 19.45 8.32309C18.85 8.14632 18.15 8.01373 17.5 8.01373H12.5V23.0398H17.5C18.15 23.0398 18.85 22.9072 19.45 22.6863C20.05 22.4653 20.6 22.1559 21.05 21.7582C21.5 21.3604 21.85 20.9185 22.1 20.3882C22.35 19.8578 22.5 19.3275 22.5 18.753V12.2564C22.5 11.6819 22.35 11.1515 22.1 10.6212ZM17.5 21.0953H14.8V9.95829H17.5C19 9.95829 20.2 10.9748 20.2 12.2564V18.7972C20.2 20.0346 19 21.0953 17.5 21.0953Z" fill="white"/>
<path d="M7.5 8.01373H9.5V23.0398H7.5V8.01373Z" fill="white"/>
</svg>
