<svg width="33" height="39" viewBox="0 0 33 39" fill="none" xmlns="http://www.w3.org/2000/svg">
<path d="M28.1474 38.25H0.0327148V4.5H20.1146L28.1474 12V38.25Z" fill="#90CAF9"/>
<path d="M31.664 34H4.54932V1.25H23.9341L31.664 8.46722V34Z" fill="#90CAF9" stroke="white"/>
<path d="M30.6577 9.1875H23.127V2.15625L30.6577 9.1875Z" fill="#E1F5FE"/>
<path d="M15.4961 25.0312C15.4961 24.8437 15.4961 24.6562 15.5965 24.4687C15.6969 24.2812 15.7973 24.1875 15.8977 24C15.9981 23.8125 16.199 23.8125 16.3998 23.7188C16.6006 23.625 16.8014 23.625 17.0022 23.625C17.2031 23.625 17.5043 23.625 17.7051 23.7188C17.9059 23.8125 18.1067 23.9062 18.2072 24C18.3076 24.0937 18.408 24.2812 18.5084 24.4687C18.6088 24.6562 18.6088 24.8437 18.6088 25.0312C18.6088 25.2187 18.6088 25.4062 18.5084 25.5938C18.408 25.7813 18.3076 25.875 18.2072 26.0625C18.1067 26.25 17.9059 26.25 17.7051 26.3437C17.5043 26.4375 17.3035 26.4375 17.0022 26.4375C16.701 26.4375 16.5002 26.4375 16.3998 26.3437C16.2994 26.25 15.9981 26.1563 15.8977 26.0625C15.7973 25.9687 15.6969 25.7813 15.5965 25.5938C15.4961 25.4062 15.4961 25.2187 15.4961 25.0312ZM18.2072 22.125H15.8977L15.4961 12.9375H18.5084L18.2072 22.125Z" fill="white"/>
</svg>
