<svg width="40" height="41" viewBox="0 0 40 41" fill="none" xmlns="http://www.w3.org/2000/svg">
<path d="M39.7486 31.75H33.2888V26.125H30.0589V31.75H23.5991V34.5625H30.0589V40.1875H33.2888V34.5625H39.7486V31.75Z" fill="#90CAF9"/>
<path d="M17.1392 37.375H4.21964V3.62499H17.1392V12.0625C17.1418 12.8077 17.4829 13.5218 18.088 14.0488C18.6932 14.5757 19.5133 14.8728 20.3691 14.875H30.0588V20.5H33.2886V12.0625C33.2943 11.8777 33.254 11.694 33.1704 11.524C33.0867 11.3541 32.9618 11.202 32.8042 11.0781L21.4995 1.23436C21.3574 1.09704 21.1827 0.988201 20.9875 0.915367C20.7923 0.842533 20.5813 0.807433 20.3691 0.81249H4.21964C3.3638 0.814716 2.54375 1.11175 1.93858 1.63871C1.33341 2.16568 0.992302 2.87975 0.989746 3.62499V37.375C0.992302 38.1202 1.33341 38.8343 1.93858 39.3613C2.54375 39.8882 3.3638 40.1853 4.21964 40.1875H17.1392V37.375ZM20.3691 4.18749L29.4128 12.0625H20.3691V4.18749Z" fill="#90CAF9"/>
</svg>
