<svg width="15" height="15" viewBox="0 0 15 15" fill="none" xmlns="http://www.w3.org/2000/svg">
<circle cx="7.5" cy="7.5" r="7.5" fill="black"/>
<path d="M6.35156 9.84863C6.35156 9.18327 6.42676 8.65918 6.57715 8.27637C6.72754 7.889 6.97135 7.55404 7.30859 7.27148C7.64583 6.98893 7.90104 6.73145 8.07422 6.49902C8.25195 6.26204 8.34082 6.00228 8.34082 5.71973C8.34082 5.03158 8.0446 4.6875 7.45215 4.6875C7.17871 4.6875 6.95768 4.78776 6.78906 4.98828C6.62044 5.1888 6.53158 5.45996 6.52246 5.80176H4.21191C4.22103 4.8903 4.50814 4.18164 5.07324 3.67578C5.63835 3.16536 6.43132 2.91016 7.45215 2.91016C8.46842 2.91016 9.25456 3.14486 9.81055 3.61426C10.3711 4.08366 10.6514 4.7513 10.6514 5.61719C10.6514 5.99544 10.5762 6.33952 10.4258 6.64941C10.2754 6.95931 10.0339 7.27604 9.70117 7.59961L8.91504 8.33105C8.69173 8.54525 8.53678 8.76628 8.4502 8.99414C8.36361 9.21745 8.31576 9.50228 8.30664 9.84863H6.35156ZM6.07129 11.9268C6.07129 11.5895 6.19206 11.3138 6.43359 11.0996C6.67969 10.8809 6.98503 10.7715 7.34961 10.7715C7.71419 10.7715 8.01725 10.8809 8.25879 11.0996C8.50488 11.3138 8.62793 11.5895 8.62793 11.9268C8.62793 12.264 8.50488 12.542 8.25879 12.7607C8.01725 12.9749 7.71419 13.082 7.34961 13.082C6.98503 13.082 6.67969 12.9749 6.43359 12.7607C6.19206 12.542 6.07129 12.264 6.07129 11.9268Z" fill="white"/>
</svg>
