<svg width="33" height="39" viewBox="0 0 33 39" fill="none" xmlns="http://www.w3.org/2000/svg">
<path d="M28.1474 38.25H0.0327148V4.5H20.1146L28.1474 12V38.25Z" fill="#9F9F9F"/>
<path d="M32.1639 34.5H4.04919V0.75H24.1311L32.1639 8.25V34.5Z" fill="#C4C4C4"/>
<path d="M30.6577 9.1875H23.127V2.15625L30.6577 9.1875Z" fill="#E1F5FE"/>
<path d="M15.4958 25.0312C15.4958 24.8437 15.4958 24.6562 15.5963 24.4687C15.6967 24.2812 15.7971 24.1875 15.8975 24C15.9979 23.8125 16.1987 23.8125 16.3995 23.7188C16.6004 23.625 16.8012 23.625 17.002 23.625C17.2028 23.625 17.504 23.625 17.7049 23.7188C17.9057 23.8125 18.1065 23.9062 18.2069 24C18.3073 24.0937 18.4077 24.2812 18.5081 24.4687C18.6085 24.6562 18.6085 24.8437 18.6085 25.0312C18.6085 25.2187 18.6085 25.4062 18.5081 25.5938C18.4077 25.7813 18.3073 25.875 18.2069 26.0625C18.1065 26.25 17.9057 26.25 17.7049 26.3437C17.504 26.4375 17.3032 26.4375 17.002 26.4375C16.7008 26.4375 16.4999 26.4375 16.3995 26.3437C16.2991 26.25 15.9979 26.1563 15.8975 26.0625C15.7971 25.9687 15.6967 25.7813 15.5963 25.5938C15.4958 25.4062 15.4958 25.2187 15.4958 25.0312ZM18.2069 22.125H15.8975L15.4958 12.9375H18.5081L18.2069 22.125Z" fill="white"/>
</svg>
