<svg width="14" height="14" viewBox="0 0 14 14" fill="none" xmlns="http://www.w3.org/2000/svg">
<path d="M12.2305 0.964844H2.48047C2.04949 0.964844 1.63617 1.13605 1.33142 1.4408C1.02667 1.74554 0.855469 2.15887 0.855469 2.58984L0.855469 12.3398C0.855469 12.7708 1.02667 13.1841 1.33142 13.4889C1.63617 13.7936 2.04949 13.9648 2.48047 13.9648H12.2305C12.6614 13.9648 13.0748 13.7936 13.3795 13.4889C13.6843 13.1841 13.8555 12.7708 13.8555 12.3398V2.58984C13.8555 2.15887 13.6843 1.74554 13.3795 1.4408C13.0748 1.13605 12.6614 0.964844 12.2305 0.964844V0.964844ZM1.66797 4.09866C1.66797 3.71434 2.03197 3.40234 2.48047 3.40234H12.2305C12.679 3.40234 13.043 3.71434 13.043 4.09866V12.456C13.043 12.8403 12.679 13.1523 12.2305 13.1523H2.48047C2.03197 13.1523 1.66797 12.8403 1.66797 12.456V4.09866Z" fill="#C7C7C7"/>
<path d="M6.13672 6.65234C6.35221 6.65234 6.55887 6.56674 6.71124 6.41437C6.86362 6.26199 6.94922 6.05533 6.94922 5.83984C6.94922 5.62436 6.86362 5.41769 6.71124 5.26532C6.55887 5.11295 6.35221 5.02734 6.13672 5.02734C5.92123 5.02734 5.71457 5.11295 5.56219 5.26532C5.40982 5.41769 5.32422 5.62436 5.32422 5.83984C5.32422 6.05533 5.40982 6.26199 5.56219 6.41437C5.71457 6.56674 5.92123 6.65234 6.13672 6.65234ZM8.57422 6.65234C8.78971 6.65234 8.99637 6.56674 9.14874 6.41437C9.30112 6.26199 9.38672 6.05533 9.38672 5.83984C9.38672 5.62436 9.30112 5.41769 9.14874 5.26532C8.99637 5.11295 8.78971 5.02734 8.57422 5.02734C8.35873 5.02734 8.15207 5.11295 7.99969 5.26532C7.84732 5.41769 7.76172 5.62436 7.76172 5.83984C7.76172 6.05533 7.84732 6.26199 7.99969 6.41437C8.15207 6.56674 8.35873 6.65234 8.57422 6.65234V6.65234ZM11.0117 6.65234C11.2272 6.65234 11.4339 6.56674 11.5862 6.41437C11.7386 6.26199 11.8242 6.05533 11.8242 5.83984C11.8242 5.62436 11.7386 5.41769 11.5862 5.26532C11.4339 5.11295 11.2272 5.02734 11.0117 5.02734C10.7962 5.02734 10.5896 5.11295 10.4372 5.26532C10.2848 5.41769 10.1992 5.62436 10.1992 5.83984C10.1992 6.05533 10.2848 6.26199 10.4372 6.41437C10.5896 6.56674 10.7962 6.65234 11.0117 6.65234V6.65234ZM3.69922 9.08984C3.91471 9.08984 4.12137 9.00424 4.27374 8.85187C4.42612 8.69949 4.51172 8.49283 4.51172 8.27734C4.51172 8.06186 4.42612 7.85519 4.27374 7.70282C4.12137 7.55045 3.91471 7.46484 3.69922 7.46484C3.48373 7.46484 3.27707 7.55045 3.12469 7.70282C2.97232 7.85519 2.88672 8.06186 2.88672 8.27734C2.88672 8.49283 2.97232 8.69949 3.12469 8.85187C3.27707 9.00424 3.48373 9.08984 3.69922 9.08984V9.08984ZM6.13672 9.08984C6.35221 9.08984 6.55887 9.00424 6.71124 8.85187C6.86362 8.69949 6.94922 8.49283 6.94922 8.27734C6.94922 8.06186 6.86362 7.85519 6.71124 7.70282C6.55887 7.55045 6.35221 7.46484 6.13672 7.46484C5.92123 7.46484 5.71457 7.55045 5.56219 7.70282C5.40982 7.85519 5.32422 8.06186 5.32422 8.27734C5.32422 8.49283 5.40982 8.69949 5.56219 8.85187C5.71457 9.00424 5.92123 9.08984 6.13672 9.08984ZM8.57422 9.08984C8.78971 9.08984 8.99637 9.00424 9.14874 8.85187C9.30112 8.69949 9.38672 8.49283 9.38672 8.27734C9.38672 8.06186 9.30112 7.85519 9.14874 7.70282C8.99637 7.55045 8.78971 7.46484 8.57422 7.46484C8.35873 7.46484 8.15207 7.55045 7.99969 7.70282C7.84732 7.85519 7.76172 8.06186 7.76172 8.27734C7.76172 8.49283 7.84732 8.69949 7.99969 8.85187C8.15207 9.00424 8.35873 9.08984 8.57422 9.08984V9.08984ZM11.0117 9.08984C11.2272 9.08984 11.4339 9.00424 11.5862 8.85187C11.7386 8.69949 11.8242 8.49283 11.8242 8.27734C11.8242 8.06186 11.7386 7.85519 11.5862 7.70282C11.4339 7.55045 11.2272 7.46484 11.0117 7.46484C10.7962 7.46484 10.5896 7.55045 10.4372 7.70282C10.2848 7.85519 10.1992 8.06186 10.1992 8.27734C10.1992 8.49283 10.2848 8.69949 10.4372 8.85187C10.5896 9.00424 10.7962 9.08984 11.0117 9.08984V9.08984ZM3.69922 11.5273C3.91471 11.5273 4.12137 11.4417 4.27374 11.2894C4.42612 11.137 4.51172 10.9303 4.51172 10.7148C4.51172 10.4994 4.42612 10.2927 4.27374 10.1403C4.12137 9.98795 3.91471 9.90234 3.69922 9.90234C3.48373 9.90234 3.27707 9.98795 3.12469 10.1403C2.97232 10.2927 2.88672 10.4994 2.88672 10.7148C2.88672 10.9303 2.97232 11.137 3.12469 11.2894C3.27707 11.4417 3.48373 11.5273 3.69922 11.5273V11.5273ZM6.13672 11.5273C6.35221 11.5273 6.55887 11.4417 6.71124 11.2894C6.86362 11.137 6.94922 10.9303 6.94922 10.7148C6.94922 10.4994 6.86362 10.2927 6.71124 10.1403C6.55887 9.98795 6.35221 9.90234 6.13672 9.90234C5.92123 9.90234 5.71457 9.98795 5.56219 10.1403C5.40982 10.2927 5.32422 10.4994 5.32422 10.7148C5.32422 10.9303 5.40982 11.137 5.56219 11.2894C5.71457 11.4417 5.92123 11.5273 6.13672 11.5273ZM8.57422 11.5273C8.78971 11.5273 8.99637 11.4417 9.14874 11.2894C9.30112 11.137 9.38672 10.9303 9.38672 10.7148C9.38672 10.4994 9.30112 10.2927 9.14874 10.1403C8.99637 9.98795 8.78971 9.90234 8.57422 9.90234C8.35873 9.90234 8.15207 9.98795 7.99969 10.1403C7.84732 10.2927 7.76172 10.4994 7.76172 10.7148C7.76172 10.9303 7.84732 11.137 7.99969 11.2894C8.15207 11.4417 8.35873 11.5273 8.57422 11.5273V11.5273Z" fill="#C7C7C7"/>
</svg>
