<svg width="678" height="445" viewBox="0 0 678 445" fill="none" xmlns="http://www.w3.org/2000/svg">
<path d="M174.151 424.909C171.337 424.1 169.286 423.109 167.999 421.935C166.723 420.75 166.085 419.292 166.085 417.56C166.085 415.6 166.865 413.983 168.426 412.707C169.999 411.419 172.038 410.775 174.544 410.775C176.253 410.775 177.774 411.106 179.107 411.767C180.452 412.427 181.489 413.339 182.218 414.501C182.958 415.663 183.329 416.933 183.329 418.312H180.03C180.03 416.808 179.552 415.629 178.595 414.774C177.638 413.909 176.288 413.476 174.544 413.476C172.927 413.476 171.662 413.834 170.75 414.552C169.85 415.259 169.4 416.244 169.4 417.509C169.4 418.523 169.828 419.383 170.682 420.089C171.548 420.784 173.012 421.422 175.074 422.003C177.148 422.584 178.766 423.228 179.928 423.935C181.101 424.63 181.967 425.444 182.525 426.378C183.095 427.313 183.38 428.412 183.38 429.677C183.38 431.693 182.594 433.311 181.021 434.53C179.449 435.738 177.347 436.342 174.715 436.342C173.006 436.342 171.411 436.017 169.93 435.368C168.449 434.707 167.304 433.807 166.495 432.667C165.698 431.528 165.299 430.235 165.299 428.788H168.597C168.597 430.292 169.15 431.483 170.255 432.36C171.371 433.226 172.858 433.659 174.715 433.659C176.447 433.659 177.774 433.306 178.697 432.599C179.62 431.893 180.082 430.93 180.082 429.711C180.082 428.492 179.654 427.552 178.8 426.891C177.945 426.219 176.396 425.558 174.151 424.909ZM194.779 436.342C192.272 436.342 190.233 435.521 188.661 433.881C187.088 432.229 186.302 430.024 186.302 427.267V426.686C186.302 424.852 186.65 423.217 187.345 421.781C188.051 420.334 189.031 419.206 190.284 418.397C191.549 417.577 192.916 417.167 194.386 417.167C196.79 417.167 198.658 417.959 199.991 419.542C201.324 421.126 201.991 423.393 201.991 426.344V427.66H189.464C189.509 429.483 190.039 430.958 191.053 432.086C192.079 433.203 193.377 433.761 194.95 433.761C196.066 433.761 197.012 433.533 197.787 433.078C198.561 432.622 199.239 432.018 199.82 431.266L201.751 432.77C200.202 435.151 197.878 436.342 194.779 436.342ZM194.386 419.765C193.11 419.765 192.039 420.232 191.173 421.166C190.307 422.089 189.771 423.388 189.566 425.062H198.829V424.823C198.738 423.217 198.305 421.975 197.53 421.098C196.756 420.209 195.707 419.765 194.386 419.765ZM209.1 436H205.938V409.75H209.1V436ZM221.849 436.342C219.343 436.342 217.303 435.521 215.731 433.881C214.159 432.229 213.373 430.024 213.373 427.267V426.686C213.373 424.852 213.72 423.217 214.415 421.781C215.121 420.334 216.101 419.206 217.354 418.397C218.619 417.577 219.986 417.167 221.456 417.167C223.86 417.167 225.729 417.959 227.062 419.542C228.395 421.126 229.061 423.393 229.061 426.344V427.66H216.534C216.58 429.483 217.11 430.958 218.124 432.086C219.149 433.203 220.448 433.761 222.02 433.761C223.137 433.761 224.082 433.533 224.857 433.078C225.632 432.622 226.31 432.018 226.891 431.266L228.822 432.77C227.272 435.151 224.948 436.342 221.849 436.342ZM221.456 419.765C220.18 419.765 219.109 420.232 218.243 421.166C217.377 422.089 216.842 423.388 216.637 425.062H225.899V424.823C225.808 423.217 225.375 421.975 224.601 421.098C223.826 420.209 222.778 419.765 221.456 419.765ZM240.152 433.761C241.28 433.761 242.266 433.419 243.109 432.736C243.952 432.052 244.419 431.198 244.51 430.172H247.501C247.444 431.232 247.079 432.24 246.407 433.197C245.735 434.154 244.835 434.918 243.707 435.487C242.59 436.057 241.406 436.342 240.152 436.342C237.634 436.342 235.629 435.504 234.137 433.83C232.656 432.143 231.915 429.842 231.915 426.925V426.396C231.915 424.595 232.245 422.995 232.906 421.593C233.567 420.192 234.513 419.104 235.743 418.329C236.985 417.554 238.449 417.167 240.135 417.167C242.209 417.167 243.929 417.788 245.296 419.03C246.675 420.272 247.41 421.884 247.501 423.866H244.51C244.419 422.67 243.963 421.69 243.143 420.927C242.334 420.152 241.332 419.765 240.135 419.765C238.529 419.765 237.281 420.346 236.393 421.508C235.515 422.659 235.077 424.328 235.077 426.515V427.113C235.077 429.244 235.515 430.884 236.393 432.035C237.27 433.186 238.523 433.761 240.152 433.761ZM258.473 433.761C259.601 433.761 260.586 433.419 261.429 432.736C262.272 432.052 262.739 431.198 262.831 430.172H265.821C265.764 431.232 265.4 432.24 264.728 433.197C264.055 434.154 263.155 434.918 262.027 435.487C260.911 436.057 259.726 436.342 258.473 436.342C255.955 436.342 253.95 435.504 252.457 433.83C250.976 432.143 250.235 429.842 250.235 426.925V426.396C250.235 424.595 250.566 422.995 251.227 421.593C251.887 420.192 252.833 419.104 254.063 418.329C255.305 417.554 256.769 417.167 258.456 417.167C260.529 417.167 262.25 417.788 263.617 419.03C264.995 420.272 265.73 421.884 265.821 423.866H262.831C262.739 422.67 262.284 421.69 261.463 420.927C260.654 420.152 259.652 419.765 258.456 419.765C256.849 419.765 255.602 420.346 254.713 421.508C253.836 422.659 253.397 424.328 253.397 426.515V427.113C253.397 429.244 253.836 430.884 254.713 432.035C255.59 433.186 256.843 433.761 258.473 433.761ZM272.811 436H269.649V417.509H272.811V436ZM269.393 412.604C269.393 412.091 269.547 411.658 269.854 411.305C270.174 410.952 270.641 410.775 271.256 410.775C271.871 410.775 272.338 410.952 272.657 411.305C272.976 411.658 273.136 412.091 273.136 412.604C273.136 413.117 272.976 413.544 272.657 413.886C272.338 414.228 271.871 414.398 271.256 414.398C270.641 414.398 270.174 414.228 269.854 413.886C269.547 413.544 269.393 413.117 269.393 412.604ZM277.049 426.583C277.049 424.772 277.403 423.143 278.109 421.696C278.827 420.249 279.818 419.132 281.083 418.346C282.359 417.56 283.811 417.167 285.44 417.167C287.958 417.167 289.992 418.039 291.542 419.782C293.102 421.525 293.883 423.843 293.883 426.737V426.959C293.883 428.76 293.535 430.377 292.84 431.813C292.157 433.237 291.171 434.348 289.884 435.146C288.608 435.943 287.138 436.342 285.475 436.342C282.968 436.342 280.934 435.47 279.374 433.727C277.824 431.984 277.049 429.677 277.049 426.806V426.583ZM280.228 426.959C280.228 429.01 280.701 430.657 281.646 431.898C282.604 433.14 283.88 433.761 285.475 433.761C287.081 433.761 288.357 433.135 289.303 431.881C290.248 430.617 290.721 428.851 290.721 426.583C290.721 424.556 290.237 422.915 289.269 421.662C288.312 420.397 287.035 419.765 285.44 419.765C283.88 419.765 282.621 420.386 281.664 421.627C280.707 422.869 280.228 424.647 280.228 426.959ZM300.838 417.509L300.941 419.833C302.354 418.056 304.199 417.167 306.478 417.167C310.386 417.167 312.357 419.372 312.391 423.781V436H309.229V423.764C309.218 422.431 308.91 421.445 308.307 420.807C307.714 420.169 306.786 419.85 305.521 419.85C304.496 419.85 303.596 420.124 302.821 420.67C302.046 421.217 301.442 421.935 301.009 422.824V436H297.848V417.509H300.838ZM324.833 436.342C322.326 436.342 320.287 435.521 318.714 433.881C317.142 432.229 316.356 430.024 316.356 427.267V426.686C316.356 424.852 316.703 423.217 317.398 421.781C318.105 420.334 319.085 419.206 320.338 418.397C321.603 417.577 322.97 417.167 324.439 417.167C326.843 417.167 328.712 417.959 330.045 419.542C331.378 421.126 332.044 423.393 332.044 426.344V427.66H319.518C319.563 429.483 320.093 430.958 321.107 432.086C322.132 433.203 323.431 433.761 325.003 433.761C326.12 433.761 327.066 433.533 327.84 433.078C328.615 432.622 329.293 432.018 329.874 431.266L331.805 432.77C330.256 435.151 327.931 436.342 324.833 436.342ZM324.439 419.765C323.163 419.765 322.092 420.232 321.227 421.166C320.361 422.089 319.825 423.388 319.62 425.062H328.883V424.823C328.792 423.217 328.359 421.975 327.584 421.098C326.809 420.209 325.761 419.765 324.439 419.765ZM355.816 434.171C354.586 435.618 352.78 436.342 350.399 436.342C348.428 436.342 346.924 435.772 345.887 434.633C344.862 433.482 344.343 431.785 344.332 429.54V417.509H347.494V429.455C347.494 432.257 348.633 433.659 350.912 433.659C353.327 433.659 354.933 432.759 355.731 430.958V417.509H358.893V436H355.885L355.816 434.171ZM366.703 417.509L366.805 419.833C368.218 418.056 370.064 417.167 372.342 417.167C376.25 417.167 378.221 419.372 378.255 423.781V436H375.094V423.764C375.082 422.431 374.775 421.445 374.171 420.807C373.578 420.169 372.65 419.85 371.385 419.85C370.36 419.85 369.46 420.124 368.685 420.67C367.91 421.217 367.306 421.935 366.874 422.824V436H363.712V417.509H366.703ZM394.439 436C394.257 435.635 394.109 434.986 393.995 434.052C392.525 435.578 390.771 436.342 388.731 436.342C386.909 436.342 385.41 435.829 384.237 434.804C383.075 433.767 382.494 432.457 382.494 430.873C382.494 428.948 383.223 427.455 384.681 426.396C386.151 425.325 388.213 424.789 390.868 424.789H393.944V423.336C393.944 422.231 393.613 421.354 392.953 420.705C392.292 420.044 391.318 419.713 390.03 419.713C388.902 419.713 387.957 419.998 387.193 420.568C386.43 421.138 386.048 421.827 386.048 422.636H382.87C382.87 421.713 383.194 420.824 383.844 419.97C384.505 419.104 385.393 418.42 386.51 417.919C387.638 417.418 388.874 417.167 390.218 417.167C392.349 417.167 394.018 417.702 395.226 418.773C396.433 419.833 397.06 421.297 397.105 423.166V431.676C397.105 433.374 397.322 434.724 397.755 435.727V436H394.439ZM389.193 433.59C390.184 433.59 391.124 433.334 392.013 432.821C392.901 432.309 393.545 431.642 393.944 430.822V427.028H391.466C387.592 427.028 385.655 428.161 385.655 430.429C385.655 431.42 385.986 432.195 386.646 432.753C387.307 433.311 388.156 433.59 389.193 433.59ZM409.906 426.583C409.906 424.772 410.259 423.143 410.965 421.696C411.683 420.249 412.674 419.132 413.939 418.346C415.215 417.56 416.668 417.167 418.297 417.167C420.815 417.167 422.848 418.039 424.398 419.782C425.959 421.525 426.739 423.843 426.739 426.737V426.959C426.739 428.76 426.392 430.377 425.697 431.813C425.013 433.237 424.028 434.348 422.74 435.146C421.464 435.943 419.994 436.342 418.331 436.342C415.825 436.342 413.791 435.47 412.23 433.727C410.681 431.984 409.906 429.677 409.906 426.806V426.583ZM413.084 426.959C413.084 429.01 413.557 430.657 414.503 431.898C415.46 433.14 416.736 433.761 418.331 433.761C419.938 433.761 421.214 433.135 422.159 431.881C423.105 430.617 423.578 428.851 423.578 426.583C423.578 424.556 423.093 422.915 422.125 421.662C421.168 420.397 419.892 419.765 418.297 419.765C416.736 419.765 415.477 420.386 414.52 421.627C413.563 422.869 413.084 424.647 413.084 426.959ZM446.324 426.959C446.324 429.774 445.681 432.041 444.393 433.761C443.106 435.482 441.362 436.342 439.164 436.342C436.919 436.342 435.153 435.63 433.866 434.206V443.109H430.704V417.509H433.592L433.746 419.56C435.034 417.965 436.822 417.167 439.112 417.167C441.334 417.167 443.089 418.004 444.376 419.679C445.675 421.354 446.324 423.684 446.324 426.669V426.959ZM443.163 426.601C443.163 424.516 442.718 422.869 441.83 421.662C440.941 420.454 439.722 419.85 438.172 419.85C436.258 419.85 434.823 420.699 433.866 422.396V431.232C434.811 432.918 436.258 433.761 438.207 433.761C439.722 433.761 440.924 433.163 441.812 431.967C442.713 430.759 443.163 428.97 443.163 426.601ZM457.774 433.761C458.902 433.761 459.888 433.419 460.731 432.736C461.574 432.052 462.041 431.198 462.132 430.172H465.123C465.066 431.232 464.701 432.24 464.029 433.197C463.357 434.154 462.457 434.918 461.329 435.487C460.213 436.057 459.028 436.342 457.774 436.342C455.257 436.342 453.251 435.504 451.759 433.83C450.278 432.143 449.537 429.842 449.537 426.925V426.396C449.537 424.595 449.868 422.995 450.528 421.593C451.189 420.192 452.135 419.104 453.365 418.329C454.607 417.554 456.071 417.167 457.757 417.167C459.831 417.167 461.551 417.788 462.918 419.03C464.297 420.272 465.032 421.884 465.123 423.866H462.132C462.041 422.67 461.585 421.69 460.765 420.927C459.956 420.152 458.954 419.765 457.757 419.765C456.151 419.765 454.903 420.346 454.015 421.508C453.137 422.659 452.699 424.328 452.699 426.515V427.113C452.699 429.244 453.137 430.884 454.015 432.035C454.892 433.186 456.145 433.761 457.774 433.761ZM472.113 436H468.951V417.509H472.113V436ZM468.695 412.604C468.695 412.091 468.849 411.658 469.156 411.305C469.475 410.952 469.942 410.775 470.558 410.775C471.173 410.775 471.64 410.952 471.959 411.305C472.278 411.658 472.438 412.091 472.438 412.604C472.438 413.117 472.278 413.544 471.959 413.886C471.64 414.228 471.173 414.398 470.558 414.398C469.942 414.398 469.475 414.228 469.156 413.886C468.849 413.544 468.695 413.117 468.695 412.604ZM476.351 426.583C476.351 424.772 476.704 423.143 477.411 421.696C478.128 420.249 479.12 419.132 480.384 418.346C481.66 417.56 483.113 417.167 484.742 417.167C487.26 417.167 489.294 418.039 490.843 419.782C492.404 421.525 493.185 423.843 493.185 426.737V426.959C493.185 428.76 492.837 430.377 492.142 431.813C491.458 433.237 490.473 434.348 489.186 435.146C487.91 435.943 486.44 436.342 484.776 436.342C482.27 436.342 480.236 435.47 478.675 433.727C477.126 431.984 476.351 429.677 476.351 426.806V426.583ZM479.53 426.959C479.53 429.01 480.003 430.657 480.948 431.898C481.905 433.14 483.181 433.761 484.776 433.761C486.383 433.761 487.659 433.135 488.604 431.881C489.55 430.617 490.023 428.851 490.023 426.583C490.023 424.556 489.539 422.915 488.57 421.662C487.613 420.397 486.337 419.765 484.742 419.765C483.181 419.765 481.922 420.386 480.965 421.627C480.008 422.869 479.53 424.647 479.53 426.959ZM486.178 409.75H490.006L485.426 414.774H482.879L486.178 409.75ZM500.14 417.509L500.243 419.833C501.655 418.056 503.501 417.167 505.78 417.167C509.688 417.167 511.659 419.372 511.693 423.781V436H508.531V423.764C508.52 422.431 508.212 421.445 507.608 420.807C507.016 420.169 506.087 419.85 504.823 419.85C503.797 419.85 502.897 420.124 502.123 420.67C501.348 421.217 500.744 421.935 500.311 422.824V436H497.149V417.509H500.14Z" fill="#949494"/>
<path opacity="0.3" d="M678 64.9305V141.627L676.569 139.696L573.865 1.29652L572.899 0H629.815L630.774 1.29652L676.569 62.9985L678 64.9305Z" fill="#82AC85"/>
<path opacity="0.3" d="M272.608 311.728C282.262 338.041 278.871 362.747 278.871 362.747C278.871 362.747 259.831 344.791 250.177 318.478C240.524 292.166 243.914 267.459 243.914 267.459C243.914 267.459 262.955 285.414 272.608 311.728Z" fill="#82AC85"/>
<path opacity="0.3" d="M285.135 311.728C275.481 338.041 278.872 362.747 278.872 362.747C278.872 362.747 297.914 344.791 307.568 318.478C317.221 292.166 313.829 267.459 313.829 267.459C313.829 267.459 294.788 285.414 285.135 311.728Z" fill="#82AC85"/>
<path opacity="0.3" d="M289.023 312.012C289.671 339.734 278.379 362.432 278.379 362.432C278.379 362.432 266.039 340.187 265.391 312.465C264.745 284.743 276.036 262.045 276.036 262.045C276.036 262.045 288.377 284.29 289.023 312.012Z" fill="#3F3D56"/>
<path opacity="0.3" d="M278.372 364.102C293.45 364.102 305.671 363.494 305.671 362.745C305.671 361.997 293.45 361.389 278.372 361.389C263.295 361.389 251.072 361.997 251.072 362.745C251.072 363.494 263.295 364.102 278.372 364.102Z" fill="#3F3D56"/>
<path opacity="0.3" d="M18.1012 363.167C26.6558 363.167 33.5909 356.887 33.5909 349.138C33.5909 341.39 26.6558 335.109 18.1012 335.109C9.54651 335.109 2.61145 341.39 2.61145 349.138C2.61145 356.887 9.54651 363.167 18.1012 363.167Z" fill="#F2F2F2"/>
<path opacity="0.3" d="M20.9428 326.442C15.3894 326.449 10.066 328.45 6.1398 332.006C2.21383 335.564 0.00570083 340.386 0 345.415C0 345.52 4.8713e-07 345.624 0.00703152 345.727C0.0752515 349.229 1.21029 352.646 3.28653 355.601C5.36296 358.556 8.30003 360.933 11.7739 362.472C13.0036 363.021 14.2912 363.454 15.6176 363.768C19.1111 364.599 22.7817 364.599 26.2751 363.768C27.6013 363.454 28.8892 363.021 30.1186 362.472C34.3779 360.592 37.8079 357.461 39.849 353.589C41.8901 349.716 42.4216 345.331 41.3567 341.151C40.2918 336.968 37.6935 333.239 33.9861 330.567C30.2785 327.894 25.6805 326.44 20.9428 326.442ZM26.0674 362.472C24.398 362.888 22.6741 363.096 20.9428 363.095C20.5992 363.095 20.2556 363.088 19.9193 363.069H19.9121C18.5296 363.007 17.1591 362.806 15.8251 362.472C13.0051 361.773 10.3938 360.51 8.18298 358.776C5.9722 357.043 4.21786 354.883 3.049 352.457V352.45C1.46606 349.143 1.03679 345.479 1.81876 341.946C2.60091 338.412 4.55668 335.18 7.4242 332.683C10.2915 330.184 13.9336 328.54 17.862 327.97C21.7905 327.399 25.8176 327.931 29.4034 329.492C32.989 331.053 35.9622 333.569 37.924 336.705C39.8859 339.839 40.7429 343.443 40.38 347.032C40.017 350.618 38.4516 354.021 35.8934 356.782C33.3352 359.541 29.9068 361.527 26.0674 362.472Z" fill="#3F3D56"/>
<path opacity="0.3" d="M197.025 253.813H81.0725V272.461H197.025V253.813Z" fill="#F2F2F2"/>
<path opacity="0.3" d="M558.476 79.4281H442.525V98.0764H558.476V79.4281Z" fill="#F2F2F2"/>
<path opacity="0.3" d="M558.476 120.269H442.525V138.918H558.476V120.269Z" fill="#F2F2F2"/>
<path opacity="0.3" d="M558.476 159.814H442.525V178.462H558.476V159.814Z" fill="#F2F2F2"/>
<path opacity="0.3" d="M558.476 199.358H442.525V218.006H558.476V199.358Z" fill="#F2F2F2"/>
<path opacity="0.3" d="M558.476 240.199H442.525V258.847H558.476V240.199Z" fill="#F2F2F2"/>
<path opacity="0.3" d="M558.476 281.039H442.525V299.687H558.476V281.039Z" fill="#F2F2F2"/>
<path opacity="0.3" d="M80.3567 247.178V273.108H234.958V247.178H80.3567ZM233.527 271.812H81.7882V248.474H233.527V271.812Z" fill="#3F3D56"/>
<path opacity="0.3" d="M338.027 107.8C341.98 107.8 345.183 104.898 345.183 101.318C345.183 97.7375 341.98 94.835 338.027 94.835C334.074 94.835 330.869 97.7375 330.869 101.318C330.869 104.898 334.074 107.8 338.027 107.8Z" fill="#3F3D56"/>
<path opacity="0.3" d="M338.027 147.993C341.98 147.993 345.183 145.09 345.183 141.51C345.183 137.93 341.98 135.028 338.027 135.028C334.074 135.028 330.869 137.93 330.869 141.51C330.869 145.09 334.074 147.993 338.027 147.993Z" fill="#3F3D56"/>
<path opacity="0.3" d="M338.027 188.185C341.98 188.185 345.183 185.283 345.183 181.703C345.183 178.123 341.98 175.22 338.027 175.22C334.074 175.22 330.869 178.123 330.869 181.703C330.869 185.283 334.074 188.185 338.027 188.185Z" fill="#3F3D56"/>
<path opacity="0.3" d="M338.027 228.378C341.98 228.378 345.183 225.476 345.183 221.894C345.183 218.315 341.98 215.413 338.027 215.413C334.074 215.413 330.869 218.315 330.869 221.894C330.869 225.476 334.074 228.378 338.027 228.378Z" fill="#3F3D56"/>
<path opacity="0.3" d="M338.027 268.571C341.98 268.571 345.183 265.668 345.183 262.088C345.183 258.508 341.98 255.606 338.027 255.606C334.074 255.606 330.869 258.508 330.869 262.088C330.869 265.668 334.074 268.571 338.027 268.571Z" fill="#3F3D56"/>
<path opacity="0.3" d="M338.027 308.763C341.98 308.763 345.183 305.861 345.183 302.281C345.183 298.699 341.98 295.797 338.027 295.797C334.074 295.797 330.869 298.699 330.869 302.281C330.869 305.861 334.074 308.763 338.027 308.763Z" fill="#3F3D56"/>
<path opacity="0.3" d="M598.559 100.669H402.445V101.966H598.559V100.669Z" fill="#3F3D56"/>
<path opacity="0.3" d="M598.559 140.863H402.445V142.159H598.559V140.863Z" fill="#3F3D56"/>
<path opacity="0.3" d="M598.559 181.054H402.445V182.352H598.559V181.054Z" fill="#3F3D56"/>
<path opacity="0.3" d="M598.559 221.247H402.445V222.543H598.559V221.247Z" fill="#3F3D56"/>
<path opacity="0.3" d="M598.559 261.439H402.445V262.737H598.559V261.439Z" fill="#3F3D56"/>
<path opacity="0.3" d="M598.559 301.632H402.445V302.928H598.559V301.632Z" fill="#3F3D56"/>
<path opacity="0.3" d="M633.889 339.183L615.074 325.203L630.51 308.164L649.325 322.143L633.889 339.183ZM617.089 325.024L633.689 337.359L647.309 322.323L630.708 309.988L617.089 325.024Z" fill="#3F3D56"/>
<path opacity="0.3" d="M361.302 34.4023L343.593 21.2449L329.067 37.283L346.774 50.4404L361.302 34.4023Z" fill="#82AC85"/>
<path opacity="0.3" d="M252.853 141.51C252.885 159.795 246.464 177.612 234.529 192.36C233.17 194.045 231.745 195.692 230.249 197.281C226.025 201.79 221.299 205.897 216.149 209.533C215.634 209.897 215.111 210.258 214.581 210.616C212.649 211.924 210.661 213.167 208.62 214.342C207.997 214.7 207.374 215.05 206.745 215.387C205.319 216.172 203.869 216.919 202.393 217.63C201.669 217.979 200.939 218.323 200.21 218.654C185.207 225.433 168.494 228.507 151.762 227.562C135.028 226.619 118.866 221.693 104.907 213.28C104.163 212.84 103.433 212.385 102.71 211.919C101.35 211.05 100.012 210.143 98.709 209.208C97.5065 208.353 96.3327 207.465 95.1804 206.558C89.1134 201.78 83.7384 196.326 79.1833 190.324C78.2959 189.152 77.4369 187.959 76.6067 186.746C68.8861 175.398 64.1755 162.583 62.8451 149.308C61.5147 136.033 63.6008 122.659 68.9393 110.237C74.2779 97.8154 82.7235 86.6838 93.6129 77.7168C104.502 68.7497 117.538 62.1916 131.699 58.5573C145.858 54.923 160.756 54.3116 175.221 56.7711C189.684 59.2308 203.322 64.6943 215.062 72.7326C226.802 80.7709 236.324 91.1652 242.882 103.099C249.44 115.032 252.853 128.18 252.853 141.51Z" fill="#3F3D56"/>
<path opacity="0.3" d="M154.073 137.256C168.397 137.256 180.008 126.739 180.008 113.767C180.008 100.794 168.397 90.2773 154.073 90.2773C139.75 90.2773 128.138 100.794 128.138 113.767C128.138 126.739 139.75 137.256 154.073 137.256Z" fill="#A0616A"/>
<path opacity="0.3" d="M136.242 125.022C136.242 125.022 144.889 142.639 133.001 149.491C121.114 156.341 152.452 184.724 152.452 184.724L187.031 151.447C187.031 151.447 168.661 140.682 171.903 123.065L136.242 125.022Z" fill="#A0616A"/>
<path opacity="0.3" d="M216.149 209.533C215.634 209.897 215.111 210.26 214.581 210.616C212.649 211.926 210.661 213.167 208.618 214.342C207.997 214.7 207.374 215.05 206.745 215.387L206.479 214.084L208.97 212.91L216.149 209.533Z" fill="#A0616A"/>
<path opacity="0.3" d="M206.745 215.387C207.374 215.05 207.997 214.7 208.62 214.342L208.641 214.084L208.97 212.91L222.692 164.173L181.098 146.838L156.777 160.258L134.99 148.09C134.99 148.09 122.192 148.511 118.95 151.447C116.409 153.75 103.948 159.046 98.6515 161.237C97.1771 161.846 96.261 162.216 96.261 162.216C96.261 162.216 97.077 184.426 98.7089 209.208C100.012 210.143 101.35 211.05 102.71 211.919C103.433 212.385 104.163 212.84 104.907 213.28C118.864 221.693 135.028 226.619 151.762 227.562C168.494 228.507 185.207 225.433 200.21 218.654L206.745 215.387Z" fill="#82AC85"/>
<path opacity="0.3" d="M104.907 161.237V213.28C104.163 212.84 103.433 212.385 102.71 211.919C101.35 211.05 100.011 210.143 98.7087 209.208C97.5062 208.353 96.3325 207.465 95.1801 206.558C89.1133 201.78 83.7382 196.326 79.1832 190.324C78.2956 189.152 77.4367 187.959 76.6064 186.746C77.3078 184.658 78.0951 182.354 78.9685 179.829C84.3723 164.173 96.2608 161.237 96.2608 161.237H104.907Z" fill="#82AC85"/>
<path opacity="0.3" d="M206.745 215.387C207.374 215.05 207.997 214.7 208.62 214.342C210.659 213.17 212.647 211.927 214.581 210.616C215.111 210.258 215.634 209.897 216.149 209.533C221.299 205.897 226.025 201.79 230.249 197.281C231.745 195.692 233.17 194.045 234.528 192.36C230.127 179.901 222.692 164.173 222.692 164.173L207.56 163.194C207.56 163.194 201.418 207.718 200.209 218.654L206.745 215.387Z" fill="#82AC85"/>
<path opacity="0.3" d="M138.171 86.5788C136.875 87.5791 135.52 88.5174 134.116 89.3902C132.343 90.7217 130.707 92.1941 129.225 93.7901L127.552 95.4857C126.129 96.9289 124.618 98.5758 124.679 100.51C124.702 101.227 124.945 101.924 125.04 102.636C125.418 105.464 123.51 108.571 125.082 111.038C125.536 111.752 126.237 112.309 126.739 112.997C127.376 113.878 127.657 114.931 127.537 115.978C129.225 116.041 130.61 114.671 131.138 113.218C131.668 111.765 131.596 110.196 131.855 108.684C132.113 107.172 132.837 105.571 134.353 104.897C137.59 103.461 141.307 107.195 144.761 106.265C147.173 105.615 148.446 102.907 150.911 102.453C152.676 102.128 154.375 103.078 156.017 103.751C157.657 104.424 159.868 104.736 161.028 103.488C161.795 102.661 161.879 101.338 162.898 100.776C164.118 100.103 165.647 101.04 166.571 102.027C167.496 103.014 168.517 104.222 169.946 104.186C171.84 104.138 173.292 101.852 175.092 102.394C177.121 103.006 176.188 105.949 177.419 107.534C178.461 108.874 180.642 108.795 182.434 108.574C182.736 108.601 183.042 108.559 183.322 108.451C183.601 108.343 183.846 108.172 184.032 107.955C184.219 107.738 184.342 107.482 184.39 107.21C184.437 106.938 184.409 106.66 184.304 106.401L183.555 97.4084C183.554 96.7884 183.403 96.1766 183.116 95.6136C182.596 94.7582 181.516 94.325 180.783 93.609C179.238 92.1039 179.312 89.4651 177.393 88.3706C176.397 87.8023 175.094 87.8193 174.103 87.2409C172.834 86.4993 172.426 85.0138 171.538 83.9079C170.267 82.3269 168.045 81.5939 165.896 81.3929C163.749 81.1917 161.581 81.4344 159.424 81.3705C155.036 81.2409 150.648 80.1225 146.24 80.7772C142.392 81.3485 140.776 84.3048 138.171 86.5788Z" fill="#2F2E41"/>
<path opacity="0.3" d="M649.397 82.133C651.05 82.133 652.392 80.9181 652.392 79.4193C652.392 77.9204 651.05 76.7054 649.397 76.7054C647.742 76.7054 646.4 77.9204 646.4 79.4193C646.4 80.9181 647.742 82.133 649.397 82.133Z" fill="#3F3D56"/>
<path opacity="0.3" d="M628.64 49.0714C630.294 49.0714 631.635 47.8565 631.635 46.3575C631.635 44.8588 630.294 43.6439 628.64 43.6439C626.985 43.6439 625.644 44.8588 625.644 46.3575C625.644 47.8565 626.985 49.0714 628.64 49.0714Z" fill="#3F3D56"/>
<path opacity="0.3" d="M620.051 13.4168C621.706 13.4168 623.046 12.2017 623.046 10.7029C623.046 9.20418 621.706 7.98907 620.051 7.98907C618.396 7.98907 617.054 9.20418 617.054 10.7029C617.054 12.2017 618.396 13.4168 620.051 13.4168Z" fill="#3F3D56"/>
<line x1="625" y1="425.5" x2="629" y2="425.5" stroke="black"/>
</svg>
