<svg width="43" height="36" viewBox="0 0 43 36" fill="none" xmlns="http://www.w3.org/2000/svg">
<path d="M42.5161 33.6388L33.5902 26.166C36.7423 23.0232 38.3237 18.983 38.0044 14.888C37.6851 10.7929 35.4899 6.95908 31.8764 4.18601C28.263 1.41295 23.5104 -0.085282 18.6097 0.00375258C13.7089 0.0927871 9.03844 1.76222 5.57213 4.6639C2.10581 7.56559 0.111302 11.4755 0.00451897 15.5783C-0.102264 19.6811 1.68693 23.6601 4.99898 26.6854C8.31103 29.7108 12.8902 31.5489 17.7817 31.8166C22.6731 32.0842 27.4992 30.7607 31.2535 28.1221L40.1796 35.5949C40.4894 35.8543 40.9097 36 41.3479 36C41.786 36 42.2063 35.8543 42.5161 35.5949C42.8259 35.3355 43 34.9837 43 34.6168C43 34.25 42.8259 33.8982 42.5161 33.6388ZM3.35059 15.9446C3.35059 13.3458 4.27108 10.8054 5.99568 8.64457C7.72027 6.48377 10.1715 4.79963 13.0394 3.80512C15.9073 2.81061 19.063 2.5504 22.1076 3.0574C25.1521 3.5644 27.9487 4.81582 30.1437 6.65343C32.3387 8.49104 33.8335 10.8323 34.4391 13.3811C35.0447 15.93 34.7339 18.5719 33.5459 20.9729C32.358 23.3738 30.3463 25.426 27.7653 26.8698C25.1843 28.3136 22.1498 29.0842 19.0456 29.0842C14.8845 29.0803 10.8951 27.6946 7.95275 25.2313C5.01038 22.768 3.35529 19.4282 3.35059 15.9446Z" fill="#C4C4C4"/>
</svg>
