<svg width="38" height="34" viewBox="0 0 38 34" fill="none" xmlns="http://www.w3.org/2000/svg">
<path d="M18.9247 0C16.3441 0 14.328 0.893849 12.8763 2.68155C11.4247 4.46925 10.6989 6.75446 10.6989 9.5372C10.681 12.9945 11.8638 15.7351 14.2473 17.7589C14.552 18.0288 14.6595 18.3745 14.5699 18.7961L13.9516 20.0104C13.7545 20.4152 13.4633 20.7314 13.078 20.9591C12.6927 21.1868 11.8817 21.5114 10.6452 21.933C10.5914 21.9499 9.45788 22.2956 7.24462 22.9702C5.03136 23.6448 3.85305 24.0159 3.70968 24.0833C2.2043 24.6736 1.21864 25.2892 0.752688 25.9301C0.250896 26.9926 0 29.6825 0 34H37.8495C37.8495 29.6825 37.5986 26.9926 37.0968 25.9301C36.6308 25.2892 35.6452 24.6736 34.1398 24.0833C33.9964 24.0159 32.8181 23.6448 30.6048 22.9702C28.3916 22.2956 27.2581 21.9499 27.2043 21.933C25.9677 21.5114 25.1568 21.1868 24.7715 20.9591C24.3862 20.7314 24.095 20.4152 23.8978 20.0104L23.2796 18.7961C23.19 18.3745 23.2975 18.0288 23.6021 17.7589C25.9857 15.7351 27.1685 12.9945 27.1505 9.5372C27.1505 6.75446 26.4247 4.46925 24.9731 2.68155C23.5215 0.893849 21.5054 0 18.9247 0Z" fill="#4D4D4D"/>
</svg>
