<svg width="126" height="34" viewBox="0 0 126 34" fill="none" xmlns="http://www.w3.org/2000/svg">
<g clip-path="url(#clip0)">
<path d="M17.8861 0.940918C8.51708 0.940918 0.893433 7.94457 0.893433 16.555C0.893433 25.1654 8.51708 32.1691 17.8861 32.1691C27.2551 32.1691 34.8787 25.1654 34.8787 16.555C34.8787 7.94457 27.2551 0.940918 17.8861 0.940918ZM17.8861 31.1291C9.14125 31.1291 2.02734 24.5909 2.02734 16.555C2.02734 8.51911 9.14125 1.98095 17.8861 1.98095C26.6309 1.98095 33.7448 8.51911 33.7448 16.555C33.7448 24.5909 26.6309 31.1291 17.8861 31.1291Z" fill="white"/>
<path d="M21.5952 7.79095H18.7679C15.1669 7.75784 14.707 9.80576 14.707 12.0222V13.6338H13.1174C13.0456 13.625 12.9724 13.6315 12.9038 13.6529C12.8351 13.6742 12.7728 13.7099 12.7215 13.7569C12.6703 13.804 12.6315 13.8614 12.6083 13.9244C12.585 13.9875 12.5779 14.0547 12.5876 14.1207V17.0422C12.5779 17.1082 12.585 17.1754 12.6083 17.2385C12.6315 17.3016 12.6703 17.3588 12.7215 17.406C12.7728 17.4531 12.8351 17.4886 12.9038 17.51C12.9724 17.5314 13.0456 17.5379 13.1174 17.5291H14.707V24.8326C14.6982 24.8988 14.7059 24.966 14.7296 25.0289C14.7533 25.0919 14.7924 25.149 14.8438 25.196C14.8952 25.243 14.9577 25.2786 15.0264 25.3C15.0951 25.3214 15.1681 25.328 15.24 25.3195H18.4775C18.7901 25.3527 19.0434 25.1199 18.9438 24.8326L18.9459 17.5291H21.5952C21.667 17.5379 21.7402 17.5314 21.8088 17.51C21.8774 17.4886 21.9398 17.4531 21.9911 17.406C22.0423 17.3588 22.0811 17.3016 22.1043 17.2385C22.1276 17.1754 22.1347 17.1082 22.125 17.0422V14.1207C22.1347 14.0547 22.1276 13.9875 22.1043 13.9244C22.0811 13.8614 22.0423 13.804 21.9911 13.7569C21.9398 13.7099 21.8774 13.6742 21.8088 13.6529C21.7402 13.6315 21.667 13.625 21.5952 13.6338H18.9427L18.9459 12.1731C19.0487 11.5508 19.0487 11.6521 19.6771 11.6862H21.5729C21.7202 11.656 21.8771 11.6726 21.9873 11.5742C22.0975 11.4758 22.1611 11.3415 22.124 11.1993V8.27786C22.1337 8.21189 22.1269 8.14474 22.1037 8.08164C22.0806 8.01853 22.042 7.96118 21.9908 7.91405C21.9396 7.86693 21.8773 7.8313 21.8087 7.80995C21.7401 7.7886 21.667 7.78209 21.5952 7.79095Z" fill="white"/>
<path d="M62.3944 0.940918C53.0254 0.940918 45.4018 7.94457 45.4018 16.555C45.4018 25.1654 53.0254 32.1691 62.3944 32.1691C71.7634 32.1691 79.3871 25.1654 79.3871 16.555C79.3871 7.94457 71.7634 0.940918 62.3944 0.940918ZM62.3944 31.1291C53.6496 31.1291 46.5357 24.5909 46.5357 16.555C46.5357 8.51911 53.6496 1.98095 62.3944 1.98095C71.1393 1.98095 78.2532 8.51911 78.2532 16.555C78.2532 24.5909 71.1393 31.1291 62.3944 31.1291Z" fill="white"/>
<path d="M71.7137 11.7305C71.8312 11.5306 71.928 11.3209 72.003 11.1044C72.0376 11.0039 72.0384 10.8962 72.005 10.7953C71.9716 10.6945 71.9058 10.6053 71.816 10.5395C71.7264 10.4738 71.6172 10.4347 71.5028 10.4272C71.3883 10.4197 71.2742 10.4443 71.1753 10.4977C70.6323 10.7941 70.0445 11.015 69.431 11.153C68.6864 10.5355 67.7191 10.1931 66.716 10.1919C66.171 10.1923 65.6317 10.2938 65.1305 10.4904C64.6292 10.6869 64.1763 10.9745 63.7988 11.3357C63.4213 11.697 63.1273 12.1246 62.934 12.5928C62.7408 13.0611 62.6524 13.5604 62.6742 14.0608C60.2909 13.7852 58.1146 12.677 56.5967 10.9661C56.5385 10.9012 56.4643 10.8503 56.38 10.8176C56.2959 10.7848 56.2043 10.7711 56.1132 10.7778C56.0221 10.7846 55.9341 10.8113 55.8566 10.8559C55.7792 10.9006 55.7146 10.9618 55.6684 11.0342C55.3208 11.5824 55.1319 12.2033 55.1197 12.8376C55.1074 13.472 55.2723 14.0986 55.5985 14.6578C55.5185 14.6702 55.4416 14.696 55.3717 14.7338C55.286 14.784 55.2155 14.8532 55.1665 14.935C55.1177 15.0169 55.092 15.1088 55.0919 15.2022C55.0919 16.3074 55.6271 17.3221 56.4897 18.0116L56.4526 18.0457C56.3874 18.1134 56.3427 18.1956 56.3226 18.284C56.3026 18.3724 56.3078 18.4641 56.3382 18.5501C56.518 19.0658 56.8183 19.5391 57.2181 19.9369C57.6179 20.3347 58.1075 20.6474 58.6526 20.8532C57.5331 21.355 56.2802 21.5507 55.0432 21.417C54.916 21.4051 54.7881 21.4323 54.6796 21.4943C54.5711 21.5564 54.488 21.6498 54.4434 21.7598C54.4006 21.8707 54.3997 21.9917 54.441 22.103C54.4825 22.2144 54.5635 22.3096 54.6712 22.3733C56.353 23.3652 58.3094 23.8922 60.3079 23.8915C66.857 23.8915 70.7716 19.0029 70.7716 14.277L70.7705 14.1173C71.4052 13.662 71.9565 13.1163 72.4035 12.5008C72.4713 12.4078 72.5045 12.2972 72.4985 12.1854C72.4925 12.0736 72.4474 11.9666 72.3699 11.8802C72.2926 11.7937 72.1869 11.7326 72.0688 11.7056C71.9505 11.6786 71.826 11.6874 71.7137 11.7305Z" fill="white"/>
<path d="M107.963 0.973633C98.614 0.973633 91.007 7.96243 91.007 16.5546C91.007 25.1468 98.614 32.1356 107.963 32.1356C117.311 32.1356 124.918 25.1468 124.918 16.5546C124.918 7.96243 117.311 0.973633 107.963 0.973633ZM107.963 31.0978C99.2368 31.0978 92.1384 24.5735 92.1384 16.5546C92.1384 8.53576 99.2368 2.01146 107.963 2.01146C116.688 2.01146 123.786 8.53576 123.786 16.5546C123.786 24.5735 116.688 31.0978 107.963 31.0978Z" fill="white"/>
<path d="M113.261 13.6332C113.846 13.6332 114.321 13.1972 114.321 12.6594C114.321 12.1215 113.846 11.6855 113.261 11.6855C112.676 11.6855 112.201 12.1215 112.201 12.6594C112.201 13.1972 112.676 13.6332 113.261 13.6332Z" fill="white"/>
<path d="M108.492 12.6597C107.549 12.6597 106.627 12.9167 105.843 13.3982C105.059 13.8798 104.448 14.5642 104.087 15.3648C103.726 16.1656 103.631 17.0467 103.815 17.8967C103.999 18.7468 104.453 19.5276 105.12 20.1405C105.787 20.7533 106.637 21.1707 107.562 21.3397C108.487 21.5089 109.446 21.4221 110.317 21.0904C111.188 20.7588 111.933 20.1971 112.458 19.4764C112.981 18.7557 113.261 17.9085 113.261 17.0418C113.261 15.8796 112.759 14.765 111.864 13.9432C110.97 13.1214 109.757 12.6597 108.492 12.6597ZM108.492 19.8864C107.88 19.8864 107.281 19.7196 106.773 19.407C106.263 19.0945 105.867 18.6502 105.632 18.1304C105.398 17.6106 105.337 17.0387 105.456 16.4868C105.576 15.9351 105.871 15.4282 106.304 15.0303C106.736 14.6325 107.287 14.3616 107.888 14.2518C108.489 14.1421 109.111 14.1984 109.677 14.4137C110.243 14.629 110.726 14.9936 111.066 15.4614C111.407 15.9292 111.588 16.4792 111.588 17.0418C111.588 17.7962 111.261 18.5198 110.682 19.0532C110.101 19.5868 109.314 19.8864 108.492 19.8864Z" fill="white"/>
<path d="M108.492 10.1677C110.614 10.1677 110.866 10.1755 111.704 10.2132C112.208 10.219 112.707 10.3098 113.18 10.4813C113.523 10.611 113.833 10.8096 114.094 11.0642C114.354 11.319 114.556 11.6241 114.689 11.9602C114.863 12.4235 114.956 12.9127 114.962 13.4066C115 14.2279 115.009 14.4746 115.009 16.5553C115.009 18.636 115 18.8814 114.962 19.7027C114.956 20.1966 114.863 20.6858 114.689 21.1491C114.556 21.4852 114.354 21.7903 114.094 22.0451C113.833 22.2997 113.523 22.4983 113.18 22.628C112.707 22.7995 112.208 22.8903 111.704 22.8961C110.866 22.9338 110.614 22.9416 108.492 22.9416C106.37 22.9416 106.119 22.9338 105.281 22.8961C104.777 22.8903 104.278 22.7995 103.805 22.628C103.462 22.4983 103.151 22.2997 102.891 22.0451C102.631 21.7903 102.429 21.4852 102.296 21.1491C102.121 20.6858 102.029 20.1966 102.023 19.7027C101.984 18.8814 101.976 18.6347 101.976 16.5546C101.976 14.4746 101.984 14.2279 102.023 13.4066C102.029 12.9127 102.121 12.4235 102.296 11.9602C102.429 11.6241 102.631 11.319 102.891 11.0642C103.151 10.8096 103.462 10.611 103.805 10.4813C104.278 10.3098 104.777 10.219 105.281 10.2132C106.119 10.1755 106.37 10.1677 108.492 10.1677ZM108.492 8.76416C106.334 8.76416 106.063 8.77325 105.215 8.8109C104.556 8.82395 103.904 8.94644 103.286 9.17316C102.758 9.37331 102.279 9.6794 101.879 10.0718C101.478 10.4642 101.166 10.9343 100.962 11.4519C100.73 12.0572 100.605 12.6967 100.592 13.343C100.554 14.174 100.544 14.4383 100.544 16.5546C100.544 18.671 100.554 18.9359 100.592 19.767C100.605 20.4131 100.73 21.0523 100.962 21.6574C101.166 22.175 101.478 22.6451 101.879 23.0375C102.279 23.4299 102.758 23.736 103.286 23.9361C103.904 24.1629 104.556 24.2854 105.216 24.2984C106.064 24.3361 106.334 24.3451 108.492 24.3451C110.651 24.3451 110.921 24.3361 111.769 24.2984C112.429 24.2854 113.081 24.1629 113.699 23.9361C114.227 23.736 114.707 23.4299 115.107 23.0375C115.508 22.6451 115.819 22.175 116.024 21.6574C116.255 21.052 116.38 20.4126 116.393 19.7663C116.431 18.9353 116.44 18.671 116.44 16.5546C116.44 14.4383 116.431 14.1734 116.393 13.3423C116.379 12.6962 116.255 12.057 116.023 11.4519C115.819 10.9343 115.507 10.4642 115.106 10.0718C114.706 9.6794 114.227 9.37331 113.699 9.17316C113.081 8.94658 112.428 8.82432 111.769 8.81156C110.921 8.7726 110.651 8.76416 108.492 8.76416Z" fill="white"/>
</g>
<defs>
<clipPath id="clip0">
<rect width="125.047" height="33.1096" fill="white" transform="translate(0.930542)"/>
</clipPath>
</defs>
</svg>
