<svg width="49" height="35" viewBox="0 0 49 35" fill="none" xmlns="http://www.w3.org/2000/svg">
<rect width="49" height="35" rx="2" fill="#4F4F4F"/>
<path d="M14.3594 20.3379C14.3594 19.7389 14.1478 19.2344 13.7246 18.8242C13.3079 18.4141 12.6016 18.043 11.6055 17.7109C10.2188 17.2878 9.20638 16.7376 8.56836 16.0605C7.93685 15.377 7.62109 14.5111 7.62109 13.4629C7.62109 12.3952 7.93034 11.5195 8.54883 10.8359C9.17383 10.1523 10.0299 9.74544 11.1172 9.61523V7.47656H12.5723V9.625C13.666 9.77474 14.5156 10.2337 15.1211 11.002C15.7331 11.7702 16.0391 12.8216 16.0391 14.1562H14.2422C14.2422 13.2383 14.0241 12.5091 13.5879 11.9688C13.1517 11.4284 12.5625 11.1582 11.8203 11.1582C11.0456 11.1582 10.4531 11.36 10.043 11.7637C9.63281 12.1608 9.42773 12.7174 9.42773 13.4336C9.42773 14.0977 9.64258 14.6283 10.0723 15.0254C10.5085 15.416 11.2214 15.7741 12.2109 16.0996C13.207 16.4186 13.9818 16.7734 14.5352 17.1641C15.0951 17.5482 15.5052 17.9974 15.7656 18.5117C16.0326 19.026 16.166 19.6283 16.166 20.3184C16.166 21.4186 15.834 22.304 15.1699 22.9746C14.5124 23.6452 13.5879 24.0423 12.3965 24.166V26.0312H10.9512V24.166C9.74023 24.0553 8.78971 23.6257 8.09961 22.877C7.41602 22.1217 7.07422 21.0996 7.07422 19.8105H8.88086C8.88086 20.7155 9.11849 21.4121 9.59375 21.9004C10.069 22.3887 10.7428 22.6328 11.6152 22.6328C12.4681 22.6328 13.1387 22.4277 13.627 22.0176C14.1152 21.6074 14.3594 21.0475 14.3594 20.3379Z" fill="white"/>
<rect x="23" y="13" width="23" height="3" rx="1.5" fill="white"/>
<rect x="22" y="20" width="12" height="3" rx="1.5" fill="white"/>
<rect x="37" y="20" width="9" height="3" rx="1.5" fill="white"/>
</svg>
