<svg width="51" height="41" viewBox="0 0 51 41" fill="none" xmlns="http://www.w3.org/2000/svg">
<circle cx="17.5" cy="10.5" r="10.5" fill="#4F4F4F"/>
<path d="M0 34C0 27.3726 5.37258 22 12 22H23C29.6274 22 35 27.3726 35 34V36C35 38.7614 32.7614 41 30 41H5C2.23858 41 0 38.7614 0 36V34Z" fill="#4F4F4F"/>
<path d="M29.6798 18.492C29.3044 18.087 29.3283 17.4543 29.7334 17.0789L32.6662 14.3603C33.0712 13.9848 33.7039 14.0088 34.0794 14.4138L41.0938 21.9809L36.6942 26.0592L29.6798 18.492Z" fill="#4F4F4F"/>
<path d="M45.5892 9.67749C45.9954 9.30332 46.628 9.32931 47.0022 9.73554L49.7115 12.6769C50.0856 13.0832 50.0596 13.7158 49.6534 14.09L39.594 23.3555L36.2072 19.6785C35.8331 19.2723 35.8591 18.6397 36.2653 18.2655L45.5892 9.67749Z" fill="#4F4F4F"/>
</svg>
