<svg width="681" height="26" viewBox="0 0 681 26" fill="none" xmlns="http://www.w3.org/2000/svg">
<path d="M2.76074 20H0.323242V1.51562H2.76074V20ZM9.08301 6.26367L9.15918 7.99023C10.2087 6.66992 11.5798 6.00977 13.2725 6.00977C16.1755 6.00977 17.6396 7.64746 17.665 10.9229V20H15.3164V10.9102C15.3079 9.91992 15.0794 9.18783 14.6309 8.71387C14.1908 8.23991 13.501 8.00293 12.5615 8.00293C11.7998 8.00293 11.1312 8.20605 10.5557 8.6123C9.98014 9.01855 9.53158 9.55176 9.20996 10.2119V20H6.86133V6.26367H9.08301ZM20.6484 13.0176C20.6484 10.8763 21.1436 9.17513 22.1338 7.91406C23.124 6.64453 24.4359 6.00977 26.0693 6.00977C27.7451 6.00977 29.0527 6.60221 29.9922 7.78711L30.1064 6.26367H32.252V19.6699C32.252 21.4473 31.723 22.848 30.665 23.8721C29.6156 24.8962 28.2021 25.4082 26.4248 25.4082C25.4346 25.4082 24.4655 25.1966 23.5176 24.7734C22.5697 24.3503 21.846 23.7705 21.3467 23.0342L22.5654 21.625C23.5726 22.8691 24.804 23.4912 26.2598 23.4912C27.4023 23.4912 28.291 23.1696 28.9258 22.5264C29.569 21.8831 29.8906 20.9775 29.8906 19.8096V18.6289C28.9512 19.7122 27.6689 20.2539 26.0439 20.2539C24.4359 20.2539 23.1325 19.6064 22.1338 18.3115C21.1436 17.0166 20.6484 15.252 20.6484 13.0176ZM23.0098 13.2842C23.0098 14.833 23.3271 16.0518 23.9619 16.9404C24.5967 17.8206 25.4854 18.2607 26.6279 18.2607C28.109 18.2607 29.1966 17.5879 29.8906 16.2422V9.9707C29.1712 8.65885 28.0921 8.00293 26.6533 8.00293C25.5107 8.00293 24.6178 8.44727 23.9746 9.33594C23.3314 10.2246 23.0098 11.5407 23.0098 13.2842ZM42.4463 8.37109C42.0908 8.31185 41.7057 8.28223 41.291 8.28223C39.7507 8.28223 38.7054 8.93815 38.1553 10.25V20H35.8066V6.26367H38.0918L38.1299 7.85059C38.9001 6.62337 39.9919 6.00977 41.4053 6.00977C41.8623 6.00977 42.2093 6.06901 42.4463 6.1875V8.37109ZM50.0635 20.2539C48.2015 20.2539 46.6865 19.6445 45.5186 18.4258C44.3506 17.1986 43.7666 15.5609 43.7666 13.5127V13.0811C43.7666 11.7184 44.0247 10.5039 44.541 9.4375C45.0658 8.36263 45.7936 7.52474 46.7246 6.92383C47.6641 6.31445 48.6797 6.00977 49.7715 6.00977C51.5573 6.00977 52.9453 6.59798 53.9355 7.77441C54.9258 8.95085 55.4209 10.6351 55.4209 12.8271V13.8047H46.1152C46.1491 15.1589 46.5426 16.2549 47.2959 17.0928C48.0576 17.9222 49.0225 18.3369 50.1904 18.3369C51.0199 18.3369 51.7223 18.1676 52.2979 17.8291C52.8734 17.4906 53.377 17.042 53.8086 16.4834L55.2432 17.6006C54.0921 19.3695 52.3656 20.2539 50.0635 20.2539ZM49.7715 7.93945C48.8236 7.93945 48.028 8.28646 47.3848 8.98047C46.7415 9.66602 46.3438 10.6309 46.1914 11.875H53.0723V11.6973C53.0046 10.5039 52.6829 9.58138 52.1074 8.92969C51.5319 8.26953 50.7533 7.93945 49.7715 7.93945ZM66.1484 16.3564C66.1484 15.7217 65.9072 15.2308 65.4248 14.8838C64.9508 14.5283 64.1172 14.2236 62.9238 13.9697C61.7389 13.7158 60.7952 13.4111 60.0928 13.0557C59.3988 12.7002 58.8825 12.277 58.5439 11.7861C58.2139 11.2952 58.0488 10.7113 58.0488 10.0342C58.0488 8.90853 58.5228 7.95638 59.4707 7.17773C60.4271 6.39909 61.6458 6.00977 63.127 6.00977C64.6842 6.00977 65.9453 6.41178 66.9102 7.21582C67.8835 8.01986 68.3701 9.04818 68.3701 10.3008H66.0088C66.0088 9.65755 65.7337 9.10319 65.1836 8.6377C64.6419 8.1722 63.9564 7.93945 63.127 7.93945C62.2721 7.93945 61.6035 8.12565 61.1211 8.49805C60.6387 8.87044 60.3975 9.3571 60.3975 9.95801C60.3975 10.5251 60.6217 10.9525 61.0703 11.2402C61.5189 11.528 62.3271 11.8031 63.4951 12.0654C64.6715 12.3278 65.6237 12.641 66.3516 13.0049C67.0794 13.3688 67.6169 13.8089 67.9639 14.3252C68.3193 14.833 68.4971 15.4551 68.4971 16.1914C68.4971 17.4186 68.0062 18.4046 67.0244 19.1494C66.0426 19.8857 64.7689 20.2539 63.2031 20.2539C62.1029 20.2539 61.1296 20.0592 60.2832 19.6699C59.4368 19.2806 58.7725 18.7389 58.29 18.0449C57.8161 17.3424 57.5791 16.585 57.5791 15.7725H59.9277C59.9701 16.5596 60.2832 17.1859 60.8672 17.6514C61.4596 18.1084 62.2383 18.3369 63.2031 18.3369C64.0918 18.3369 64.8027 18.1592 65.3359 17.8037C65.8776 17.4398 66.1484 16.9574 66.1484 16.3564ZM77.2568 20.2539C75.3949 20.2539 73.8799 19.6445 72.7119 18.4258C71.5439 17.1986 70.96 15.5609 70.96 13.5127V13.0811C70.96 11.7184 71.2181 10.5039 71.7344 9.4375C72.2591 8.36263 72.987 7.52474 73.918 6.92383C74.8574 6.31445 75.873 6.00977 76.9648 6.00977C78.7507 6.00977 80.1387 6.59798 81.1289 7.77441C82.1191 8.95085 82.6143 10.6351 82.6143 12.8271V13.8047H73.3086C73.3424 15.1589 73.736 16.2549 74.4893 17.0928C75.251 17.9222 76.2158 18.3369 77.3838 18.3369C78.2132 18.3369 78.9157 18.1676 79.4912 17.8291C80.0667 17.4906 80.5703 17.042 81.002 16.4834L82.4365 17.6006C81.2855 19.3695 79.5589 20.2539 77.2568 20.2539ZM76.9648 7.93945C76.0169 7.93945 75.2214 8.28646 74.5781 8.98047C73.9349 9.66602 73.5371 10.6309 73.3848 11.875H80.2656V11.6973C80.1979 10.5039 79.8763 9.58138 79.3008 8.92969C78.7253 8.26953 77.9466 7.93945 76.9648 7.93945ZM94.3447 20H91.9961V0.5H94.3447V20ZM97.4932 13.0049C97.4932 11.6592 97.7555 10.4489 98.2803 9.37402C98.8135 8.29915 99.5498 7.46973 100.489 6.88574C101.437 6.30176 102.516 6.00977 103.727 6.00977C105.597 6.00977 107.108 6.65723 108.259 7.95215C109.418 9.24707 109.998 10.9694 109.998 13.1191V13.2842C109.998 14.6214 109.74 15.8232 109.224 16.8896C108.716 17.9476 107.984 18.7728 107.027 19.3652C106.079 19.9577 104.988 20.2539 103.752 20.2539C101.89 20.2539 100.379 19.6064 99.2197 18.3115C98.0687 17.0166 97.4932 15.3027 97.4932 13.1699V13.0049ZM99.8545 13.2842C99.8545 14.8076 100.206 16.0306 100.908 16.9531C101.619 17.8757 102.567 18.3369 103.752 18.3369C104.945 18.3369 105.893 17.8714 106.596 16.9404C107.298 16.001 107.649 14.6891 107.649 13.0049C107.649 11.4984 107.29 10.2796 106.57 9.34863C105.859 8.40918 104.911 7.93945 103.727 7.93945C102.567 7.93945 101.632 8.40072 100.921 9.32324C100.21 10.2458 99.8545 11.5661 99.8545 13.2842ZM120.941 16.3564C120.941 15.7217 120.7 15.2308 120.218 14.8838C119.744 14.5283 118.91 14.2236 117.717 13.9697C116.532 13.7158 115.588 13.4111 114.886 13.0557C114.192 12.7002 113.675 12.277 113.337 11.7861C113.007 11.2952 112.842 10.7113 112.842 10.0342C112.842 8.90853 113.316 7.95638 114.264 7.17773C115.22 6.39909 116.439 6.00977 117.92 6.00977C119.477 6.00977 120.738 6.41178 121.703 7.21582C122.676 8.01986 123.163 9.04818 123.163 10.3008H120.802C120.802 9.65755 120.527 9.10319 119.977 8.6377C119.435 8.1722 118.749 7.93945 117.92 7.93945C117.065 7.93945 116.396 8.12565 115.914 8.49805C115.432 8.87044 115.19 9.3571 115.19 9.95801C115.19 10.5251 115.415 10.9525 115.863 11.2402C116.312 11.528 117.12 11.8031 118.288 12.0654C119.465 12.3278 120.417 12.641 121.145 13.0049C121.872 13.3688 122.41 13.8089 122.757 14.3252C123.112 14.833 123.29 15.4551 123.29 16.1914C123.29 17.4186 122.799 18.4046 121.817 19.1494C120.836 19.8857 119.562 20.2539 117.996 20.2539C116.896 20.2539 115.923 20.0592 115.076 19.6699C114.23 19.2806 113.565 18.7389 113.083 18.0449C112.609 17.3424 112.372 16.585 112.372 15.7725H114.721C114.763 16.5596 115.076 17.1859 115.66 17.6514C116.253 18.1084 117.031 18.3369 117.996 18.3369C118.885 18.3369 119.596 18.1592 120.129 17.8037C120.671 17.4398 120.941 16.9574 120.941 16.3564ZM133.586 20V8.0791H131.415V6.26367H133.586V5.0957C133.586 3.5638 134.022 2.37044 134.894 1.51562C135.774 0.660807 137.014 0.233398 138.613 0.233398C139.561 0.233398 140.759 0.491536 142.206 1.00781L141.812 2.98828C140.755 2.5651 139.747 2.35352 138.791 2.35352C137.784 2.35352 137.056 2.58203 136.607 3.03906C136.167 3.48763 135.947 4.16471 135.947 5.07031V6.26367H138.753V8.0791H135.947V20H133.586ZM143.374 20H141.013V6.26367H143.374V20ZM149.747 20H147.398V0.5H149.747V20ZM156.704 2.9375V6.26367H159.269V8.0791H156.704V16.5977C156.704 17.1478 156.818 17.5625 157.047 17.8418C157.275 18.1126 157.665 18.248 158.215 18.248C158.486 18.248 158.858 18.1973 159.332 18.0957V20C158.714 20.1693 158.113 20.2539 157.529 20.2539C156.48 20.2539 155.688 19.9365 155.155 19.3018C154.622 18.667 154.355 17.7656 154.355 16.5977V8.0791H151.854V6.26367H154.355V2.9375H156.704ZM168.663 8.37109C168.308 8.31185 167.923 8.28223 167.508 8.28223C165.967 8.28223 164.922 8.93815 164.372 10.25V20H162.023V6.26367H164.309L164.347 7.85059C165.117 6.62337 166.209 6.00977 167.622 6.00977C168.079 6.00977 168.426 6.06901 168.663 6.1875V8.37109ZM169.958 13.0049C169.958 11.6592 170.22 10.4489 170.745 9.37402C171.278 8.29915 172.015 7.46973 172.954 6.88574C173.902 6.30176 174.981 6.00977 176.191 6.00977C178.062 6.00977 179.573 6.65723 180.724 7.95215C181.883 9.24707 182.463 10.9694 182.463 13.1191V13.2842C182.463 14.6214 182.205 15.8232 181.688 16.8896C181.181 17.9476 180.449 18.7728 179.492 19.3652C178.544 19.9577 177.452 20.2539 176.217 20.2539C174.355 20.2539 172.844 19.6064 171.685 18.3115C170.534 17.0166 169.958 15.3027 169.958 13.1699V13.0049ZM172.319 13.2842C172.319 14.8076 172.671 16.0306 173.373 16.9531C174.084 17.8757 175.032 18.3369 176.217 18.3369C177.41 18.3369 178.358 17.8714 179.061 16.9404C179.763 16.001 180.114 14.6891 180.114 13.0049C180.114 11.4984 179.755 10.2796 179.035 9.34863C178.324 8.40918 177.376 7.93945 176.191 7.93945C175.032 7.93945 174.097 8.40072 173.386 9.32324C172.675 10.2458 172.319 11.5661 172.319 13.2842ZM193.406 16.3564C193.406 15.7217 193.165 15.2308 192.683 14.8838C192.209 14.5283 191.375 14.2236 190.182 13.9697C188.997 13.7158 188.053 13.4111 187.351 13.0557C186.657 12.7002 186.14 12.277 185.802 11.7861C185.472 11.2952 185.307 10.7113 185.307 10.0342C185.307 8.90853 185.781 7.95638 186.729 7.17773C187.685 6.39909 188.904 6.00977 190.385 6.00977C191.942 6.00977 193.203 6.41178 194.168 7.21582C195.141 8.01986 195.628 9.04818 195.628 10.3008H193.267C193.267 9.65755 192.992 9.10319 192.441 8.6377C191.9 8.1722 191.214 7.93945 190.385 7.93945C189.53 7.93945 188.861 8.12565 188.379 8.49805C187.896 8.87044 187.655 9.3571 187.655 9.95801C187.655 10.5251 187.88 10.9525 188.328 11.2402C188.777 11.528 189.585 11.8031 190.753 12.0654C191.929 12.3278 192.882 12.641 193.609 13.0049C194.337 13.3688 194.875 13.8089 195.222 14.3252C195.577 14.833 195.755 15.4551 195.755 16.1914C195.755 17.4186 195.264 18.4046 194.282 19.1494C193.3 19.8857 192.027 20.2539 190.461 20.2539C189.361 20.2539 188.387 20.0592 187.541 19.6699C186.695 19.2806 186.03 18.7389 185.548 18.0449C185.074 17.3424 184.837 16.585 184.837 15.7725H187.186C187.228 16.5596 187.541 17.1859 188.125 17.6514C188.717 18.1084 189.496 18.3369 190.461 18.3369C191.35 18.3369 192.061 18.1592 192.594 17.8037C193.135 17.4398 193.406 16.9574 193.406 16.3564ZM216.867 13.2842C216.867 15.3747 216.389 17.0589 215.433 18.3369C214.476 19.6149 213.181 20.2539 211.548 20.2539C209.881 20.2539 208.569 19.7249 207.612 18.667V25.2812H205.264V6.26367H207.409L207.523 7.78711C208.48 6.60221 209.809 6.00977 211.51 6.00977C213.16 6.00977 214.464 6.63184 215.42 7.87598C216.385 9.12012 216.867 10.8509 216.867 13.0684V13.2842ZM214.519 13.0176C214.519 11.4688 214.188 10.2458 213.528 9.34863C212.868 8.4515 211.963 8.00293 210.812 8.00293C209.39 8.00293 208.323 8.63346 207.612 9.89453V16.458C208.315 17.7106 209.39 18.3369 210.837 18.3369C211.963 18.3369 212.855 17.8926 213.516 17.0039C214.184 16.1068 214.519 14.778 214.519 13.0176ZM228.344 20C228.208 19.7292 228.098 19.2467 228.014 18.5527C226.922 19.6868 225.618 20.2539 224.104 20.2539C222.749 20.2539 221.636 19.873 220.765 19.1113C219.901 18.3411 219.47 17.3678 219.47 16.1914C219.47 14.7611 220.011 13.6523 221.095 12.8652C222.187 12.0697 223.718 11.6719 225.69 11.6719H227.976V10.5928C227.976 9.77181 227.73 9.12012 227.239 8.6377C226.748 8.14681 226.025 7.90137 225.068 7.90137C224.23 7.90137 223.528 8.11296 222.961 8.53613C222.394 8.95931 222.11 9.47135 222.11 10.0723H219.749C219.749 9.38672 219.99 8.72656 220.473 8.0918C220.964 7.44857 221.624 6.94076 222.453 6.56836C223.291 6.19596 224.209 6.00977 225.208 6.00977C226.791 6.00977 228.031 6.40755 228.928 7.20312C229.825 7.99023 230.29 9.0778 230.324 10.4658V16.7881C230.324 18.0492 230.485 19.0521 230.807 19.7969V20H228.344ZM224.446 18.21C225.183 18.21 225.881 18.0195 226.541 17.6387C227.201 17.2578 227.679 16.7627 227.976 16.1533V13.335H226.135C223.257 13.335 221.818 14.1771 221.818 15.8613C221.818 16.5977 222.064 17.1732 222.555 17.5879C223.046 18.0026 223.676 18.21 224.446 18.21ZM240.646 8.37109C240.29 8.31185 239.905 8.28223 239.49 8.28223C237.95 8.28223 236.905 8.93815 236.354 10.25V20H234.006V6.26367H236.291L236.329 7.85059C237.099 6.62337 238.191 6.00977 239.604 6.00977C240.062 6.00977 240.409 6.06901 240.646 6.1875V8.37109ZM250.789 20C250.654 19.7292 250.544 19.2467 250.459 18.5527C249.367 19.6868 248.064 20.2539 246.549 20.2539C245.195 20.2539 244.082 19.873 243.21 19.1113C242.347 18.3411 241.915 17.3678 241.915 16.1914C241.915 14.7611 242.457 13.6523 243.54 12.8652C244.632 12.0697 246.164 11.6719 248.136 11.6719H250.421V10.5928C250.421 9.77181 250.175 9.12012 249.685 8.6377C249.194 8.14681 248.47 7.90137 247.514 7.90137C246.676 7.90137 245.973 8.11296 245.406 8.53613C244.839 8.95931 244.556 9.47135 244.556 10.0723H242.194C242.194 9.38672 242.436 8.72656 242.918 8.0918C243.409 7.44857 244.069 6.94076 244.898 6.56836C245.736 6.19596 246.655 6.00977 247.653 6.00977C249.236 6.00977 250.476 6.40755 251.373 7.20312C252.27 7.99023 252.736 9.0778 252.77 10.4658V16.7881C252.77 18.0492 252.93 19.0521 253.252 19.7969V20H250.789ZM246.892 18.21C247.628 18.21 248.326 18.0195 248.986 17.6387C249.646 17.2578 250.125 16.7627 250.421 16.1533V13.335H248.58C245.702 13.335 244.264 14.1771 244.264 15.8613C244.264 16.5977 244.509 17.1732 245 17.5879C245.491 18.0026 246.121 18.21 246.892 18.21ZM268.41 18.3369C269.248 18.3369 269.98 18.083 270.606 17.5752C271.233 17.0674 271.58 16.4326 271.647 15.6709H273.869C273.827 16.458 273.556 17.207 273.057 17.918C272.557 18.6289 271.889 19.196 271.051 19.6191C270.221 20.0423 269.341 20.2539 268.41 20.2539C266.54 20.2539 265.05 19.6318 263.941 18.3877C262.841 17.1351 262.291 15.4255 262.291 13.2588V12.8652C262.291 11.528 262.536 10.3389 263.027 9.29785C263.518 8.25684 264.221 7.44857 265.135 6.87305C266.057 6.29753 267.145 6.00977 268.397 6.00977C269.938 6.00977 271.216 6.47103 272.231 7.39355C273.256 8.31608 273.801 9.51367 273.869 10.9863H271.647C271.58 10.0977 271.241 9.36979 270.632 8.80273C270.031 8.22721 269.286 7.93945 268.397 7.93945C267.204 7.93945 266.277 8.37109 265.617 9.23438C264.965 10.0892 264.64 11.3291 264.64 12.9541V13.3984C264.64 14.9811 264.965 16.1999 265.617 17.0547C266.269 17.9095 267.2 18.3369 268.41 18.3369ZM275.888 13.0049C275.888 11.6592 276.15 10.4489 276.675 9.37402C277.208 8.29915 277.944 7.46973 278.884 6.88574C279.832 6.30176 280.911 6.00977 282.121 6.00977C283.992 6.00977 285.502 6.65723 286.653 7.95215C287.813 9.24707 288.393 10.9694 288.393 13.1191V13.2842C288.393 14.6214 288.134 15.8232 287.618 16.8896C287.11 17.9476 286.378 18.7728 285.422 19.3652C284.474 19.9577 283.382 20.2539 282.146 20.2539C280.285 20.2539 278.774 19.6064 277.614 18.3115C276.463 17.0166 275.888 15.3027 275.888 13.1699V13.0049ZM278.249 13.2842C278.249 14.8076 278.6 16.0306 279.303 16.9531C280.014 17.8757 280.962 18.3369 282.146 18.3369C283.34 18.3369 284.288 17.8714 284.99 16.9404C285.693 16.001 286.044 14.6891 286.044 13.0049C286.044 11.4984 285.684 10.2796 284.965 9.34863C284.254 8.40918 283.306 7.93945 282.121 7.93945C280.962 7.93945 280.026 8.40072 279.315 9.32324C278.604 10.2458 278.249 11.5661 278.249 13.2842ZM293.56 6.26367L293.636 7.99023C294.685 6.66992 296.056 6.00977 297.749 6.00977C300.652 6.00977 302.116 7.64746 302.142 10.9229V20H299.793V10.9102C299.785 9.91992 299.556 9.18783 299.107 8.71387C298.667 8.23991 297.978 8.00293 297.038 8.00293C296.276 8.00293 295.608 8.20605 295.032 8.6123C294.457 9.01855 294.008 9.55176 293.687 10.2119V20H291.338V6.26367H293.56ZM313.682 16.3564C313.682 15.7217 313.44 15.2308 312.958 14.8838C312.484 14.5283 311.65 14.2236 310.457 13.9697C309.272 13.7158 308.328 13.4111 307.626 13.0557C306.932 12.7002 306.416 12.277 306.077 11.7861C305.747 11.2952 305.582 10.7113 305.582 10.0342C305.582 8.90853 306.056 7.95638 307.004 7.17773C307.96 6.39909 309.179 6.00977 310.66 6.00977C312.217 6.00977 313.479 6.41178 314.443 7.21582C315.417 8.01986 315.903 9.04818 315.903 10.3008H313.542C313.542 9.65755 313.267 9.10319 312.717 8.6377C312.175 8.1722 311.49 7.93945 310.66 7.93945C309.805 7.93945 309.137 8.12565 308.654 8.49805C308.172 8.87044 307.931 9.3571 307.931 9.95801C307.931 10.5251 308.155 10.9525 308.604 11.2402C309.052 11.528 309.86 11.8031 311.028 12.0654C312.205 12.3278 313.157 12.641 313.885 13.0049C314.613 13.3688 315.15 13.8089 315.497 14.3252C315.853 14.833 316.03 15.4551 316.03 16.1914C316.03 17.4186 315.539 18.4046 314.558 19.1494C313.576 19.8857 312.302 20.2539 310.736 20.2539C309.636 20.2539 308.663 20.0592 307.816 19.6699C306.97 19.2806 306.306 18.7389 305.823 18.0449C305.349 17.3424 305.112 16.585 305.112 15.7725H307.461C307.503 16.5596 307.816 17.1859 308.4 17.6514C308.993 18.1084 309.771 18.3369 310.736 18.3369C311.625 18.3369 312.336 18.1592 312.869 17.8037C313.411 17.4398 313.682 16.9574 313.682 16.3564ZM327.57 18.6416C326.656 19.7165 325.315 20.2539 323.546 20.2539C322.082 20.2539 320.965 19.8307 320.194 18.9844C319.433 18.1296 319.048 16.8685 319.039 15.2012V6.26367H321.388V15.1377C321.388 17.2197 322.234 18.2607 323.927 18.2607C325.721 18.2607 326.914 17.5921 327.507 16.2549V6.26367H329.855V20H327.621L327.57 18.6416ZM335.987 20H333.639V0.5H335.987V20ZM342.944 2.9375V6.26367H345.509V8.0791H342.944V16.5977C342.944 17.1478 343.059 17.5625 343.287 17.8418C343.516 18.1126 343.905 18.248 344.455 18.248C344.726 18.248 345.098 18.1973 345.572 18.0957V20C344.954 20.1693 344.354 20.2539 343.77 20.2539C342.72 20.2539 341.929 19.9365 341.396 19.3018C340.862 18.667 340.596 17.7656 340.596 16.5977V8.0791H338.095V6.26367H340.596V2.9375H342.944ZM356.744 20C356.609 19.7292 356.499 19.2467 356.414 18.5527C355.322 19.6868 354.019 20.2539 352.504 20.2539C351.15 20.2539 350.037 19.873 349.165 19.1113C348.302 18.3411 347.87 17.3678 347.87 16.1914C347.87 14.7611 348.412 13.6523 349.495 12.8652C350.587 12.0697 352.119 11.6719 354.091 11.6719H356.376V10.5928C356.376 9.77181 356.131 9.12012 355.64 8.6377C355.149 8.14681 354.425 7.90137 353.469 7.90137C352.631 7.90137 351.928 8.11296 351.361 8.53613C350.794 8.95931 350.511 9.47135 350.511 10.0723H348.149C348.149 9.38672 348.391 8.72656 348.873 8.0918C349.364 7.44857 350.024 6.94076 350.854 6.56836C351.691 6.19596 352.61 6.00977 353.608 6.00977C355.191 6.00977 356.431 6.40755 357.328 7.20312C358.225 7.99023 358.691 9.0778 358.725 10.4658V16.7881C358.725 18.0492 358.885 19.0521 359.207 19.7969V20H356.744ZM352.847 18.21C353.583 18.21 354.281 18.0195 354.941 17.6387C355.602 17.2578 356.08 16.7627 356.376 16.1533V13.335H354.535C351.658 13.335 350.219 14.1771 350.219 15.8613C350.219 16.5977 350.464 17.1732 350.955 17.5879C351.446 18.0026 352.076 18.21 352.847 18.21ZM369.046 8.37109C368.69 8.31185 368.305 8.28223 367.891 8.28223C366.35 8.28223 365.305 8.93815 364.755 10.25V20H362.406V6.26367H364.691L364.729 7.85059C365.5 6.62337 366.591 6.00977 368.005 6.00977C368.462 6.00977 368.809 6.06901 369.046 6.1875V8.37109ZM380.218 20H377.869V0.5H380.218V20ZM392.469 20C392.333 19.7292 392.223 19.2467 392.139 18.5527C391.047 19.6868 389.743 20.2539 388.229 20.2539C386.874 20.2539 385.761 19.873 384.89 19.1113C384.026 18.3411 383.595 17.3678 383.595 16.1914C383.595 14.7611 384.136 13.6523 385.22 12.8652C386.312 12.0697 387.843 11.6719 389.815 11.6719H392.101V10.5928C392.101 9.77181 391.855 9.12012 391.364 8.6377C390.873 8.14681 390.15 7.90137 389.193 7.90137C388.355 7.90137 387.653 8.11296 387.086 8.53613C386.519 8.95931 386.235 9.47135 386.235 10.0723H383.874C383.874 9.38672 384.115 8.72656 384.598 8.0918C385.089 7.44857 385.749 6.94076 386.578 6.56836C387.416 6.19596 388.334 6.00977 389.333 6.00977C390.916 6.00977 392.156 6.40755 393.053 7.20312C393.95 7.99023 394.415 9.0778 394.449 10.4658V16.7881C394.449 18.0492 394.61 19.0521 394.932 19.7969V20H392.469ZM388.571 18.21C389.308 18.21 390.006 18.0195 390.666 17.6387C391.326 17.2578 391.804 16.7627 392.101 16.1533V13.335H390.26C387.382 13.335 385.943 14.1771 385.943 15.8613C385.943 16.5977 386.189 17.1732 386.68 17.5879C387.171 18.0026 387.801 18.21 388.571 18.21ZM406.129 16.3564C406.129 15.7217 405.888 15.2308 405.405 14.8838C404.931 14.5283 404.098 14.2236 402.904 13.9697C401.719 13.7158 400.776 13.4111 400.073 13.0557C399.379 12.7002 398.863 12.277 398.524 11.7861C398.194 11.2952 398.029 10.7113 398.029 10.0342C398.029 8.90853 398.503 7.95638 399.451 7.17773C400.408 6.39909 401.626 6.00977 403.107 6.00977C404.665 6.00977 405.926 6.41178 406.891 7.21582C407.864 8.01986 408.351 9.04818 408.351 10.3008H405.989C405.989 9.65755 405.714 9.10319 405.164 8.6377C404.622 8.1722 403.937 7.93945 403.107 7.93945C402.253 7.93945 401.584 8.12565 401.102 8.49805C400.619 8.87044 400.378 9.3571 400.378 9.95801C400.378 10.5251 400.602 10.9525 401.051 11.2402C401.499 11.528 402.308 11.8031 403.476 12.0654C404.652 12.3278 405.604 12.641 406.332 13.0049C407.06 13.3688 407.597 13.8089 407.944 14.3252C408.3 14.833 408.478 15.4551 408.478 16.1914C408.478 17.4186 407.987 18.4046 407.005 19.1494C406.023 19.8857 404.749 20.2539 403.184 20.2539C402.083 20.2539 401.11 20.0592 400.264 19.6699C399.417 19.2806 398.753 18.7389 398.271 18.0449C397.797 17.3424 397.56 16.585 397.56 15.7725H399.908C399.951 16.5596 400.264 17.1859 400.848 17.6514C401.44 18.1084 402.219 18.3369 403.184 18.3369C404.072 18.3369 404.783 18.1592 405.316 17.8037C405.858 17.4398 406.129 16.9574 406.129 16.3564ZM417.364 13.0049C417.364 11.6592 417.627 10.4489 418.151 9.37402C418.685 8.29915 419.421 7.46973 420.36 6.88574C421.308 6.30176 422.387 6.00977 423.598 6.00977C425.468 6.00977 426.979 6.65723 428.13 7.95215C429.289 9.24707 429.869 10.9694 429.869 13.1191V13.2842C429.869 14.6214 429.611 15.8232 429.095 16.8896C428.587 17.9476 427.855 18.7728 426.898 19.3652C425.951 19.9577 424.859 20.2539 423.623 20.2539C421.761 20.2539 420.25 19.6064 419.091 18.3115C417.94 17.0166 417.364 15.3027 417.364 13.1699V13.0049ZM419.726 13.2842C419.726 14.8076 420.077 16.0306 420.779 16.9531C421.49 17.8757 422.438 18.3369 423.623 18.3369C424.816 18.3369 425.764 17.8714 426.467 16.9404C427.169 16.001 427.521 14.6891 427.521 13.0049C427.521 11.4984 427.161 10.2796 426.441 9.34863C425.73 8.40918 424.783 7.93945 423.598 7.93945C422.438 7.93945 421.503 8.40072 420.792 9.32324C420.081 10.2458 419.726 11.5661 419.726 13.2842ZM424.664 0.5H427.508L424.105 4.23242H422.214L424.664 0.5ZM439.454 8.37109C439.099 8.31185 438.714 8.28223 438.299 8.28223C436.758 8.28223 435.713 8.93815 435.163 10.25V20H432.814V6.26367H435.1L435.138 7.85059C435.908 6.62337 437 6.00977 438.413 6.00977C438.87 6.00977 439.217 6.06901 439.454 6.1875V8.37109ZM440.8 13.0176C440.8 10.9102 441.299 9.21745 442.298 7.93945C443.297 6.65299 444.604 6.00977 446.221 6.00977C447.829 6.00977 449.103 6.5599 450.042 7.66016V0.5H452.391V20H450.232L450.118 18.5273C449.179 19.6784 447.871 20.2539 446.195 20.2539C444.604 20.2539 443.305 19.6022 442.298 18.2988C441.299 16.9954 440.8 15.2943 440.8 13.1953V13.0176ZM443.148 13.2842C443.148 14.8415 443.47 16.0602 444.113 16.9404C444.757 17.8206 445.645 18.2607 446.779 18.2607C448.269 18.2607 449.356 17.5921 450.042 16.2549V9.94531C449.34 8.65039 448.26 8.00293 446.805 8.00293C445.654 8.00293 444.757 8.44727 444.113 9.33594C443.47 10.2246 443.148 11.5407 443.148 13.2842ZM461.747 20.2539C459.885 20.2539 458.37 19.6445 457.202 18.4258C456.034 17.1986 455.45 15.5609 455.45 13.5127V13.0811C455.45 11.7184 455.708 10.5039 456.225 9.4375C456.749 8.36263 457.477 7.52474 458.408 6.92383C459.348 6.31445 460.363 6.00977 461.455 6.00977C463.241 6.00977 464.629 6.59798 465.619 7.77441C466.609 8.95085 467.104 10.6351 467.104 12.8271V13.8047H457.799C457.833 15.1589 458.226 16.2549 458.979 17.0928C459.741 17.9222 460.706 18.3369 461.874 18.3369C462.703 18.3369 463.406 18.1676 463.981 17.8291C464.557 17.4906 465.061 17.042 465.492 16.4834L466.927 17.6006C465.776 19.3695 464.049 20.2539 461.747 20.2539ZM461.455 7.93945C460.507 7.93945 459.712 8.28646 459.068 8.98047C458.425 9.66602 458.027 10.6309 457.875 11.875H464.756V11.6973C464.688 10.5039 464.367 9.58138 463.791 8.92969C463.215 8.26953 462.437 7.93945 461.455 7.93945ZM472.056 6.26367L472.132 7.99023C473.181 6.66992 474.552 6.00977 476.245 6.00977C479.148 6.00977 480.612 7.64746 480.638 10.9229V20H478.289V10.9102C478.281 9.91992 478.052 9.18783 477.604 8.71387C477.163 8.23991 476.474 8.00293 475.534 8.00293C474.772 8.00293 474.104 8.20605 473.528 8.6123C472.953 9.01855 472.504 9.55176 472.183 10.2119V20H469.834V6.26367H472.056ZM489.88 20.2539C488.018 20.2539 486.503 19.6445 485.335 18.4258C484.167 17.1986 483.583 15.5609 483.583 13.5127V13.0811C483.583 11.7184 483.841 10.5039 484.357 9.4375C484.882 8.36263 485.61 7.52474 486.541 6.92383C487.48 6.31445 488.496 6.00977 489.588 6.00977C491.374 6.00977 492.762 6.59798 493.752 7.77441C494.742 8.95085 495.237 10.6351 495.237 12.8271V13.8047H485.932C485.965 15.1589 486.359 16.2549 487.112 17.0928C487.874 17.9222 488.839 18.3369 490.007 18.3369C490.836 18.3369 491.539 18.1676 492.114 17.8291C492.69 17.4906 493.193 17.042 493.625 16.4834L495.06 17.6006C493.909 19.3695 492.182 20.2539 489.88 20.2539ZM489.588 7.93945C488.64 7.93945 487.844 8.28646 487.201 8.98047C486.558 9.66602 486.16 10.6309 486.008 11.875H492.889V11.6973C492.821 10.5039 492.499 9.58138 491.924 8.92969C491.348 8.26953 490.57 7.93945 489.588 7.93945ZM505.965 16.3564C505.965 15.7217 505.724 15.2308 505.241 14.8838C504.767 14.5283 503.934 14.2236 502.74 13.9697C501.555 13.7158 500.612 13.4111 499.909 13.0557C499.215 12.7002 498.699 12.277 498.36 11.7861C498.03 11.2952 497.865 10.7113 497.865 10.0342C497.865 8.90853 498.339 7.95638 499.287 7.17773C500.243 6.39909 501.462 6.00977 502.943 6.00977C504.501 6.00977 505.762 6.41178 506.727 7.21582C507.7 8.01986 508.187 9.04818 508.187 10.3008H505.825C505.825 9.65755 505.55 9.10319 505 8.6377C504.458 8.1722 503.773 7.93945 502.943 7.93945C502.089 7.93945 501.42 8.12565 500.938 8.49805C500.455 8.87044 500.214 9.3571 500.214 9.95801C500.214 10.5251 500.438 10.9525 500.887 11.2402C501.335 11.528 502.144 11.8031 503.312 12.0654C504.488 12.3278 505.44 12.641 506.168 13.0049C506.896 13.3688 507.433 13.8089 507.78 14.3252C508.136 14.833 508.313 15.4551 508.313 16.1914C508.313 17.4186 507.823 18.4046 506.841 19.1494C505.859 19.8857 504.585 20.2539 503.02 20.2539C501.919 20.2539 500.946 20.0592 500.1 19.6699C499.253 19.2806 498.589 18.7389 498.106 18.0449C497.632 17.3424 497.396 16.585 497.396 15.7725H499.744C499.786 16.5596 500.1 17.1859 500.684 17.6514C501.276 18.1084 502.055 18.3369 503.02 18.3369C503.908 18.3369 504.619 18.1592 505.152 17.8037C505.694 17.4398 505.965 16.9574 505.965 16.3564ZM517.251 13.0176C517.251 10.9102 517.75 9.21745 518.749 7.93945C519.748 6.65299 521.055 6.00977 522.672 6.00977C524.28 6.00977 525.554 6.5599 526.493 7.66016V0.5H528.842V20H526.684L526.569 18.5273C525.63 19.6784 524.322 20.2539 522.646 20.2539C521.055 20.2539 519.756 19.6022 518.749 18.2988C517.75 16.9954 517.251 15.2943 517.251 13.1953V13.0176ZM519.6 13.2842C519.6 14.8415 519.921 16.0602 520.564 16.9404C521.208 17.8206 522.096 18.2607 523.23 18.2607C524.72 18.2607 525.808 17.5921 526.493 16.2549V9.94531C525.791 8.65039 524.712 8.00293 523.256 8.00293C522.105 8.00293 521.208 8.44727 520.564 9.33594C519.921 10.2246 519.6 11.5407 519.6 13.2842ZM538.198 20.2539C536.336 20.2539 534.821 19.6445 533.653 18.4258C532.485 17.1986 531.901 15.5609 531.901 13.5127V13.0811C531.901 11.7184 532.16 10.5039 532.676 9.4375C533.201 8.36263 533.928 7.52474 534.859 6.92383C535.799 6.31445 536.814 6.00977 537.906 6.00977C539.692 6.00977 541.08 6.59798 542.07 7.77441C543.061 8.95085 543.556 10.6351 543.556 12.8271V13.8047H534.25C534.284 15.1589 534.677 16.2549 535.431 17.0928C536.192 17.9222 537.157 18.3369 538.325 18.3369C539.155 18.3369 539.857 18.1676 540.433 17.8291C541.008 17.4906 541.512 17.042 541.943 16.4834L543.378 17.6006C542.227 19.3695 540.5 20.2539 538.198 20.2539ZM537.906 7.93945C536.958 7.93945 536.163 8.28646 535.52 8.98047C534.876 9.66602 534.479 10.6309 534.326 11.875H541.207V11.6973C541.139 10.5039 540.818 9.58138 540.242 8.92969C539.667 8.26953 538.888 7.93945 537.906 7.93945ZM553.89 20V8.0791H551.719V6.26367H553.89V4.85449C553.89 3.38184 554.283 2.24349 555.07 1.43945C555.857 0.635417 556.97 0.233398 558.409 0.233398C558.951 0.233398 559.488 0.305339 560.021 0.449219L559.895 2.35352C559.497 2.27734 559.074 2.23926 558.625 2.23926C557.863 2.23926 557.275 2.46354 556.86 2.91211C556.446 3.35221 556.238 3.98698 556.238 4.81641V6.26367H559.171V8.0791H556.238V20H553.89ZM570.254 20C570.118 19.7292 570.008 19.2467 569.924 18.5527C568.832 19.6868 567.529 20.2539 566.014 20.2539C564.66 20.2539 563.547 19.873 562.675 19.1113C561.812 18.3411 561.38 17.3678 561.38 16.1914C561.38 14.7611 561.922 13.6523 563.005 12.8652C564.097 12.0697 565.629 11.6719 567.601 11.6719H569.886V10.5928C569.886 9.77181 569.64 9.12012 569.149 8.6377C568.659 8.14681 567.935 7.90137 566.979 7.90137C566.141 7.90137 565.438 8.11296 564.871 8.53613C564.304 8.95931 564.021 9.47135 564.021 10.0723H561.659C561.659 9.38672 561.9 8.72656 562.383 8.0918C562.874 7.44857 563.534 6.94076 564.363 6.56836C565.201 6.19596 566.119 6.00977 567.118 6.00977C568.701 6.00977 569.941 6.40755 570.838 7.20312C571.735 7.99023 572.201 9.0778 572.234 10.4658V16.7881C572.234 18.0492 572.395 19.0521 572.717 19.7969V20H570.254ZM566.356 18.21C567.093 18.21 567.791 18.0195 568.451 17.6387C569.111 17.2578 569.59 16.7627 569.886 16.1533V13.335H568.045C565.167 13.335 563.729 14.1771 563.729 15.8613C563.729 16.5977 563.974 17.1732 564.465 17.5879C564.956 18.0026 565.586 18.21 566.356 18.21ZM581.426 18.3369C582.264 18.3369 582.996 18.083 583.622 17.5752C584.248 17.0674 584.595 16.4326 584.663 15.6709H586.885C586.842 16.458 586.572 17.207 586.072 17.918C585.573 18.6289 584.904 19.196 584.066 19.6191C583.237 20.0423 582.357 20.2539 581.426 20.2539C579.555 20.2539 578.066 19.6318 576.957 18.3877C575.857 17.1351 575.307 15.4255 575.307 13.2588V12.8652C575.307 11.528 575.552 10.3389 576.043 9.29785C576.534 8.25684 577.236 7.44857 578.15 6.87305C579.073 6.29753 580.16 6.00977 581.413 6.00977C582.953 6.00977 584.231 6.47103 585.247 7.39355C586.271 8.31608 586.817 9.51367 586.885 10.9863H584.663C584.595 10.0977 584.257 9.36979 583.647 8.80273C583.047 8.22721 582.302 7.93945 581.413 7.93945C580.22 7.93945 579.293 8.37109 578.633 9.23438C577.981 10.0892 577.655 11.3291 577.655 12.9541V13.3984C577.655 14.9811 577.981 16.1999 578.633 17.0547C579.285 17.9095 580.215 18.3369 581.426 18.3369ZM592.712 2.9375V6.26367H595.276V8.0791H592.712V16.5977C592.712 17.1478 592.826 17.5625 593.055 17.8418C593.283 18.1126 593.673 18.248 594.223 18.248C594.493 18.248 594.866 18.1973 595.34 18.0957V20C594.722 20.1693 594.121 20.2539 593.537 20.2539C592.488 20.2539 591.696 19.9365 591.163 19.3018C590.63 18.667 590.363 17.7656 590.363 16.5977V8.0791H587.862V6.26367H590.363V2.9375H592.712ZM606.512 18.6416C605.598 19.7165 604.256 20.2539 602.487 20.2539C601.023 20.2539 599.906 19.8307 599.136 18.9844C598.374 18.1296 597.989 16.8685 597.98 15.2012V6.26367H600.329V15.1377C600.329 17.2197 601.175 18.2607 602.868 18.2607C604.662 18.2607 605.856 17.5921 606.448 16.2549V6.26367H608.797V20H606.562L606.512 18.6416ZM619.017 8.37109C618.661 8.31185 618.276 8.28223 617.861 8.28223C616.321 8.28223 615.276 8.93815 614.726 10.25V20H612.377V6.26367H614.662L614.7 7.85059C615.47 6.62337 616.562 6.00977 617.976 6.00977C618.433 6.00977 618.78 6.06901 619.017 6.1875V8.37109ZM629.16 20C629.025 19.7292 628.915 19.2467 628.83 18.5527C627.738 19.6868 626.435 20.2539 624.92 20.2539C623.566 20.2539 622.453 19.873 621.581 19.1113C620.718 18.3411 620.286 17.3678 620.286 16.1914C620.286 14.7611 620.828 13.6523 621.911 12.8652C623.003 12.0697 624.535 11.6719 626.507 11.6719H628.792V10.5928C628.792 9.77181 628.547 9.12012 628.056 8.6377C627.565 8.14681 626.841 7.90137 625.885 7.90137C625.047 7.90137 624.344 8.11296 623.777 8.53613C623.21 8.95931 622.927 9.47135 622.927 10.0723H620.565C620.565 9.38672 620.807 8.72656 621.289 8.0918C621.78 7.44857 622.44 6.94076 623.27 6.56836C624.107 6.19596 625.026 6.00977 626.024 6.00977C627.607 6.00977 628.847 6.40755 629.744 7.20312C630.641 7.99023 631.107 9.0778 631.141 10.4658V16.7881C631.141 18.0492 631.301 19.0521 631.623 19.7969V20H629.16ZM625.263 18.21C625.999 18.21 626.697 18.0195 627.357 17.6387C628.018 17.2578 628.496 16.7627 628.792 16.1533V13.335H626.951C624.074 13.335 622.635 14.1771 622.635 15.8613C622.635 16.5977 622.88 17.1732 623.371 17.5879C623.862 18.0026 624.493 18.21 625.263 18.21ZM640.332 18.3369C641.17 18.3369 641.902 18.083 642.528 17.5752C643.155 17.0674 643.502 16.4326 643.569 15.6709H645.791C645.749 16.458 645.478 17.207 644.979 17.918C644.479 18.6289 643.811 19.196 642.973 19.6191C642.143 20.0423 641.263 20.2539 640.332 20.2539C638.462 20.2539 636.972 19.6318 635.863 18.3877C634.763 17.1351 634.213 15.4255 634.213 13.2588V12.8652C634.213 11.528 634.458 10.3389 634.949 9.29785C635.44 8.25684 636.143 7.44857 637.057 6.87305C637.979 6.29753 639.067 6.00977 640.319 6.00977C641.86 6.00977 643.138 6.47103 644.153 7.39355C645.177 8.31608 645.723 9.51367 645.791 10.9863H643.569C643.502 10.0977 643.163 9.36979 642.554 8.80273C641.953 8.22721 641.208 7.93945 640.319 7.93945C639.126 7.93945 638.199 8.37109 637.539 9.23438C636.887 10.0892 636.562 11.3291 636.562 12.9541V13.3984C636.562 14.9811 636.887 16.1999 637.539 17.0547C638.191 17.9095 639.122 18.3369 640.332 18.3369ZM650.983 20H648.635V6.26367H650.983V20ZM648.444 2.62012C648.444 2.23926 648.559 1.91764 648.787 1.65527C649.024 1.3929 649.371 1.26172 649.828 1.26172C650.285 1.26172 650.632 1.3929 650.869 1.65527C651.106 1.91764 651.225 2.23926 651.225 2.62012C651.225 3.00098 651.106 3.31836 650.869 3.57227C650.632 3.82617 650.285 3.95312 649.828 3.95312C649.371 3.95312 649.024 3.82617 648.787 3.57227C648.559 3.31836 648.444 3.00098 648.444 2.62012ZM654.132 13.0049C654.132 11.6592 654.394 10.4489 654.919 9.37402C655.452 8.29915 656.188 7.46973 657.128 6.88574C658.076 6.30176 659.155 6.00977 660.365 6.00977C662.236 6.00977 663.746 6.65723 664.897 7.95215C666.057 9.24707 666.637 10.9694 666.637 13.1191V13.2842C666.637 14.6214 666.379 15.8232 665.862 16.8896C665.354 17.9476 664.622 18.7728 663.666 19.3652C662.718 19.9577 661.626 20.2539 660.391 20.2539C658.529 20.2539 657.018 19.6064 655.858 18.3115C654.707 17.0166 654.132 15.3027 654.132 13.1699V13.0049ZM656.493 13.2842C656.493 14.8076 656.844 16.0306 657.547 16.9531C658.258 17.8757 659.206 18.3369 660.391 18.3369C661.584 18.3369 662.532 17.8714 663.234 16.9404C663.937 16.001 664.288 14.6891 664.288 13.0049C664.288 11.4984 663.928 10.2796 663.209 9.34863C662.498 8.40918 661.55 7.93945 660.365 7.93945C659.206 7.93945 658.271 8.40072 657.56 9.32324C656.849 10.2458 656.493 11.5661 656.493 13.2842ZM661.432 0.5H664.275L660.873 4.23242H658.981L661.432 0.5ZM671.804 6.26367L671.88 7.99023C672.929 6.66992 674.3 6.00977 675.993 6.00977C678.896 6.00977 680.36 7.64746 680.386 10.9229V20H678.037V10.9102C678.029 9.91992 677.8 9.18783 677.352 8.71387C676.911 8.23991 676.222 8.00293 675.282 8.00293C674.521 8.00293 673.852 8.20605 673.276 8.6123C672.701 9.01855 672.252 9.55176 671.931 10.2119V20H669.582V6.26367H671.804Z" fill="#C1C1C1"/>
</svg>
