<svg width="46" height="47" viewBox="0 0 46 47" fill="none" xmlns="http://www.w3.org/2000/svg">
<path d="M14.7967 42.6596C18.2027 45.4749 22.4526 47.0074 26.8333 47C29.7237 47 32.4683 46.3458 34.9332 45.1706L43.7077 46.9608C44.0169 47.0237 44.3364 47.0077 44.6381 46.9142C44.9398 46.8207 45.2143 46.6526 45.4372 46.4248C45.6601 46.197 45.8246 45.9166 45.9161 45.6083C46.0076 45.3 46.0232 44.9734 45.9617 44.6574L44.2098 35.6947C45.3598 33.1759 46 30.3672 46 27.4136C46 22.7559 44.4092 18.4822 41.7527 15.1172C42.2982 18.0174 42.3073 20.9962 41.7795 23.8998C42.5833 27.4892 42.1288 31.2531 40.4953 34.5352C40.2985 34.9288 40.2377 35.3788 40.3228 35.8122L41.6415 42.546L35.0482 41.1985C34.6253 41.1124 34.1864 41.1745 33.8023 41.3748C30.5899 43.0465 26.9047 43.511 23.391 42.687C20.5497 43.2269 17.6346 43.2176 14.7967 42.6596V42.6596ZM1.77927e-05 19.579C0.0015812 15.3407 1.34846 11.2172 3.83845 7.82761C6.32845 4.43805 9.82719 1.96532 13.8094 0.780658C17.7916 -0.404004 22.0425 -0.236676 25.9237 1.25752C29.805 2.75172 33.1072 5.49215 35.3346 9.06741C37.5621 12.6427 38.5946 16.8598 38.2771 21.0857C37.9596 25.3117 36.3093 29.3183 33.5738 32.5042C30.8384 35.6901 27.1655 37.8833 23.1066 38.7545C19.0476 39.6258 14.8216 39.128 11.063 37.336L2.29235 39.1262C1.98317 39.1891 1.66358 39.1731 1.3619 39.0796C1.06021 38.9861 0.785757 38.8181 0.562842 38.5903C0.339928 38.3625 0.175439 38.082 0.0839511 37.7737C-0.00753698 37.4654 -0.0231999 37.1388 0.0383511 36.8229L1.79018 27.8562C0.60733 25.2645 -0.0038016 22.4388 1.77927e-05 19.579V19.579ZM19.1667 26.9435C18.5313 26.9435 17.9219 27.2014 17.4726 27.6606C17.0233 28.1197 16.7708 28.7425 16.7708 29.3918C16.7708 30.0411 17.0233 30.6639 17.4726 31.123C17.9219 31.5822 18.5313 31.8401 19.1667 31.8401C19.8021 31.8401 20.4115 31.5822 20.8608 31.123C21.3101 30.6639 21.5625 30.0411 21.5625 29.3918C21.5625 28.7425 21.3101 28.1197 20.8608 27.6606C20.4115 27.2014 19.8021 26.9435 19.1667 26.9435V26.9435ZM19.1667 7.83893C15.1493 7.83893 12.0213 11.0433 12.0635 15.4972C12.0686 16.0167 12.2754 16.5128 12.6384 16.8764C13.0015 17.2401 13.491 17.4415 13.9993 17.4363C14.5077 17.4311 14.9932 17.2197 15.349 16.8487C15.7049 16.4778 15.9019 15.9775 15.8968 15.458C15.8738 13.1899 17.2768 11.7562 19.1667 11.7562C20.976 11.7562 22.4365 13.2918 22.4365 15.4776C22.4365 16.2689 22.1682 16.7116 21.0565 17.6086L19.9947 18.4508C18.055 20.0334 17.25 21.2595 17.25 23.4963C17.2491 23.9857 17.4276 24.4578 17.7503 24.8195C18.073 25.1812 18.5165 25.4063 18.9935 25.4505C19.4705 25.4948 19.9464 25.3549 20.3275 25.0584C20.7086 24.762 20.9673 24.3305 21.0527 23.8489L21.0948 23.2378C21.16 22.658 21.4782 22.2428 22.4212 21.4828L23.483 20.6406C25.4495 19.0345 26.2698 17.7732 26.2698 15.4776C26.2698 11.1529 23.1188 7.83893 19.1667 7.83893Z" fill="#303044"/>
</svg>
