<svg width="51" height="59" viewBox="0 0 51 59" fill="none" xmlns="http://www.w3.org/2000/svg">
<circle cx="25.6438" cy="29.8832" r="25" fill="#CF433B"/>
<path d="M15.9635 12.6139C15.0244 14.3263 14.7436 17.4706 14.7205 18.8287C14.7205 18.3317 19.0939 15.353 21.2806 13.9257C22.2197 15.5828 26.92 18.8975 29.1527 20.3477C29.7052 17.1022 26.3215 14.0638 26.6668 13.3042C26.943 12.6966 32.5364 14.6163 35.2985 15.6521C35.0223 13.4976 31.7307 11.5319 30.1195 10.8183C29.7328 9.98944 33.6412 7.48066 35.6438 6.32987C34.3732 5.28018 28.3011 5.8925 25.4238 6.32987C25.4238 0.750348 21.8791 0.736564 20.1067 1.42711C22.1507 2.58722 22.0172 5.179 21.6949 6.32987C19.8305 3.42961 9.12714 4.87987 11.475 5.01798C13.3532 5.12846 15.6182 6.81335 16.5159 7.64199C15.1901 7.20004 10.7154 10.2661 8.6438 11.8544L15.9635 12.6139Z" fill="#40803C" stroke="#40803C"/>
<path d="M28.0686 29.8506H35.5613V36.2007H28.0686V44.792H21.1472V36.2007H13.6326V29.8506H21.1472V21.501H28.0686V29.8506Z" fill="white"/>
</svg>
