<svg width="135" height="39" viewBox="0 0 135 39" fill="none" xmlns="http://www.w3.org/2000/svg">
<path fill-rule="evenodd" clip-rule="evenodd" d="M0 11.9576V12.0569L22.823 22.5706L45.726 12.0202V11.9934L22.823 1.44393L0 11.9576ZM8.228 12.0073L22.823 5.28415L37.42 12.0073L22.823 18.7304L8.228 12.0073ZM22.823 26.6551L0 16.2963V20.1266L22.823 30.5072L45.726 20.0919V16.2606L22.823 26.6551ZM22.823 34.4229L0 24.0652V27.8964L22.823 38.278L45.726 27.8607V24.0304L22.823 34.4229ZM129.796 19.4821C129.809 17.815 129.183 16.2054 128.044 14.9805C127.509 14.4091 126.864 13.9499 126.147 13.6299C125.42 13.3048 124.631 13.1388 123.834 13.1433C123.015 13.1433 122.244 13.3062 121.521 13.6299C120.804 13.9499 120.159 14.4091 119.624 14.9805C118.485 16.2053 117.858 17.8149 117.871 19.4821C117.858 21.1494 118.485 22.759 119.624 23.9837C120.159 24.5552 120.804 25.0144 121.521 25.3343C122.244 25.658 123.015 25.8209 123.834 25.8209C124.654 25.8209 125.424 25.658 126.147 25.3343C126.864 25.0143 127.509 24.5551 128.044 23.9837C129.183 22.7591 129.809 21.1494 129.796 19.4821ZM135 19.4821C135 21.0422 134.71 22.4892 134.133 23.8219C133.578 25.1202 132.767 26.2952 131.748 27.2778C130.718 28.2622 129.51 29.0446 128.188 29.5837C126.808 30.1515 125.328 30.4391 123.834 30.4298C122.292 30.4298 120.847 30.1477 119.498 29.5837C118.18 29.0394 116.978 28.2507 115.957 27.2599C114.94 26.2683 114.13 25.0876 113.572 23.7851C112.994 22.4534 112.704 21.0184 112.704 19.4821C112.704 17.9697 113 16.5466 113.59 15.2149C114.161 13.9098 114.977 12.7243 115.993 11.7213C117.01 10.7214 118.213 9.92652 119.534 9.38058C120.895 8.81402 122.358 8.52624 123.834 8.53448C125.376 8.53448 126.827 8.81651 128.188 9.38058C129.51 9.91938 130.718 10.7014 131.748 11.6855C132.77 12.673 133.581 13.8552 134.133 15.1613C134.711 16.5049 135 17.9468 135 19.4821ZM110.898 29.7803C110.488 29.972 110.024 30.1279 109.506 30.248C108.979 30.3694 108.439 30.43 107.898 30.4288C107.128 30.4288 106.387 30.3265 105.676 30.1229C104.99 29.9317 104.355 29.5934 103.816 29.1318C103.286 28.676 102.864 28.0821 102.55 27.3493C102.237 26.6174 102.08 25.7355 102.08 24.7027V0H107.393V23.804C107.393 24.668 107.567 25.2618 107.916 25.5856C108.266 25.9103 108.681 26.0722 109.163 26.0722C109.765 26.0722 110.343 25.8924 110.898 25.5319V29.7823V29.7803ZM99.732 9.03896L90.337 33.7784C89.638 35.6275 88.723 36.9592 87.59 37.7755C86.458 38.5918 85.109 39 83.543 39C82.994 38.9974 82.4475 38.925 81.917 38.7845L80.183 33.9582C80.592 34.1508 81.013 34.3008 81.447 34.409C81.881 34.5173 82.29 34.5709 82.676 34.5709C83.495 34.5709 84.242 34.3852 84.916 34.0128C85.591 33.6404 86.109 32.9502 86.47 31.9422L87.193 29.8538L79.135 9.03896H84.808L89.614 22.4355L94.131 9.03896H99.732ZM77.87 5.90581H64.283V12.6041H77.689V17.1414H64.283V29.8895H58.79V1.11622H77.87V5.90581Z" fill="white"/>
</svg>
